<?xml version="1.0" standalone="no"?>
<!DOCTYPE svg PUBLIC "-//W3C//DTD SVG 1.1//EN" "http://www.w3.org/Graphics/SVG/1.1/DTD/svg11.dtd">
<svg xmlns="http://www.w3.org/2000/svg"><metadata>This SVG WebFont was generated by YouWorkForThem.
Copyright (c) 2018 by Typesketchbook. All rights reserved.</metadata><defs><font horiz-adv-x="429" id="ywftsvg"><font-face ascent="750" bbox="-36 -195 779 885" cap-height="618" descent="-250" font-family="" font-stretch="normal" font-weight="400" panose-1="2 0 0 0 0 0 0 0 0 0" underline-position="0" underline-thickness="0" unicode-range="U+0020-FB02" units-per-em="1000" x-height="460"/><missing-glyph d="M534 0h-511v626h511v-626zM68 43h19v21h-19l-2 -20q2 0 2 -1zM488 582v-2h2q0 2 -2 2zM488 580h-18v-18h18v18zM490 45l-2 19h-18v-19h20zM69 582v-20h18v20l-19 1q0 -1 1 -1zM87 562v-498h383v498h-383z" horiz-adv-x="567"/><glyph d="M534 0h-511v626h511v-626zM68 43h19v21h-19l-2 -20q2 0 2 -1zM488 582v-2h2q0 2 -2 2zM488 580h-18v-18h18v18zM490 45l-2 19h-18v-19h20zM69 582v-20h18v20l-19 1q0 -1 1 -1zM87 562v-498h383v498h-383z" glyph-name=".notdef" horiz-adv-x="567"/><glyph glyph-name="glyph1" horiz-adv-x="0"/><glyph glyph-name="glyph2" horiz-adv-x="185"/><glyph glyph-name="space" horiz-adv-x="185" unicode=" "/><glyph d="M52 151v467h87v-467h-87zM52 0v112h87v-112h-87z" glyph-name="exclam" horiz-adv-x="191" unicode="!"/><glyph d="M66 454l-14 164h88l-16 -164h-58zM201 454l-14 164h88l-16 -164h-58z" glyph-name="quotedbl" horiz-adv-x="327" unicode="&quot;"/><glyph d="M395 233l32 148h-143l-31 -148h142zM523 458h109v-77h-125l-32 -148h113v-77h-129l-34 -156h-79l33 156h-142l-35 -156h-78l33 156h-105v77h121l32 148h-109v77h125l35 160h80l-35 -160h142l35 160h80z" glyph-name="numbersign" horiz-adv-x="684" unicode="#"/><glyph d="M405 153q0 -68 -36.5 -106.5t-96.5 -48.5v-95h-87v97q-55 12 -92 49.5t-41 103.5v14h87v-14q2 -37 22 -59t73 -22q29 0 48 10t26 26.5t8.5 25t1.5 18.5q0 40 -27.5 68t-66.5 47.5t-78 41t-66.5 60.5t-27.5 95q0 143 133 160v91h87v-96q59 -17 86 -62.5t27 -85.5v-13h-87 v11q-1 35 -23.5 56.5t-57.5 21.5q-44 0 -61 -19.5t-17 -56.5q0 -40 27.5 -68t66.5 -47t78 -40.5t66.5 -62.5t27.5 -100z" glyph-name="dollar" horiz-adv-x="457" unicode="$"/><glyph d="M138 423q41 0 64.5 24.5t23.5 72.5t-23.5 73t-64.5 25t-63.5 -25t-22.5 -73t22.5 -72.5t63.5 -24.5zM138 472q-12 0 -20 12.5t-8 35.5q0 49 28 49q13 0 22 -12t9 -37q0 -23 -9.5 -35.5t-21.5 -12.5zM416 0q41 0 64.5 24.5t23.5 72.5t-23.5 73t-64.5 25t-63.5 -25 t-22.5 -73t22.5 -72.5t63.5 -24.5zM416 49q-12 0 -20 12.5t-8 35.5q0 49 28 49q13 0 22 -12t9 -37q0 -23 -9.5 -35.5t-21.5 -12.5zM351 618h95l-223 -618h-93z" glyph-name="percent" horiz-adv-x="556" unicode="%"/><glyph d="M225 64q51 0 98 51l-110 132q-8 -6 -20.5 -15.5t-33 -38t-20.5 -53.5q0 -30 20.5 -53t65.5 -23zM228 358q78 63 78 123q0 29 -15 48t-47 19q-63 0 -63 -74q0 -64 47 -116zM420 0l-48 57q-26 -31 -66.5 -50.5t-76.5 -19.5q-21 0 -40.5 2.5t-45.5 11.5t-45 24.5t-32.5 44 t-13.5 66.5q0 29 11.5 57.5t28 47.5t33.5 34.5t29 22.5l11 7q-71 72 -71 167q0 82 44 117.5t102 35.5q67 0 110 -34.5t43 -104.5q0 -29 -12 -59t-29.5 -52t-35 -40.5t-29.5 -28.5l-12 -9l97 -115l59 113h86l-93 -175q43 -49 100 -120h-104z" glyph-name="ampersand" horiz-adv-x="576" unicode="&amp;"/><glyph d="M66 454l-14 164h88l-16 -164h-58z" glyph-name="quotesingle" horiz-adv-x="192" unicode="'"/><glyph d="M139 310q0 -219 36 -428h-88q-35 210 -35 428t35 428h88q-36 -209 -36 -428z" glyph-name="parenleft" horiz-adv-x="227" unicode="("/><glyph d="M88 310q0 219 -36 428h88q35 -210 35 -428t-35 -428h-88q36 209 36 428z" glyph-name="parenright" horiz-adv-x="227" unicode=")"/><glyph d="M154 618h80l-6 -98l63 45l45 -66l-83 -42l53 -83l-72 -37l-40 88l-40 -88l-72 37l53 83l-83 42l45 66l63 -45z" glyph-name="asterisk" horiz-adv-x="388" unicode="*"/><glyph d="M137 264v105h87v-105h85v-77h-85v-119h-87v119h-85v77h85z" glyph-name="plus" horiz-adv-x="361" unicode="+"/><glyph d="M179 66l-52 -163h-75l30 163h97z" glyph-name="comma" horiz-adv-x="231" unicode=","/><glyph d="M52 198v77h237v-77h-237z" glyph-name="hyphen" horiz-adv-x="341" unicode="-"/><glyph d="M52 0v81h81v-81h-81z" glyph-name="period" horiz-adv-x="185" unicode="."/><glyph d="M222 738h80l-169 -856h-81z" glyph-name="slash" horiz-adv-x="354" unicode="/"/><glyph d="M223 72q37 0 63 23t26 70v290q0 47 -26 70t-63 23t-63 -23t-26 -70v-290q0 -47 26 -70t63 -23zM223 625q77 0 126.5 -46.5t49.5 -116.5v-304q0 -70 -49.5 -116.5t-126.5 -46.5t-126.5 46.5t-49.5 116.5v304q0 70 49.5 116.5t126.5 46.5z" glyph-name="zero" horiz-adv-x="446" unicode="0"/><glyph d="M153 534l-136 -74v82l135 76h88v-618h-87v534z" glyph-name="one" horiz-adv-x="292" unicode="1"/><glyph d="M35 0v81q0 104 128 223q103 93 103 163v4q0 33 -21 55t-54 22q-30 0 -51 -18t-21 -46v-14h-87v14q0 60 46.5 100.5t112.5 40.5q70 0 116 -45t46 -112q0 -40 -19 -80.5t-39 -63.5t-51 -54q-38 -36 -56.5 -56t-40.5 -59.5t-24 -77.5h213v-77h-301z" glyph-name="two" horiz-adv-x="385" unicode="2"/><glyph d="M119 484v-14h-87v14q0 60 46.5 100.5t112.5 40.5q70 0 116 -45t46 -112v-48q0 -75 -64 -114q64 -44 64 -117v-37q0 -67 -46 -112t-116 -45q-66 0 -112.5 40.5t-46.5 100.5v14h87v-14q0 -28 21 -46t51 -18q33 0 54 22t21 55v47q0 33 -21 54t-54 21h-42v77h42q33 0 54 21.5 t21 54.5v47q0 33 -21 55t-54 22q-30 0 -51 -18t-21 -46z" glyph-name="three" horiz-adv-x="400" unicode="3"/><glyph d="M202 618h138v-401h68v-75h-68v-142h-87v142h-231v90zM97 217h156v334z" glyph-name="four" horiz-adv-x="425" unicode="4"/><glyph d="M143 268h-96v350h288v-77h-201v-191q42 33 101 33q65 0 99 -42.5t34 -109.5v-89q0 -65 -47 -106t-115 -41q-67 0 -112.5 39.5t-46.5 103.5v14h85q4 -39 23.5 -59.5t50.5 -20.5q33 0 54 22.5t21 56.5v79q0 33 -20.5 54.5t-54.5 21.5q-18 0 -36.5 -10.5t-26.5 -27.5z" glyph-name="five" horiz-adv-x="410" unicode="5"/><glyph d="M209 -5q-68 0 -115 40.5t-47 102.5v335q0 65 46 108.5t116 43.5q64 0 109.5 -38.5t47.5 -106.5h-84q-9 68 -73 68q-75 0 -75 -96v-101q42 32 94 32q140 0 140 -151v-94q0 -62 -46.5 -102.5t-112.5 -40.5zM134 230v-81q0 -34 20.5 -55.5t54.5 -21.5q32 0 52 21.5t20 55.5 v81q0 33 -20 54.5t-52 21.5q-34 0 -54.5 -21.5t-20.5 -54.5z" glyph-name="six" horiz-adv-x="410" unicode="6"/><glyph d="M308 555l-159 -555h-85l154 541h-196v77h286v-63z" glyph-name="seven" horiz-adv-x="330" unicode="7"/><glyph d="M201 625q69 0 114 -43t45 -108v-44q0 -32 -15.5 -66t-48.5 -56q64 -41 64 -127v-45q0 -62 -46 -101.5t-113 -39.5t-113 39.5t-46 101.5v45q0 86 64 127q-33 22 -48.5 56t-15.5 66v44q0 65 45 108t114 43zM201 72q33 0 52.5 21.5t19.5 55.5v45q0 33 -19.5 54.5t-52.5 21.5 t-52.5 -21.5t-19.5 -54.5v-45q0 -34 19.5 -55.5t52.5 -21.5zM201 347q33 0 52.5 21t19.5 54v49q0 34 -19.5 55.5t-52.5 21.5t-52.5 -21.5t-19.5 -55.5v-49q0 -33 19.5 -54t52.5 -21z" glyph-name="eight" horiz-adv-x="402" unicode="8"/><glyph d="M201 625q68 0 115 -40.5t47 -102.5v-335q0 -65 -46 -108.5t-116 -43.5q-64 0 -109.5 38.5t-47.5 106.5h84q9 -68 73 -68q75 0 75 96v101q-42 -32 -94 -32q-140 0 -140 151v94q0 62 46.5 102.5t112.5 40.5zM276 390v81q0 34 -20.5 55.5t-54.5 21.5q-33 0 -52.5 -21.5 t-19.5 -55.5v-81q0 -33 20 -54.5t52 -21.5q34 0 54.5 21.5t20.5 54.5z" glyph-name="nine" horiz-adv-x="410" unicode="9"/><glyph d="M52 0v96h96v-96h-96zM52 256v96h96v-96h-96z" glyph-name="colon" horiz-adv-x="200" unicode=":"/><glyph d="M179 84l-52 -163h-75l30 163h97zM83 352v-96h96v96h-96z" glyph-name="semicolon" horiz-adv-x="231" unicode=";"/><glyph d="M52 105v98l231 101v-77l-168 -73l168 -73v-77z" glyph-name="less" horiz-adv-x="335" unicode="&lt;"/><glyph d="M52 249v77h221v-77h-221zM52 102v77h221v-77h-221z" glyph-name="equal" horiz-adv-x="325" unicode="="/><glyph d="M283 203v-98l-231 -101v77l168 73l-168 73v77z" glyph-name="greater" horiz-adv-x="335" unicode=">"/><glyph d="M153 154v71q0 21 9.5 41t19.5 31.5t30 32.5q36 36 55 67t19 73q0 33 -21 55.5t-54 22.5q-30 0 -51 -18t-21 -46v-14h-87v14q0 60 46.5 100.5t112.5 40.5q70 0 116 -45t46 -112v-14q0 -72 -65 -139q-35 -35 -51.5 -60.5t-16.5 -60.5v-40h-87zM153 0v102h87v-102h-87z" glyph-name="question" horiz-adv-x="425" unicode="?"/><glyph d="M278 -97q-107 0 -166.5 56t-59.5 147v330q0 70 55.5 129.5t140.5 59.5h81q86 0 142 -59.5t56 -129.5v-370h-86v27q-49 -35 -85 -35q-54 0 -84 33.5t-30 83.5v131q0 50 30 83.5t84 33.5q35 0 84 -35v23q0 20 -6.5 41.5t-21 44t-44.5 37t-72 14.5h-14q-41 0 -71 -14.5 t-44.5 -37t-21 -44t-6.5 -41.5v-300q0 -20 6.5 -40.5t21 -42t44.5 -35t71 -13.5h91v-77h-95zM440 206v70q0 28 -14.5 46t-42.5 18q-26 0 -40.5 -18t-14.5 -46v-70q0 -29 14.5 -46.5t40.5 -17.5q28 0 42.5 17.5t14.5 46.5z" glyph-name="at" horiz-adv-x="579" unicode="@"/><glyph d="M162 618h128l140 -618h-89l-23 102h-185l-22 -102h-89zM226 519l-76 -340h151z" glyph-name="A" horiz-adv-x="452" unicode="A"/><glyph d="M52 0v618h158q71 0 123 -42.5t52 -116.5v-18q0 -84 -66 -123q35 -12 58 -50t23 -91v-8q0 -76 -52 -122.5t-122 -46.5h-174zM225 77q35 0 61.5 25t26.5 72t-27 73.5t-61 26.5h-86v-197h86zM139 541v-190h70q36 0 62.5 23t26.5 71v8q0 48 -26 68t-63 20h-70z" glyph-name="B" horiz-adv-x="437" unicode="B"/><glyph d="M222 -5q-76 0 -125.5 46.5t-49.5 116.5v304q0 70 49.5 116.5t125.5 46.5q71 0 123 -47.5t52 -116.5v-11h-87v11q0 45 -26.5 66t-61.5 21q-36 0 -62 -23t-26 -70v-290q0 -47 26 -70t62 -23q35 0 61.5 21t26.5 66v11h87v-11q0 -69 -52 -116.5t-123 -47.5z" glyph-name="C" horiz-adv-x="419" unicode="C"/><glyph d="M52 0v618h175q74 0 124 -47t50 -117v-291q0 -70 -50 -116.5t-124 -46.5h-175zM314 169v280q0 46 -26 69t-62 23h-87v-464h87q36 0 62 23t26 69z" glyph-name="D" horiz-adv-x="443" unicode="D"/><glyph d="M52 0v618h274v-77h-187v-214h136v-77h-136v-173h187v-77h-274z" glyph-name="E" horiz-adv-x="368" unicode="E"/><glyph d="M52 0v618h274v-77h-187v-214h136v-77h-136v-250h-87z" glyph-name="F" horiz-adv-x="333" unicode="F"/><glyph d="M324 0v35q-35 -40 -102 -40q-76 0 -125.5 46.5t-49.5 116.5v304q0 70 49.5 116.5t125.5 46.5q71 0 123 -47.5t52 -116.5v-11h-87v11q0 45 -26.5 66t-61.5 21q-36 0 -62 -23t-26 -70v-290q0 -47 26 -70t62 -23t62 20t26 64v103h-59v73h146v-332h-73z" glyph-name="G" horiz-adv-x="449" unicode="G"/><glyph d="M306 0v250h-167v-250h-87v618h87v-291h167v291h87v-618h-87z" glyph-name="H" horiz-adv-x="445" unicode="H"/><glyph d="M52 0v618h87v-618h-87z" glyph-name="I" horiz-adv-x="191" unicode="I"/><glyph d="M17 137v26h87v-14q0 -33 20 -55t53 -22t54 22.5t21 58.5v465h87v-481q0 -63 -47 -103t-115 -40q-67 0 -113.5 40t-46.5 103z" glyph-name="J" horiz-adv-x="391" unicode="J"/><glyph d="M409 0h-92l-104 269l-74 -142v-127h-87v618h87v-305l165 305h97l-133 -246z" glyph-name="K" horiz-adv-x="431" unicode="K"/><glyph d="M52 0v618h87v-541h188v-77h-275z" glyph-name="L" horiz-adv-x="354" unicode="L"/><glyph d="M291 147h-32l-120 254v-401h-87v618h81l142 -301l142 301h81v-618h-87v401z" glyph-name="M" horiz-adv-x="550" unicode="M"/><glyph d="M129 618l181 -390v390h87v-618h-76l-182 381v-381h-87v618h77z" glyph-name="N" horiz-adv-x="449" unicode="N"/><glyph d="M223 72q37 0 63 23t26 70v290q0 47 -26 70t-63 23t-63 -23t-26 -70v-290q0 -47 26 -70t63 -23zM223 625q77 0 126.5 -46.5t49.5 -116.5v-304q0 -70 -49.5 -116.5t-126.5 -46.5t-126.5 46.5t-49.5 116.5v304q0 70 49.5 116.5t126.5 46.5z" glyph-name="O" horiz-adv-x="446" unicode="O"/><glyph d="M52 0v618h171q70 0 120.5 -45t50.5 -121v-126q0 -75 -50.5 -120t-120.5 -45h-84v-161h-87zM307 342v96q0 48 -26.5 75.5t-61.5 27.5h-80v-303h80q35 0 61.5 27.5t26.5 76.5z" glyph-name="P" horiz-adv-x="431" unicode="P"/><glyph d="M223 -5q-77 0 -126.5 46.5t-49.5 116.5v304q0 70 49.5 116.5t126.5 46.5t126.5 -46.5t49.5 -116.5v-304q0 -48 -24 -86h69v-77h-221zM223 72q37 0 63 23t26 70v290q0 47 -26 70t-63 23t-63 -23t-26 -70v-290q0 -47 26 -70t63 -23z" glyph-name="Q" horiz-adv-x="456" unicode="Q"/><glyph d="M302 0l-62 200q-6 -1 -17 -1h-84v-199h-87v618h171q70 0 120.5 -45t50.5 -121v-88q0 -96 -79 -141l72 -223h-85zM307 380v58q0 48 -26.5 75.5t-61.5 27.5h-80v-265h80q35 0 61.5 27.5t26.5 76.5z" glyph-name="R" horiz-adv-x="426" unicode="R"/><glyph d="M124 167v-14q2 -37 22 -59t73 -22q29 0 48 10t26 26.5t8.5 25t1.5 18.5q0 40 -27.5 68t-66.5 47.5t-78 41t-66.5 60.5t-27.5 95q0 161 167 161q46 0 80.5 -17t52 -43t25.5 -50t8 -44v-13h-87v11q-1 35 -23.5 56.5t-57.5 21.5q-44 0 -61 -19.5t-17 -56.5q0 -40 27.5 -68 t66.5 -47t78 -40.5t66.5 -62.5t27.5 -100q0 -79 -48.5 -118.5t-121.5 -39.5q-71 0 -124.5 38t-58.5 120v14h87z" glyph-name="S" horiz-adv-x="417" unicode="S"/><glyph d="M132 0v541h-110v77h307v-77h-110v-541h-87z" glyph-name="T" horiz-adv-x="351" unicode="T"/><glyph d="M228 -5q-77 0 -126.5 46.5t-49.5 116.5v460h87v-453q0 -47 26 -70t63 -23t63 23t26 70v453h87v-460q0 -70 -49.5 -116.5t-126.5 -46.5z" glyph-name="U" horiz-adv-x="456" unicode="U"/><glyph d="M290 0h-128l-140 618h89l115 -519l115 519h89z" glyph-name="V" horiz-adv-x="452" unicode="V"/><glyph d="M266 618h52l89 -426l72 426h88l-110 -618h-95l-70 350l-70 -350h-95l-110 618h88l72 -426z" glyph-name="W" horiz-adv-x="584" unicode="W"/><glyph d="M313 0l-97 210l-97 -210h-91l141 303l-147 315h90l104 -223l104 223h90l-147 -315l141 -303h-91z" glyph-name="X" horiz-adv-x="432" unicode="X"/><glyph d="M216 325l111 293h89q-51 -131 -156 -411v-207h-87v207q-105 280 -156 411h89z" glyph-name="Y" horiz-adv-x="433" unicode="Y"/><glyph d="M42 72l205 469h-205v77h295v-64l-208 -477h208v-77h-295v72z" glyph-name="Z" horiz-adv-x="379" unicode="Z"/><glyph d="M52 -118v856h169v-77h-82v-702h82v-77h-169z" glyph-name="bracketleft" horiz-adv-x="273" unicode="["/><glyph d="M52 738h80l170 -856h-81z" glyph-name="backslash" horiz-adv-x="354" unicode="\"/><glyph d="M221 738v-856h-169v77h82v702h-82v77h169z" glyph-name="bracketright" horiz-adv-x="273" unicode="]"/><glyph d="M108 618h110l56 -159h-75l-36 93l-36 -93h-75z" glyph-name="asciicircum" horiz-adv-x="326" unicode="^"/><glyph d="M52 -106v77h259v-77h-259z" glyph-name="underscore" horiz-adv-x="363" unicode="_"/><glyph d="M180 455h-76l-52 163h97z" glyph-name="grave" horiz-adv-x="232" unicode="`"/><glyph d="M290 150v160q0 37 -22 57.5t-58 20.5q-31 0 -53.5 -20.5t-22.5 -57.5v-160q0 -37 22.5 -57.5t53.5 -20.5q36 0 58 20.5t22 57.5zM377 460v-460h-76l-11 32q-51 -37 -105 -37q-63 0 -100.5 36.5t-37.5 107.5v182q0 71 37.5 107.5t100.5 36.5q54 0 105 -37l11 32h76z" glyph-name="a" unicode="a"/><glyph d="M52 0v616h87v-188q51 37 105 37q63 0 100.5 -36.5t37.5 -107.5v-182q0 -71 -37.5 -107.5t-100.5 -36.5q-54 0 -105 37l-11 -32h-76zM139 310v-160q0 -37 22 -57.5t58 -20.5q31 0 53.5 20.5t22.5 57.5v160q0 37 -22.5 57.5t-53.5 20.5q-36 0 -58 -20.5t-22 -57.5z" glyph-name="b" unicode="b"/><glyph d="M209 -5q-68 0 -115 41t-47 106v166q0 67 46 112t116 45q65 0 112 -40t53 -101v-14h-87v10q0 27 -24 47.5t-54 20.5q-33 0 -54 -22t-21 -55v-160q0 -34 21 -56.5t54 -22.5q30 0 54 20.5t24 47.5v10h87v-22q-6 -60 -52.5 -96.5t-112.5 -36.5z" glyph-name="c" horiz-adv-x="411" unicode="c"/><glyph d="M377 616v-616h-76l-11 32q-51 -37 -105 -37q-63 0 -100.5 36.5t-37.5 107.5v182q0 71 37.5 107.5t100.5 36.5q54 0 105 -37v188h87zM290 150v160q0 37 -22 57.5t-58 20.5q-31 0 -53.5 -20.5t-22.5 -57.5v-160q0 -37 22.5 -57.5t53.5 -20.5q36 0 58 20.5t22 57.5z" glyph-name="d" unicode="d"/><glyph d="M282 120h86q-7 -57 -54 -91t-104 -34q-68 0 -115.5 41t-47.5 106v166q0 67 46 112t117 45t116 -45t45 -112v-110h-237v-46q0 -34 21.5 -57t54.5 -23q24 0 44 13t28 35zM284 275v36q0 34 -20.5 55.5t-54.5 21.5q-33 0 -54 -22t-21 -55v-36h150z" glyph-name="e" horiz-adv-x="418" unicode="e"/><glyph d="M261 548h-12q-41 0 -56.5 -13t-15.5 -40v-35h91v-77h-91v-383h-87v383h-73v77h73v25q0 81 34.5 110.5t101.5 29.5h35v-77z" glyph-name="f" horiz-adv-x="285" unicode="f"/><glyph d="M290 172v138q0 37 -22 57.5t-58 20.5q-31 0 -53.5 -20.5t-22.5 -57.5v-138q0 -37 22.5 -57.5t53.5 -20.5q36 0 58 20.5t22 57.5zM74 -43h84q24 -48 69 -48q63 0 63 80v65q-51 -37 -105 -37q-63 0 -100.5 36.5t-37.5 107.5v160q0 71 37.5 107.5t100.5 36.5q54 0 105 -37 l11 32h76v-481q0 -66 -42 -106.5t-108 -40.5q-61 0 -105 30t-48 95z" glyph-name="g" unicode="g"/><glyph d="M52 618h87v-190q51 37 105 37q63 0 100.5 -36.5t37.5 -107.5v-321h-87v310q0 37 -22.5 57.5t-53.5 20.5q-36 0 -58 -20.5t-22 -57.5v-310h-87v618z" glyph-name="h" unicode="h"/><glyph d="M52 0v460h87v-460h-87zM52 499v112h87v-112h-87z" glyph-name="i" horiz-adv-x="191" unicode="i"/><glyph d="M-34 -163v77h20q23 0 37.5 6.5t20 21t7 26.5t1.5 35v457h87v-463q0 -90 -34 -125t-103 -35h-36zM52 611v-112h87v112h-87z" glyph-name="j" horiz-adv-x="191" unicode="j"/><glyph d="M406 0h-95l-87 228l-85 -134v-94h-87v618h87v-376l135 218h96l-87 -139z" glyph-name="k" horiz-adv-x="418" unicode="k"/><glyph d="M52 0v618h87v-618h-87z" glyph-name="l" horiz-adv-x="191" unicode="l"/><glyph d="M52 0v460h76l11 -32q51 37 105 37q68 0 99 -44q44 44 116 44q62 0 95 -38t33 -101v-326h-87v311q0 34 -19.5 55.5t-52.5 21.5q-44 0 -62 -36q2 -20 2 -31v-321h-87v310q0 78 -62 78q-36 0 -58 -20.5t-22 -57.5v-310h-87z" glyph-name="m" horiz-adv-x="634" unicode="m"/><glyph d="M52 460h76l11 -32q51 37 105 37q63 0 100.5 -36.5t37.5 -107.5v-321h-87v310q0 37 -22.5 57.5t-53.5 20.5q-36 0 -58 -20.5t-22 -57.5v-310h-87v460z" glyph-name="n" unicode="n"/><glyph d="M209 465q70 0 116 -45t46 -112v-166q0 -65 -47 -106t-115 -41t-115 41t-47 106v166q0 67 46 112t116 45zM209 72q33 0 54 22.5t21 56.5v160q0 33 -21 55t-54 22t-54 -22t-21 -55v-160q0 -34 21 -56.5t54 -22.5z" glyph-name="o" horiz-adv-x="418" unicode="o"/><glyph d="M52 -156v616h76l11 -32q51 37 105 37q63 0 100.5 -36.5t37.5 -107.5v-182q0 -71 -37.5 -107.5t-100.5 -36.5q-54 0 -105 37v-188h-87zM139 310v-160q0 -37 22 -57.5t58 -20.5q31 0 53.5 20.5t22.5 57.5v160q0 37 -22.5 57.5t-53.5 20.5q-36 0 -58 -20.5t-22 -57.5z" glyph-name="p" unicode="p"/><glyph d="M377 460v-616h-87v188q-51 -37 -105 -37q-63 0 -100.5 36.5t-37.5 107.5v182q0 71 37.5 107.5t100.5 36.5q54 0 105 -37l11 32h76zM290 150v160q0 37 -22 57.5t-58 20.5q-31 0 -53.5 -20.5t-22.5 -57.5v-160q0 -37 22.5 -57.5t53.5 -20.5q36 0 58 20.5t22 57.5z" glyph-name="q" unicode="q"/><glyph d="M277 382q-47 0 -92.5 -37.5t-45.5 -114.5v-230h-87v460h76l11 -74q22 31 50 48t45.5 20.5t44.5 5.5h11v-78h-13z" glyph-name="r" horiz-adv-x="299" unicode="r"/><glyph d="M254 325q-3 35 -24 52t-44 17q-7 0 -15.5 -2t-20 -7t-19 -18t-7.5 -31q0 -19 22 -37t53 -33.5t62 -34.5t53 -48t22 -65q0 -44 -36.5 -83.5t-115.5 -39.5q-71 0 -109 41t-45 99h81q1 -36 21.5 -52.5t48.5 -16.5q68 0 68 52q0 21 -22 38.5t-53 32t-62 31.5t-53 46.5 t-22 68.5q0 65 44 97.5t102 32.5q71 0 107.5 -41.5t40.5 -98.5h-77z" glyph-name="s" horiz-adv-x="362" unicode="s"/><glyph d="M90 460v132h87v-132h91v-77h-91v-217q0 -42 15 -65.5t60 -23.5h16v-77h-42q-68 0 -102 34t-34 125v224h-73v77h73z" glyph-name="t" horiz-adv-x="300" unicode="t"/><glyph d="M377 0h-76l-11 32q-51 -37 -105 -37q-63 0 -100.5 36.5t-37.5 107.5v321h87v-310q0 -37 22.5 -57.5t53.5 -20.5q36 0 58 20.5t22 57.5v310h87v-460z" glyph-name="u" unicode="u"/><glyph d="M260 0h-136l-107 460h89l86 -391l86 391h89z" glyph-name="v" horiz-adv-x="384" unicode="v"/><glyph d="M298 460l86 -347l57 347h89l-91 -460h-105l-58 234l-58 -234h-105l-91 460h89l57 -347l86 347h44z" glyph-name="w" horiz-adv-x="552" unicode="w"/><glyph d="M270 0l-80 147l-80 -147h-90l123 229l-126 231h90l83 -151l83 151h90l-126 -231l123 -229h-90z" glyph-name="x" horiz-adv-x="380" unicode="x"/><glyph d="M121 -156l38 143q-9 30 -33 113.5t-38 127.5l-71 232h89l97 -341l80 341h90l-163 -616h-89z" glyph-name="y" horiz-adv-x="390" unicode="y"/><glyph d="M27 73l176 310h-176v77h271v-66l-178 -317h178v-77h-271v73z" glyph-name="z" horiz-adv-x="325" unicode="z"/><glyph d="M64 272h-12v76h12q31 0 56.5 27t25.5 73v179q0 49 29 80t74 31h49v-77h-12q-53 0 -53 -56v-167q0 -78 -81 -128q81 -50 81 -128v-167q0 -56 53 -56h12v-77h-49q-45 0 -74 31t-29 80v179q0 46 -25.5 73t-56.5 27z" glyph-name="braceleft" horiz-adv-x="350" unicode="{"/><glyph d="M52 -118v856h87v-856h-87z" glyph-name="bar" horiz-adv-x="191" unicode="|"/><glyph d="M298 272h-12q-31 0 -56.5 -27t-25.5 -73v-179q0 -49 -29 -80t-74 -31h-49v77h12q53 0 53 56v167q0 78 81 128q-81 50 -81 128v167q0 56 -53 56h-12v77h49q45 0 74 -31t29 -80v-179q0 -46 25.5 -73t56.5 -27h12v-76z" glyph-name="braceright" horiz-adv-x="350" unicode="}"/><glyph d="M224 264q28 0 46 24l43 -52q-13 -19 -36.5 -34t-38.5 -15q-26 0 -60 16q-26 13 -37 13q-28 0 -46 -24l-43 52q13 19 36.5 34t38.5 15q7 0 39 -13q32 -16 58 -16z" glyph-name="asciitilde" horiz-adv-x="365" unicode="~"/><glyph glyph-name="uni00A0" horiz-adv-x="185" unicode=" "/><glyph d="M52 0v467h87v-467h-87zM52 506v112h87v-112h-87z" glyph-name="exclamdown" horiz-adv-x="191" unicode="¡"/><glyph d="M183 -97v97q-59 12 -95 55.5t-36 102.5v304q0 59 36 102t95 56v95h87v-95q57 -14 94.5 -58t37.5 -101v-11h-87v11q0 45 -26.5 66t-61.5 21q-36 0 -62 -23t-26 -70v-290q0 -47 26 -70t62 -23q35 0 61.5 21t26.5 66v11h87v-11q0 -58 -37.5 -101.5t-94.5 -57.5v-97h-87z" glyph-name="cent" horiz-adv-x="454" unicode="¢"/><glyph d="M360 462v14q0 72 -67 72q-72 0 -72 -98v-117h97v-77h-97v-179h215v-77h-384v77h82v179h-82v77h82v135q0 67 45 112t114 45q68 0 111 -39t43 -110v-14h-87z" glyph-name="sterling" horiz-adv-x="499" unicode="£"/><glyph d="M229 377q35 0 70 -15l53 51l54 -53l-55 -53q14 -34 14 -58v-68q0 -24 -14 -58l55 -53l-54 -53l-53 51q-35 -15 -70 -15t-70 15l-53 -51l-54 53l55 53q-14 34 -14 58v68q0 24 14 58l-55 53l54 53l53 -51q35 15 70 15zM229 125q25 0 40.5 16t15.5 40v68q0 24 -15.5 40 t-40.5 16t-40.5 -16t-15.5 -40v-68q0 -24 15.5 -40t40.5 -16z" glyph-name="currency" horiz-adv-x="458" unicode="¤"/><glyph d="M120 233v77h49q-54 145 -117 308h89l110 -293l111 293h89q-6 -15 -118 -308h49v-77h-78l-9 -26v-47h87v-77h-87v-83h-87v83h-88v77h88v47q-8 22 -10 26h-78z" glyph-name="yen" horiz-adv-x="503" unicode="¥"/><glyph d="M52 423v315h87v-315h-87zM52 -118v315h87v-315h-87z" glyph-name="brokenbar" horiz-adv-x="191" unicode="¦"/><glyph d="M206 -6q-71 0 -109 41t-45 99h81q1 -36 21.5 -52.5t48.5 -16.5q35 0 51.5 12t16.5 41q0 24 -22 42.5t-53 32t-62 29.5t-53 45t-22 68q0 54 32.5 86t80.5 40q-5 17 -5 33q0 66 44 98.5t102 32.5q71 0 107.5 -41.5t40.5 -98.5h-77q-3 35 -24 52t-44 17q-11 0 -22.5 -3 t-25 -17t-13.5 -38q0 -26 33 -50t72.5 -41t72.5 -50t33 -77q0 -38 -27.5 -74.5t-87.5 -46.5q8 -19 8 -39q0 -44 -36.5 -84t-116.5 -40zM312 225q68 0 68 53q0 28 -62.5 71.5t-108.5 43.5q-12 0 -23.5 -2.5t-25.5 -16.5t-14 -38q0 -32 64 -71t102 -40z" glyph-name="section" horiz-adv-x="518" unicode="§"/><glyph d="M52 534v91h91v-91h-91zM176 534v91h91v-91h-91z" glyph-name="dieresis" horiz-adv-x="319" unicode="¨"/><glyph d="M365 625q132 0 224 -92t92 -224q0 -130 -92 -222t-224 -92q-129 0 -221 92t-92 222q0 132 92 224t221 92zM365 58q102 0 178.5 75.5t76.5 175.5q0 103 -76 179t-179 76q-100 0 -175.5 -76.5t-75.5 -178.5q0 -100 75.5 -175.5t175.5 -75.5zM490 271v-20q0 -51 -36.5 -83.5 t-89.5 -32.5t-90 33t-37 83v108q0 52 36 86t91 34t90.5 -34t35.5 -86v-20h-78v30q0 21 -14 32t-34 11q-21 0 -35 -11t-14 -32v-124q0 -20 14.5 -31t34.5 -11q19 0 33.5 11.5t14.5 30.5v26h78z" glyph-name="copyright" horiz-adv-x="733" unicode="©"/><glyph d="M199 280v23q-24 -25 -73 -25q-35 0 -54.5 26t-19.5 64v163q0 38 19.5 64t54.5 26q49 0 73 -25v23h70v-339h-70zM199 383v133q0 15 -12.5 25t-25.5 10q-40 0 -40 -35v-133q0 -35 40 -35q13 0 25.5 10t12.5 25z" glyph-name="ordfeminine" horiz-adv-x="321" unicode="ª"/><glyph d="M240 394l-90 -197l90 -197h-98l-90 197l90 197h98zM463 394l-90 -197l90 -197h-98l-90 197l90 197h98z" glyph-name="guillemotleft" horiz-adv-x="515" unicode="«"/><glyph d="M327 242v-188h-87v111h-188v77h275z" glyph-name="logicalnot" horiz-adv-x="379" unicode="¬"/><glyph glyph-name="uni00AD" horiz-adv-x="185" unicode="­"/><glyph d="M365 625q132 0 224 -92t92 -224q0 -130 -92 -222t-224 -92q-129 0 -221 92t-92 222q0 132 92 224t221 92zM365 58q102 0 178.5 75.5t76.5 175.5q0 103 -76 179t-179 76q-100 0 -175.5 -76.5t-75.5 -178.5q0 -100 75.5 -175.5t175.5 -75.5zM260 147v334h96 q55 0 95.5 -35.5t40.5 -94.5v-15q0 -65 -48 -101l25 -88h-78l-15 70h-38v-70h-78zM338 414v-131h38q15 0 26.5 13t11.5 35v36q0 22 -11.5 34.5t-26.5 12.5h-38z" glyph-name="registered" horiz-adv-x="733" unicode="®"/><glyph d="M52 541v77h202v-77h-202z" glyph-name="macron" horiz-adv-x="306" unicode="¯"/><glyph d="M154 395q-48 0 -75 29t-27 85q0 57 27 86.5t75 29.5t75.5 -29.5t27.5 -86.5q0 -56 -27.5 -85t-75.5 -29zM154 457q13 0 22.5 13.5t9.5 38.5q0 53 -32 53q-13 0 -22 -13t-9 -40q0 -25 9.5 -38.5t21.5 -13.5z" glyph-name="degree" horiz-adv-x="309" unicode="°"/><glyph d="M137 317v105h87v-105h85v-77h-85v-119h-87v119h-85v77h85zM52 0v77h257v-77h-257z" glyph-name="plusminus" horiz-adv-x="361" unicode="±"/><glyph d="M52 514v10q0 49 27 75t68 26q39 0 66.5 -24t27.5 -62v-19q0 -26 -17.5 -51t-39 -41.5t-39 -37.5t-17.5 -40h113v-65h-187v56q0 34 18.5 62.5t40.5 44.5t40.5 36.5t18.5 40.5v7q-1 17 -26 17q-26 0 -26 -25v-10h-68z" glyph-name="uni00B2" horiz-adv-x="293" unicode="²"/><glyph d="M121 418v56h26q10 0 19.5 6.5t9.5 14.5v30q0 22 -29 22q-12 0 -19 -6.5t-7 -16.5v-11h-69v10q0 49 26.5 72t68.5 23q40 0 69 -24.5t29 -62.5v-30q0 -34 -25 -55q25 -21 25 -55v-30q0 -38 -29 -62.5t-69 -24.5q-42 0 -68.5 23t-26.5 72v10h69v-11q0 -10 7 -16.5t19 -6.5 q29 0 29 22v30q0 8 -9.5 14.5t-19.5 6.5h-26z" glyph-name="uni00B3" horiz-adv-x="297" unicode="³"/><glyph d="M244 557l-149 -67l-43 51l136 80z" glyph-name="acute" horiz-adv-x="296" unicode="´"/><glyph d="M52 -156v616h87v-314q0 -35 22.5 -54.5t53.5 -19.5q36 0 58 20.5t22 57.5v310h87v-460h-76l-11 32q-51 -37 -105 -37q-30 0 -51 7v-158h-87z" glyph-name="uni00B5" horiz-adv-x="434" unicode="µ"/><glyph d="M183 618h299v-618h-87v553h-95v-553h-87v270q-65 0 -113 34t-48 90v101q0 56 38.5 89.5t92.5 33.5z" glyph-name="paragraph" horiz-adv-x="534" unicode="¶"/><glyph d="M52 165v81h81v-81h-81z" glyph-name="periodcentered" horiz-adv-x="185" unicode="·"/><glyph d="M52 -158l49 155h68l-30 -155h-87z" glyph-name="cedilla" horiz-adv-x="221" unicode="¸"/><glyph d="M52 580l68 38h70v-338h-69v268l-69 -37v69z" glyph-name="uni00B9" horiz-adv-x="242" unicode="¹"/><glyph d="M154 395q-48 0 -75 29t-27 85q0 57 27 86.5t75 29.5t75.5 -29.5t27.5 -86.5q0 -56 -27.5 -85t-75.5 -29zM154 457q13 0 22.5 13.5t9.5 38.5q0 53 -32 53q-13 0 -22 -13t-9 -40q0 -25 9.5 -38.5t21.5 -13.5z" glyph-name="ordmasculine" horiz-adv-x="309" unicode="º"/><glyph d="M365 197l-90 197h98l90 -197l-90 -197h-98zM142 197l-90 197h98l90 -197l-90 -197h-98z" glyph-name="guillemotright" horiz-adv-x="515" unicode="»"/><glyph d="M52 580l68 38h70v-338h-69v268l-69 -37v69zM489 618l-287 -618h-85l287 618h85zM545 68v-68h-69v68h-133v66l99 204h103v-205h45v-65h-45zM476 133v117l-57 -117h57z" glyph-name="onequarter" horiz-adv-x="642" unicode="¼"/><glyph d="M489 618l-287 -618h-85l287 618h85zM374 229v10q0 49 27 75t68 26q39 0 66.5 -24t27.5 -62v-19q0 -26 -17.5 -51t-39 -41.5t-39 -37.5t-17.5 -40h113v-65h-187v56q0 34 18.5 62.5t40.5 44.5t40.5 36.5t18.5 40.5v7q-1 17 -26 17q-26 0 -26 -25v-10h-68zM120 618l-68 -38 v-69l69 37v-268h69v338h-70z" glyph-name="onehalf" horiz-adv-x="615" unicode="½"/><glyph d="M121 418v56h26q10 0 19.5 6.5t9.5 14.5v30q0 22 -29 22q-12 0 -19 -6.5t-7 -16.5v-11h-69v10q0 49 26.5 72t68.5 23q40 0 69 -24.5t29 -62.5v-30q0 -34 -25 -55q25 -21 25 -55v-30q0 -38 -29 -62.5t-69 -24.5q-42 0 -68.5 23t-26.5 72v10h69v-11q0 -10 7 -16.5t19 -6.5 q29 0 29 22v30q0 8 -9.5 14.5t-19.5 6.5h-26zM527 618l-287 -618h-85l287 618h85zM583 0v68h45v65h-45v205h-103l-99 -204v-66h133v-68h69zM514 250v-117h-57z" glyph-name="threequarters" horiz-adv-x="680" unicode="¾"/><glyph d="M272 471v-71q0 -21 -9.5 -41t-19.5 -31.5t-30 -32.5q-36 -36 -55 -67t-19 -73q0 -33 21 -55.5t54 -22.5q30 0 51 18.5t21 45.5v14h87v-14q0 -60 -46.5 -100.5t-112.5 -40.5q-70 0 -116 45t-46 112v14q0 72 65 139q35 35 51.5 60.5t16.5 60.5v40h87zM272 625v-102h-87v102 h87z" glyph-name="questiondown" horiz-adv-x="425" unicode="¿"/><glyph d="M162 618h128l140 -618h-89l-23 102h-185l-22 -102h-89zM226 519l-76 -340h151zM280 652l-149 67l56 64l136 -80z" glyph-name="Agrave" horiz-adv-x="452" unicode="À"/><glyph d="M162 618h128l140 -618h-89l-22 102h-185l-23 -102h-89zM302 179l-76 340l-75 -340h151zM321 719l-149 -67l-43 51l136 80z" glyph-name="Aacute" horiz-adv-x="452" unicode="Á"/><glyph d="M162 618h128l140 -618h-89l-22 102h-185l-23 -102h-89zM302 179l-76 340l-75 -340h151zM171 814h110l56 -159h-75l-36 93l-36 -93h-75z" glyph-name="Acircumflex" horiz-adv-x="452" unicode="Â"/><glyph d="M162 618h128l140 -618h-89l-23 102h-185l-22 -102h-89zM226 519l-76 -340h151zM268 732q28 0 46 24l43 -52q-13 -19 -36.5 -34t-38.5 -15q-26 0 -60 16q-26 13 -37 13q-28 0 -46 -24l-43 52q13 19 36.5 34t38.5 15q7 0 39 -13q32 -16 58 -16z" glyph-name="Atilde" horiz-adv-x="452" unicode="Ã"/><glyph d="M162 618h128l140 -618h-89l-23 102h-185l-22 -102h-89zM226 519l-76 -340h151zM119 655v91h91v-91h-91zM243 655v91h91v-91h-91z" glyph-name="Adieresis" horiz-adv-x="452" unicode="Ä"/><glyph d="M227 655q-48 0 -75 29t-27 85q0 57 27 86.5t75 29.5t75.5 -29.5t27.5 -86.5q0 -56 -27.5 -85t-75.5 -29zM227 717q13 0 22.5 13.5t9.5 38.5q0 53 -32 53q-13 0 -22 -13t-9 -40q0 -25 9.5 -38.5t21.5 -13.5zM162 618h128l140 -618h-89l-22 102h-185l-23 -102h-89zM302 179 l-76 340l-75 -340h151z" glyph-name="Aring" horiz-adv-x="452" unicode="Å"/><glyph d="M104 0h-87l241 618h323v-77h-177v-214h126v-77h-126v-173h177v-77h-265v135h-162zM316 212v334l-132 -334h132z" glyph-name="AE" horiz-adv-x="623" unicode="Æ"/><glyph d="M396 450h-87v11q0 45 -26 66t-61 21q-36 0 -62 -23t-26 -70v-290q0 -47 26 -70t62 -23q35 0 61 21t26 66v11h87v-11q0 -63 -43.5 -108.5t-106.5 -53.5l-24 -127h-88l41 130q-58 14 -93 57t-35 101v304q0 70 49 116.5t126 46.5q71 0 122.5 -47.5t51.5 -116.5v-11z" glyph-name="Ccedilla" horiz-adv-x="418" unicode="Ç"/><glyph d="M52 0v618h274v-77h-187v-214h136v-77h-136v-173h187v-77h-274zM249 652l-149 67l56 64l136 -80z" glyph-name="Egrave" horiz-adv-x="368" unicode="È"/><glyph d="M52 0v618h274v-77h-187v-214h136v-77h-136v-173h187v-77h-274zM295 719l-149 -67l-43 51l136 80z" glyph-name="Eacute" horiz-adv-x="368" unicode="É"/><glyph d="M52 0v618h274v-77h-187v-214h136v-77h-136v-173h187v-77h-274zM131 814h110l56 -159h-75l-36 93l-36 -93h-75z" glyph-name="Ecircumflex" horiz-adv-x="368" unicode="Ê"/><glyph d="M52 0v618h274v-77h-187v-214h136v-77h-136v-173h187v-77h-274zM83 655v91h91v-91h-91zM207 655v91h91v-91h-91z" glyph-name="Edieresis" horiz-adv-x="368" unicode="Ë"/><glyph d="M52 0v618h87v-618h-87zM148 652l-149 67l56 64l136 -80z" glyph-name="Igrave" horiz-adv-x="191" unicode="Ì"/><glyph d="M52 0v618h87v-618h-87zM191 719l-149 -67l-43 51l136 80z" glyph-name="Iacute" horiz-adv-x="191" unicode="Í"/><glyph d="M52 0v618h87v-618h-87zM40 814h110l56 -159h-75l-36 93l-36 -93h-75z" glyph-name="Icircumflex" horiz-adv-x="191" unicode="Î"/><glyph d="M52 0v618h87v-618h-87zM-12 655v91h91v-91h-91zM112 655v91h91v-91h-91z" glyph-name="Idieresis" horiz-adv-x="191" unicode="Ï"/><glyph d="M12 261v77h53v280h175q74 0 124 -47t50 -117v-291q0 -70 -50 -116.5t-124 -46.5h-175v261h-53zM327 169v280q0 46 -26 69t-62 23h-87v-203h72v-77h-72v-184h87q36 0 62 23t26 69z" glyph-name="Eth" horiz-adv-x="456" unicode="Ð"/><glyph d="M129 618l181 -390v390h87v-618h-76l-182 381v-381h-87v618h77zM260 732q-26 0 -58 16q-33 13 -39 13q-15 0 -38.5 -15t-36.5 -34l43 -52q18 24 46 24q11 0 37 -13q34 -16 60 -16q15 0 38.5 15t36.5 34l-43 52q-18 -24 -46 -24z" glyph-name="Ntilde" horiz-adv-x="449" unicode="Ñ"/><glyph d="M223 72q37 0 63 23t26 70v290q0 47 -26 70t-63 23t-63 -23t-26 -70v-290q0 -47 26 -70t63 -23zM223 625q77 0 126.5 -46.5t49.5 -116.5v-304q0 -70 -49.5 -116.5t-126.5 -46.5t-126.5 46.5t-49.5 116.5v304q0 70 49.5 116.5t126.5 46.5zM278 652l-149 67l56 64l136 -80z " glyph-name="Ograve" horiz-adv-x="446" unicode="Ò"/><glyph d="M223 72q37 0 63 23t26 70v290q0 47 -26 70t-63 23t-63 -23t-26 -70v-290q0 -47 26 -70t63 -23zM223 625q77 0 126.5 -46.5t49.5 -116.5v-304q0 -70 -49.5 -116.5t-126.5 -46.5t-126.5 46.5t-49.5 116.5v304q0 70 49.5 116.5t126.5 46.5zM323 719l-149 -67l-43 51l136 80z " glyph-name="Oacute" horiz-adv-x="446" unicode="Ó"/><glyph d="M223 72q37 0 63 23t26 70v290q0 47 -26 70t-63 23t-63 -23t-26 -70v-290q0 -47 26 -70t63 -23zM223 625q77 0 126.5 -46.5t49.5 -116.5v-304q0 -70 -49.5 -116.5t-126.5 -46.5t-126.5 46.5t-49.5 116.5v304q0 70 49.5 116.5t126.5 46.5zM168 814h110l56 -159h-75l-36 93 l-36 -93h-75z" glyph-name="Ocircumflex" horiz-adv-x="446" unicode="Ô"/><glyph d="M223 72q37 0 63 23t26 70v290q0 47 -26 70t-63 23t-63 -23t-26 -70v-290q0 -47 26 -70t63 -23zM223 625q77 0 126.5 -46.5t49.5 -116.5v-304q0 -70 -49.5 -116.5t-126.5 -46.5t-126.5 46.5t-49.5 116.5v304q0 70 49.5 116.5t126.5 46.5zM265 732q28 0 46 24l43 -52 q-13 -19 -36.5 -34t-38.5 -15q-26 0 -60 16q-26 13 -37 13q-28 0 -46 -24l-43 52q13 19 36.5 34t38.5 15q6 0 39 -13q32 -16 58 -16z" glyph-name="Otilde" horiz-adv-x="446" unicode="Õ"/><glyph d="M223 72q37 0 63 23t26 70v290q0 47 -26 70t-63 23t-63 -23t-26 -70v-290q0 -47 26 -70t63 -23zM223 625q77 0 126.5 -46.5t49.5 -116.5v-304q0 -70 -49.5 -116.5t-126.5 -46.5t-126.5 46.5t-49.5 116.5v304q0 70 49.5 116.5t126.5 46.5zM116 655v91h91v-91h-91zM240 655 v91h91v-91h-91z" glyph-name="Odieresis" horiz-adv-x="446" unicode="Ö"/><glyph d="M183 134l-41 -76h-90l84 155l-84 155h90l41 -76l41 76h90l-84 -155l84 -155h-90z" glyph-name="multiply" horiz-adv-x="366" unicode="×"/><glyph d="M267 621q60 -13 96 -56t36 -103v-304q0 -59 -36 -102t-96 -56v-97h-87v97q-59 12 -96 55.5t-37 102.5v304q0 60 36.5 103.5t96.5 55.5v94h87v-94zM312 165v290q0 47 -26 70t-63 23t-63 -23t-26 -70v-290q0 -47 26 -70t63 -23t63 23t26 70z" glyph-name="Oslash" horiz-adv-x="446" unicode="Ø"/><glyph d="M228 -5q-77 0 -126.5 46.5t-49.5 116.5v460h87v-453q0 -47 26 -70t63 -23t63 23t26 70v453h87v-460q0 -70 -49.5 -116.5t-126.5 -46.5zM283 652l-149 67l56 64l136 -80z" glyph-name="Ugrave" horiz-adv-x="456" unicode="Ù"/><glyph d="M228 -5q-77 0 -126.5 46.5t-49.5 116.5v460h87v-453q0 -47 26 -70t63 -23t63 23t26 70v453h87v-460q0 -70 -49.5 -116.5t-126.5 -46.5zM324 719l-149 -67l-43 51l136 80z" glyph-name="Uacute" horiz-adv-x="456" unicode="Ú"/><glyph d="M228 -5q-77 0 -126.5 46.5t-49.5 116.5v460h87v-453q0 -47 26 -70t63 -23t63 23t26 70v453h87v-460q0 -70 -49.5 -116.5t-126.5 -46.5zM173 814h110l56 -159h-75l-36 93l-36 -93h-75z" glyph-name="Ucircumflex" horiz-adv-x="456" unicode="Û"/><glyph d="M228 -5q-77 0 -126.5 46.5t-49.5 116.5v460h87v-453q0 -47 26 -70t63 -23t63 23t26 70v453h87v-460q0 -70 -49.5 -116.5t-126.5 -46.5zM120 655v91h91v-91h-91zM244 655v91h91v-91h-91z" glyph-name="Udieresis" horiz-adv-x="456" unicode="Ü"/><glyph d="M216 325l111 293h89q-51 -131 -156 -411v-207h-87v207q-105 280 -156 411h89zM313 719l-149 -67l-43 51l136 80z" glyph-name="Yacute" horiz-adv-x="433" unicode="Ý"/><glyph d="M52 0v618h87v-80h84q70 0 120.5 -45t50.5 -121v-127q0 -75 -50.5 -120t-120.5 -45h-84v-80h-87zM307 261v97q0 48 -26.5 75.5t-61.5 27.5h-80v-304h80q35 0 61.5 27.5t26.5 76.5z" glyph-name="Thorn" horiz-adv-x="431" unicode="Þ"/><glyph d="M222 67h38q33 0 61.5 31t28.5 79q0 49 -27.5 76t-62.5 27h-31v67h15q36 0 63.5 25.5t27.5 74.5v11q0 83 -91 83h-20q-35 0 -62.5 -27.5t-27.5 -76.5v-437h-87v455q0 72 50 121t127 49h20q73 0 125.5 -44t52.5 -121v-17q0 -24 -4 -40.5t-21.5 -39.5t-50.5 -44 q40 -16 65.5 -56.5t25.5 -81.5v-8q0 -76 -53.5 -124.5t-123.5 -48.5h-38v67z" glyph-name="germandbls" horiz-adv-x="479" unicode="ß"/><glyph d="M271 499l-149 67l56 64l136 -80zM290 150v160q0 37 -22 57.5t-58 20.5q-31 0 -53.5 -20.5t-22.5 -57.5v-160q0 -37 22.5 -57.5t53.5 -20.5q36 0 58 20.5t22 57.5zM377 460v-460h-76l-11 32q-51 -37 -105 -37q-63 0 -100.5 36.5t-37.5 107.5v182q0 71 37.5 107.5 t100.5 36.5q54 0 105 -37l11 32h76z" glyph-name="agrave" unicode="à"/><glyph d="M314 566l-149 -67l-43 51l136 80zM290 150v160q0 37 -22 57.5t-58 20.5q-31 0 -53.5 -20.5t-22.5 -57.5v-160q0 -37 22.5 -57.5t53.5 -20.5q36 0 58 20.5t22 57.5zM377 460v-460h-76l-11 32q-51 -37 -105 -37q-63 0 -100.5 36.5t-37.5 107.5v182q0 71 37.5 107.5 t100.5 36.5q54 0 105 -37l11 32h76z" glyph-name="aacute" unicode="á"/><glyph d="M160 662h110l56 -159h-75l-36 93l-36 -93h-75zM290 150v160q0 37 -22 57.5t-58 20.5q-31 0 -53.5 -20.5t-22.5 -57.5v-160q0 -37 22.5 -57.5t53.5 -20.5q36 0 58 20.5t22 57.5zM377 460v-460h-76l-11 32q-51 -37 -105 -37q-63 0 -100.5 36.5t-37.5 107.5v182 q0 71 37.5 107.5t100.5 36.5q54 0 105 -37l11 32h76z" glyph-name="acircumflex" unicode="â"/><glyph d="M251 580q28 0 46 24l43 -52q-13 -19 -36.5 -34t-38.5 -15q-26 0 -60 16q-26 13 -37 13q-28 0 -46 -24l-43 52q13 19 36.5 34t38.5 15q7 0 39 -13q32 -16 58 -16zM290 150v160q0 37 -22 57.5t-58 20.5q-31 0 -53.5 -20.5t-22.5 -57.5v-160q0 -37 22.5 -57.5t53.5 -20.5 q36 0 58 20.5t22 57.5zM377 460v-460h-76l-11 32q-51 -37 -105 -37q-63 0 -100.5 36.5t-37.5 107.5v182q0 71 37.5 107.5t100.5 36.5q54 0 105 -37l11 32h76z" glyph-name="atilde" unicode="ã"/><glyph d="M116 503v91h91v-91h-91zM230 503v91h91v-91h-91zM290 150v160q0 37 -22 57.5t-58 20.5q-31 0 -53.5 -20.5t-22.5 -57.5v-160q0 -37 22.5 -57.5t53.5 -20.5q36 0 58 20.5t22 57.5zM377 460v-460h-76l-11 32q-51 -37 -105 -37q-63 0 -100.5 36.5t-37.5 107.5v182 q0 71 37.5 107.5t100.5 36.5q54 0 105 -37l11 32h76z" glyph-name="adieresis" unicode="ä"/><glyph d="M219 503q-48 0 -75 29t-27 85q0 57 27 86.5t75 29.5t75.5 -29.5t27.5 -86.5q0 -56 -27.5 -85t-75.5 -29zM219 565q13 0 22.5 13.5t9.5 38.5q0 53 -32 53q-13 0 -22 -13t-9 -40q0 -25 9.5 -38.5t21.5 -13.5zM290 150v160q0 37 -22 57.5t-58 20.5q-31 0 -53.5 -20.5 t-22.5 -57.5v-160q0 -37 22.5 -57.5t53.5 -20.5q36 0 58 20.5t22 57.5zM377 460v-460h-76l-11 32q-51 -37 -105 -37q-63 0 -100.5 36.5t-37.5 107.5v182q0 71 37.5 107.5t100.5 36.5q54 0 105 -37l11 32h76z" glyph-name="aring" unicode="å"/><glyph d="M274 139v6q0 33 -21.5 53t-55.5 20q-32 0 -55 -20.5t-23 -52.5v-6q0 -26 23.5 -46.5t54.5 -20.5q33 0 55 20t22 47zM511 275v36q0 34 -20.5 55.5t-54.5 21.5q-33 0 -54 -22t-21 -55v-36h150zM47 325q7 70 48 105t108 35q72 0 116 -46q46 46 118 46q71 0 116 -45t45 -112 v-110h-237v-46q0 -34 21.5 -57t54.5 -23q24 0 44 13t28 35h86q-7 -57 -54 -91t-104 -34q-85 0 -132 58q-57 -58 -136 -58q-52 0 -94.5 38.5t-42.5 99.5v27q0 54 36.5 94t111.5 40q43 0 94 -35v52q0 34 -19.5 55.5t-51.5 21.5q-33 0 -49 -13t-20 -50h-87z" glyph-name="ae" horiz-adv-x="645" unicode="æ"/><glyph d="M374 310h-87v10q0 27 -24 47.5t-54 20.5q-33 0 -54 -22t-21 -55v-160q0 -34 21 -56.5t54 -22.5q30 0 54 20.5t24 47.5v10h87v-22q-5 -52 -41.5 -87t-90.5 -43l-24 -128h-87l40 129q-55 11 -89.5 49.5t-34.5 93.5v166q0 67 46 112t116 45q65 0 112 -40t53 -101v-14z" glyph-name="ccedilla" horiz-adv-x="411" unicode="ç"/><glyph d="M282 120h86q-7 -57 -54 -91t-104 -34q-68 0 -115.5 41t-47.5 106v166q0 67 46 112t117 45t116 -45t45 -112v-110h-237v-46q0 -34 21.5 -57t54.5 -23q24 0 44 13t28 35zM284 275v36q0 34 -20.5 55.5t-54.5 21.5q-33 0 -54 -22t-21 -55v-36h150zM271 499l-149 67l56 64 l136 -80z" glyph-name="egrave" horiz-adv-x="418" unicode="è"/><glyph d="M282 120h86q-7 -57 -54 -91t-104 -34q-68 0 -115.5 41t-47.5 106v166q0 67 46 112t117 45t116 -45t45 -112v-110h-237v-46q0 -34 21.5 -57t54.5 -23q24 0 44 13t28 35zM284 275v36q0 34 -20.5 55.5t-54.5 21.5q-33 0 -54 -22t-21 -55v-36h150zM310 566l-149 -67l-43 51 l136 80z" glyph-name="eacute" horiz-adv-x="418" unicode="é"/><glyph d="M282 120h86q-7 -57 -54 -91t-104 -34q-68 0 -115.5 41t-47.5 106v166q0 67 46 112t117 45t116 -45t45 -112v-110h-237v-46q0 -34 21.5 -57t54.5 -23q24 0 44 13t28 35zM284 275v36q0 34 -20.5 55.5t-54.5 21.5q-33 0 -54 -22t-21 -55v-36h150zM152 662h110l56 -159h-75 l-36 93l-36 -93h-75z" glyph-name="ecircumflex" horiz-adv-x="418" unicode="ê"/><glyph d="M282 120h86q-7 -57 -54 -91t-104 -34q-68 0 -115.5 41t-47.5 106v166q0 67 46 112t117 45t116 -45t45 -112v-110h-237v-46q0 -34 21.5 -57t54.5 -23q24 0 44 13t28 35zM284 275v36q0 34 -20.5 55.5t-54.5 21.5q-33 0 -54 -22t-21 -55v-36h150zM116 503v91h91v-91h-91z M230 503v91h91v-91h-91z" glyph-name="edieresis" horiz-adv-x="418" unicode="ë"/><glyph d="M52 0v460h87v-460h-87zM148 500l-149 67l56 64l136 -80z" glyph-name="igrave" horiz-adv-x="191" unicode="ì"/><glyph d="M139 460v-460h-87v460h87zM192 567l-149 -67l-43 51l136 80z" glyph-name="iacute" horiz-adv-x="191" unicode="í"/><glyph d="M52 0v460h87v-460h-87zM40 662h110l56 -159h-75l-36 93l-36 -93h-75z" glyph-name="icircumflex" horiz-adv-x="191" unicode="î"/><glyph d="M52 0v460h87v-460h-87zM-12 503v91h91v-91h-91zM112 503v91h91v-91h-91z" glyph-name="idieresis" horiz-adv-x="191" unicode="ï"/><glyph d="M276 149v81q0 33 -20.5 54.5t-54.5 21.5q-32 0 -52 -21.5t-20 -54.5v-81q0 -34 19.5 -55.5t52.5 -21.5q34 0 54.5 21.5t20.5 55.5zM363 350v-212q0 -62 -47 -102.5t-115 -40.5q-66 0 -112.5 40.5t-46.5 102.5v94q0 151 140 151q53 0 95 -32l-50 128h-109v72h81l-25 67h87 l25 -67h77v-72h-49z" glyph-name="eth" horiz-adv-x="410" unicode="ð"/><glyph d="M52 460h76l11 -32q51 37 105 37q63 0 100.5 -36.5t37.5 -107.5v-321h-87v310q0 37 -22.5 57.5t-53.5 20.5q-36 0 -58 -20.5t-22 -57.5v-310h-87v460zM265 580q28 0 46 24l43 -52q-13 -19 -36.5 -34t-38.5 -15q-26 0 -60 16q-26 13 -37 13q-28 0 -46 -24l-43 52 q13 19 36.5 34t38.5 15q6 0 39 -13q32 -16 58 -16z" glyph-name="ntilde" unicode="ñ"/><glyph d="M209 465q70 0 116 -45t46 -112v-166q0 -65 -47 -106t-115 -41t-115 41t-47 106v166q0 67 46 112t116 45zM209 72q33 0 54 22.5t21 56.5v160q0 33 -21 55t-54 22t-54 -22t-21 -55v-160q0 -34 21 -56.5t54 -22.5zM263 500l-149 67l56 64l136 -80z" glyph-name="ograve" horiz-adv-x="418" unicode="ò"/><glyph d="M209 465q70 0 116 -45t46 -112v-166q0 -65 -47 -106t-115 -41t-115 41t-47 106v166q0 67 46 112t116 45zM209 72q33 0 54 22.5t21 56.5v160q0 33 -21 55t-54 22t-54 -22t-21 -55v-160q0 -34 21 -56.5t54 -22.5zM304 567l-149 -67l-43 51l136 80z" glyph-name="oacute" horiz-adv-x="418" unicode="ó"/><glyph d="M209 465q70 0 116 -45t46 -112v-166q0 -65 -47 -106t-115 -41t-115 41t-47 106v166q0 67 46 112t116 45zM209 72q33 0 54 22.5t21 56.5v160q0 33 -21 55t-54 22t-54 -22t-21 -55v-160q0 -34 21 -56.5t54 -22.5zM154 662h110l56 -159h-75l-36 93l-36 -93h-75z" glyph-name="ocircumflex" horiz-adv-x="418" unicode="ô"/><glyph d="M209 465q70 0 116 -45t46 -112v-166q0 -65 -47 -106t-115 -41t-115 41t-47 106v166q0 67 46 112t116 45zM209 72q33 0 54 22.5t21 56.5v160q0 33 -21 55t-54 22t-54 -22t-21 -55v-160q0 -34 21 -56.5t54 -22.5zM251 580q28 0 46 24l43 -52q-13 -19 -36.5 -34t-38.5 -15 q-26 0 -60 16q-26 13 -37 13q-28 0 -46 -24l-43 52q13 19 36.5 34t38.5 15q7 0 39 -13q32 -16 58 -16z" glyph-name="otilde" horiz-adv-x="418" unicode="õ"/><glyph d="M209 465q70 0 116 -45t46 -112v-166q0 -65 -47 -106t-115 -41t-115 41t-47 106v166q0 67 46 112t116 45zM209 72q33 0 54 22.5t21 56.5v160q0 33 -21 55t-54 22t-54 -22t-21 -55v-160q0 -34 21 -56.5t54 -22.5zM102 503v91h91v-91h-91zM226 503v91h91v-91h-91z" glyph-name="odieresis" horiz-adv-x="418" unicode="ö"/><glyph d="M52 119v77h261v-77h-261zM141 231v85h85v-85h-85zM141 -1v85h85v-85h-85z" glyph-name="divide" horiz-adv-x="365" unicode="÷"/><glyph d="M166 -99v99q-53 12 -86 50t-33 92v166q0 55 33 96.5t86 55.5v95h87v-96q53 -13 85.5 -54.5t32.5 -96.5v-166q0 -53 -33 -91.5t-85 -50.5v-99h-87zM209 72q33 0 54 22.5t21 56.5v160q0 33 -21 55t-54 22t-54 -22t-21 -55v-160q0 -34 21 -56.5t54 -22.5z" glyph-name="oslash" horiz-adv-x="418" unicode="ø"/><glyph d="M377 0h-76l-11 32q-51 -37 -105 -37q-63 0 -100.5 36.5t-37.5 107.5v321h87v-310q0 -37 22.5 -57.5t53.5 -20.5q36 0 58 20.5t22 57.5v310h87v-460zM262 500l-149 67l56 64l136 -80z" glyph-name="ugrave" unicode="ù"/><glyph d="M377 0h-76l-11 32q-51 -37 -105 -37q-63 0 -100.5 36.5t-37.5 107.5v321h87v-310q0 -37 22.5 -57.5t53.5 -20.5q36 0 58 20.5t22 57.5v310h87v-460zM307 567l-149 -67l-43 51l136 80z" glyph-name="uacute" unicode="ú"/><glyph d="M377 0h-76l-11 32q-51 -37 -105 -37q-63 0 -100.5 36.5t-37.5 107.5v321h87v-310q0 -37 22.5 -57.5t53.5 -20.5q36 0 58 20.5t22 57.5v310h87v-460zM157 662h110l56 -159h-75l-36 93l-36 -93h-75z" glyph-name="ucircumflex" unicode="û"/><glyph d="M377 0h-76l-11 32q-51 -37 -105 -37q-63 0 -100.5 36.5t-37.5 107.5v321h87v-310q0 -37 22.5 -57.5t53.5 -20.5q36 0 58 20.5t22 57.5v310h87v-460zM105 503v91h91v-91h-91zM229 503v91h91v-91h-91z" glyph-name="udieresis" unicode="ü"/><glyph d="M121 -156l38 143q-9 30 -33 113.5t-38 127.5l-71 232h89l97 -341l80 341h90l-163 -616h-89zM301 567l-149 -67l-43 51l136 80z" glyph-name="yacute" horiz-adv-x="390" unicode="ý"/><glyph d="M52 -156v774h87v-190q51 37 105 37q63 0 100.5 -36.5t37.5 -107.5v-182q0 -71 -37.5 -107.5t-100.5 -36.5q-54 0 -105 37v-188h-87zM139 310v-160q0 -37 22 -57.5t58 -20.5q31 0 53.5 20.5t22.5 57.5v160q0 37 -22.5 57.5t-53.5 20.5q-36 0 -58 -20.5t-22 -57.5z" glyph-name="thorn" unicode="þ"/><glyph d="M121 -156l38 143q-9 30 -33 113.5t-38 127.5l-71 232h89l97 -341l80 341h90l-163 -616h-89zM96 503v91h91v-91h-91zM220 503v91h91v-91h-91z" glyph-name="ydieresis" horiz-adv-x="390" unicode="ÿ"/><glyph d="M162 618h128l140 -618h-89l-23 102h-185l-22 -102h-89zM226 519l-76 -340h151zM125 655v77h202v-77h-202z" glyph-name="Amacron" horiz-adv-x="452" unicode="Ā"/><glyph d="M290 0v32q-51 -37 -105 -37q-63 0 -100.5 36.5t-37.5 107.5v182q0 71 37.5 107.5t100.5 36.5q54 0 105 -37v32h87v-460h-87zM290 150v160q0 37 -22 57.5t-58 20.5q-31 0 -53.5 -20.5t-22.5 -57.5v-160q0 -37 22.5 -57.5t53.5 -20.5q36 0 58 20.5t22 57.5zM109 503v77h202 v-77h-202z" glyph-name="amacron" unicode="ā"/><glyph d="M162 618h128l140 -618h-89l-23 102h-185l-22 -102h-89zM226 519l-76 -340h151zM226 655q-132 0 -138 111v12h74l1 -12q3 -21 20 -32.5t43 -11.5t43 11.5t20 32.5l1 12h74v-12q-6 -111 -138 -111z" glyph-name="Abreve" horiz-adv-x="452" unicode="Ă"/><glyph d="M290 0v32q-51 -37 -105 -37q-63 0 -100.5 36.5t-37.5 107.5v182q0 71 37.5 107.5t100.5 36.5q54 0 105 -37v32h87v-460h-87zM290 150v160q0 37 -22 57.5t-58 20.5q-31 0 -53.5 -20.5t-22.5 -57.5v-160q0 -37 22.5 -57.5t53.5 -20.5q36 0 58 20.5t22 57.5zM216 503 q-132 0 -138 111v12h74l1 -12q3 -21 20 -32.5t43 -11.5t43 11.5t20 32.5l1 12h74v-12q-6 -111 -138 -111z" glyph-name="abreve" unicode="ă"/><glyph d="M430 0h-32q-22 0 -37.5 -14t-15.5 -45q0 -18 13 -28t28 -10q6 0 34 4v-59q-22 -2 -42 -2q-52 0 -76 23.5t-24 70.5q0 24 14.5 51.5t40.5 42.5l-15 68h-185l-22 -102h-89l140 618h128zM226 519l-76 -340h151z" glyph-name="Aogonek" horiz-adv-x="452" unicode="Ą"/><glyph d="M377 460v-472q-36 -1 -55 -14.5t-19 -45.5q0 -18 13 -28t28 -10q6 0 34 4v-59q-22 -2 -42 -2q-52 0 -76 23.5t-24 70.5q0 57 54 80v25q-51 -37 -105 -37q-63 0 -100.5 36.5t-37.5 107.5v182q0 71 37.5 107.5t100.5 36.5q54 0 105 -37v32h87zM290 150v160q0 37 -22 57.5 t-58 20.5q-31 0 -53.5 -20.5t-22.5 -57.5v-160q0 -37 22.5 -57.5t53.5 -20.5q36 0 58 20.5t22 57.5z" glyph-name="aogonek" horiz-adv-x="430" unicode="ą"/><glyph d="M222 -5q-76 0 -125.5 46.5t-49.5 116.5v304q0 70 49.5 116.5t125.5 46.5q71 0 123 -47.5t52 -116.5v-11h-87v11q0 45 -26.5 66t-61.5 21q-36 0 -62 -23t-26 -70v-290q0 -47 26 -70t62 -23q35 0 61.5 21t26.5 66v11h87v-11q0 -69 -52 -116.5t-123 -47.5zM318 719l-149 -67 l-43 51l136 80z" glyph-name="Cacute" horiz-adv-x="419" unicode="Ć"/><glyph d="M209 -5q-68 0 -115 41t-47 106v166q0 67 46 112t116 45q65 0 112 -40t53 -101v-14h-87v10q0 27 -24 47.5t-54 20.5q-33 0 -54 -22t-21 -55v-160q0 -34 21 -56.5t54 -22.5q30 0 54 20.5t24 47.5v10h87v-22q-6 -60 -52.5 -96.5t-112.5 -36.5zM293 566l-149 -67l-43 51 l136 80z" glyph-name="cacute" horiz-adv-x="411" unicode="ć"/><glyph d="M222 -5q-76 0 -125.5 46.5t-49.5 116.5v304q0 70 49.5 116.5t125.5 46.5q71 0 123 -47.5t52 -116.5v-11h-87v11q0 45 -26.5 66t-61.5 21q-36 0 -62 -23t-26 -70v-290q0 -47 26 -70t62 -23q35 0 61.5 21t26.5 66v11h87v-11q0 -69 -52 -116.5t-123 -47.5zM163 814h110 l56 -159h-75l-36 93l-36 -93h-75z" glyph-name="Ccircumflex" horiz-adv-x="419" unicode="Ĉ"/><glyph d="M209 -5q-68 0 -115 41t-47 106v166q0 67 46 112t116 45q65 0 112 -40t53 -101v-14h-87v10q0 27 -24 47.5t-54 20.5q-33 0 -54 -22t-21 -55v-160q0 -34 21 -56.5t54 -22.5q30 0 54 20.5t24 47.5v10h87v-22q-6 -60 -52.5 -96.5t-112.5 -36.5zM154 662h110l56 -159h-75 l-36 93l-36 -93h-75z" glyph-name="ccircumflex" horiz-adv-x="411" unicode="ĉ"/><glyph d="M222 -5q-76 0 -125.5 46.5t-49.5 116.5v304q0 70 49.5 116.5t125.5 46.5q71 0 123 -47.5t52 -116.5v-11h-87v11q0 45 -26.5 66t-61.5 21q-36 0 -62 -23t-26 -70v-290q0 -47 26 -70t62 -23q35 0 61.5 21t26.5 66v11h87v-11q0 -69 -52 -116.5t-123 -47.5zM177 655v91h91 v-91h-91z" glyph-name="Cdotaccent" horiz-adv-x="419" unicode="Ċ"/><glyph d="M209 -5q-68 0 -115 41t-47 106v166q0 67 46 112t116 45q65 0 112 -40t53 -101v-14h-87v10q0 27 -24 47.5t-54 20.5q-33 0 -54 -22t-21 -55v-160q0 -34 21 -56.5t54 -22.5q30 0 54 20.5t24 47.5v10h87v-22q-6 -60 -52.5 -96.5t-112.5 -36.5zM162 503v91h91v-91h-91z" glyph-name="cdotaccent" horiz-adv-x="411" unicode="ċ"/><glyph d="M222 -5q-76 0 -125.5 46.5t-49.5 116.5v304q0 70 49.5 116.5t125.5 46.5q71 0 123 -47.5t52 -116.5v-11h-87v11q0 45 -26.5 66t-61.5 21q-36 0 -62 -23t-26 -70v-290q0 -47 26 -70t62 -23q35 0 61.5 21t26.5 66v11h87v-11q0 -69 -52 -116.5t-123 -47.5zM278 655h-110 l-56 159h75l36 -93l36 93h75z" glyph-name="Ccaron" horiz-adv-x="419" unicode="Č"/><glyph d="M209 -5q-68 0 -115 41t-47 106v166q0 67 46 112t116 45q65 0 112 -40t53 -101v-14h-87v10q0 27 -24 47.5t-54 20.5q-33 0 -54 -22t-21 -55v-160q0 -34 21 -56.5t54 -22.5q30 0 54 20.5t24 47.5v10h87v-22q-6 -60 -52.5 -96.5t-112.5 -36.5zM264 503h-110l-56 159h75 l36 -93l36 93h75z" glyph-name="ccaron" horiz-adv-x="411" unicode="č"/><glyph d="M52 0v618h175q74 0 124 -47t50 -117v-291q0 -70 -50 -116.5t-124 -46.5h-175zM314 169v280q0 46 -26 69t-62 23h-87v-464h87q36 0 62 23t26 69zM254 655h-110l-56 159h75l36 -93l36 93h75z" glyph-name="Dcaron" horiz-adv-x="443" unicode="Ď"/><glyph d="M290 0v32q-51 -37 -105 -37q-63 0 -100.5 36.5t-37.5 107.5v182q0 71 37.5 107.5t100.5 36.5q54 0 105 -37v190h87v-618h-87zM290 150v160q0 37 -22 57.5t-58 20.5q-31 0 -53.5 -20.5t-22.5 -57.5v-160q0 -37 22.5 -57.5t53.5 -20.5q36 0 58 20.5t22 57.5zM520 477 l42 141h-81l-24 -141h63z" glyph-name="dcaron" horiz-adv-x="570" unicode="ď"/><glyph d="M12 261v77h53v280h175q74 0 124 -47t50 -117v-291q0 -70 -50 -116.5t-124 -46.5h-175v261h-53zM327 169v280q0 46 -26 69t-62 23h-87v-203h72v-77h-72v-184h87q36 0 62 23t26 69z" glyph-name="Dcroat" horiz-adv-x="456" unicode="Đ"/><glyph d="M235 523v62h55v33h87v-33h49v-62h-49v-523h-87v32q-51 -37 -105 -37q-63 0 -100.5 36.5t-37.5 107.5v182q0 71 37.5 107.5t100.5 36.5q54 0 105 -37v95h-55zM290 150v160q0 37 -22 57.5t-58 20.5q-31 0 -53.5 -20.5t-22.5 -57.5v-160q0 -37 22.5 -57.5t53.5 -20.5 q36 0 58 20.5t22 57.5z" glyph-name="dcroat" horiz-adv-x="448" unicode="đ"/><glyph d="M52 0v618h274v-77h-187v-214h136v-77h-136v-173h187v-77h-274zM90 655v77h202v-77h-202z" glyph-name="Emacron" horiz-adv-x="368" unicode="Ē"/><glyph d="M282 120h86q-7 -57 -54 -91t-104 -34q-68 0 -115.5 41t-47.5 106v166q0 67 46 112t117 45t116 -45t45 -112v-110h-237v-46q0 -34 21.5 -57t54.5 -23q24 0 44 13t28 35zM284 275v36q0 34 -20.5 55.5t-54.5 21.5q-33 0 -54 -22t-21 -55v-36h150zM105 503v77h202v-77h-202z " glyph-name="emacron" horiz-adv-x="418" unicode="ē"/><glyph d="M52 0v618h274v-77h-187v-214h136v-77h-136v-173h187v-77h-274zM146 655v91h91v-91h-91z" glyph-name="Edotaccent" horiz-adv-x="368" unicode="Ė"/><glyph d="M282 120h86q-7 -57 -54 -91t-104 -34q-68 0 -115.5 41t-47.5 106v166q0 67 46 112t117 45t116 -45t45 -112v-110h-237v-46q0 -34 21.5 -57t54.5 -23q24 0 44 13t28 35zM284 275v36q0 34 -20.5 55.5t-54.5 21.5q-33 0 -54 -22t-21 -55v-36h150zM163 503v91h91v-91h-91z " glyph-name="edotaccent" horiz-adv-x="418" unicode="ė"/><glyph d="M52 0v618h274v-77h-187v-214h136v-77h-136v-173h187v-77h-28q-47 -4 -47 -59q0 -18 13 -28t28 -10q6 0 34 4v-59q-22 -2 -42 -2q-52 0 -76 23.5t-24 70.5q0 31 19 60h-151z" glyph-name="Eogonek" horiz-adv-x="368" unicode="Ę"/><glyph d="M272 6q-57 -24 -57 -65q0 -19 11.5 -29.5t25.5 -10.5q4 0 10.5 1t14 2.5t9.5 1.5v-60q-22 -2 -42 -2q-52 0 -74 24t-22 72q0 31 21 59q-53 12 -87.5 50.5t-34.5 92.5v166q0 67 46 112t117 45t116 -45t45 -112v-110h-237v-46q0 -34 21.5 -57t54.5 -23q24 0 44 13t28 35h86 q-5 -40 -31.5 -70t-64.5 -44zM284 275v36q0 34 -20.5 55.5t-54.5 21.5q-33 0 -54 -22t-21 -55v-36h150z" glyph-name="eogonek" horiz-adv-x="418" unicode="ę"/><glyph d="M52 0v618h274v-77h-187v-214h136v-77h-136v-173h187v-77h-274zM254 655h-110l-56 159h75l36 -93l36 93h75z" glyph-name="Ecaron" horiz-adv-x="368" unicode="Ě"/><glyph d="M282 120h86q-7 -57 -54 -91t-104 -34q-68 0 -115.5 41t-47.5 106v166q0 67 46 112t117 45t116 -45t45 -112v-110h-237v-46q0 -34 21.5 -57t54.5 -23q24 0 44 13t28 35zM284 275v36q0 34 -20.5 55.5t-54.5 21.5q-33 0 -54 -22t-21 -55v-36h150zM264 503h-110l-56 159h75 l36 -93l36 93h75z" glyph-name="ecaron" horiz-adv-x="418" unicode="ě"/><glyph d="M324 0v35q-35 -40 -102 -40q-76 0 -125.5 46.5t-49.5 116.5v304q0 70 49.5 116.5t125.5 46.5q71 0 123 -47.5t52 -116.5v-11h-87v11q0 45 -26.5 66t-61.5 21q-36 0 -62 -23t-26 -70v-290q0 -47 26 -70t62 -23t62 20t26 64v103h-59v73h146v-332h-73zM164 814h110l56 -159 h-75l-36 93l-36 -93h-75z" glyph-name="Gcircumflex" horiz-adv-x="449" unicode="Ĝ"/><glyph d="M290 172v138q0 37 -22 57.5t-58 20.5q-31 0 -53.5 -20.5t-22.5 -57.5v-138q0 -37 22.5 -57.5t53.5 -20.5q36 0 58 20.5t22 57.5zM74 -43h84q24 -48 69 -48q63 0 63 80v65q-51 -37 -105 -37q-63 0 -100.5 36.5t-37.5 107.5v160q0 71 37.5 107.5t100.5 36.5q54 0 105 -37 l11 32h76v-481q0 -66 -42 -106.5t-108 -40.5q-61 0 -105 30t-48 95zM156 662h110l56 -159h-75l-36 93l-36 -93h-75z" glyph-name="gcircumflex" unicode="ĝ"/><glyph d="M324 0v35q-35 -40 -102 -40q-76 0 -125.5 46.5t-49.5 116.5v304q0 70 49.5 116.5t125.5 46.5q71 0 123 -47.5t52 -116.5v-11h-87v11q0 45 -26.5 66t-61.5 21q-36 0 -62 -23t-26 -70v-290q0 -47 26 -70t62 -23t62 20t26 64v103h-59v73h146v-332h-73zM223 655 q-132 0 -138 111v12h74l1 -12q3 -21 20 -32.5t43 -11.5t43 11.5t20 32.5l1 12h74v-12q-6 -111 -138 -111z" glyph-name="Gbreve" horiz-adv-x="449" unicode="Ğ"/><glyph d="M290 172v138q0 37 -22 57.5t-58 20.5q-31 0 -53.5 -20.5t-22.5 -57.5v-138q0 -37 22.5 -57.5t53.5 -20.5q36 0 58 20.5t22 57.5zM74 -43h84q24 -48 69 -48q63 0 63 80v65q-51 -37 -105 -37q-63 0 -100.5 36.5t-37.5 107.5v160q0 71 37.5 107.5t100.5 36.5q54 0 105 -37 l11 32h76v-481q0 -66 -42 -106.5t-108 -40.5q-61 0 -105 30t-48 95zM225 503q-132 0 -138 111v12h74l1 -12q3 -21 20 -32.5t43 -11.5t43 11.5t20 32.5l1 12h74v-12q-6 -111 -138 -111z" glyph-name="gbreve" unicode="ğ"/><glyph d="M324 0v35q-35 -40 -102 -40q-76 0 -125.5 46.5t-49.5 116.5v304q0 70 49.5 116.5t125.5 46.5q71 0 123 -47.5t52 -116.5v-11h-87v11q0 45 -26.5 66t-61.5 21q-36 0 -62 -23t-26 -70v-290q0 -47 26 -70t62 -23t62 20t26 64v103h-59v73h146v-332h-73zM180 655v91h91v-91 h-91z" glyph-name="Gdotaccent" horiz-adv-x="449" unicode="Ġ"/><glyph d="M290 172v138q0 37 -22 57.5t-58 20.5q-31 0 -53.5 -20.5t-22.5 -57.5v-138q0 -37 22.5 -57.5t53.5 -20.5q36 0 58 20.5t22 57.5zM74 -43h84q24 -48 69 -48q63 0 63 80v65q-51 -37 -105 -37q-63 0 -100.5 36.5t-37.5 107.5v160q0 71 37.5 107.5t100.5 36.5q54 0 105 -37 l11 32h76v-481q0 -66 -42 -106.5t-108 -40.5q-61 0 -105 30t-48 95zM159 503v91h91v-91h-91z" glyph-name="gdotaccent" unicode="ġ"/><glyph d="M324 0v35q-35 -40 -102 -40q-76 0 -125.5 46.5t-49.5 116.5v304q0 70 49.5 116.5t125.5 46.5q71 0 123 -47.5t52 -116.5v-11h-87v11q0 45 -26.5 66t-61.5 21q-36 0 -62 -23t-26 -70v-290q0 -47 26 -70t62 -23t62 20t26 64v103h-59v73h146v-332h-73zM256 -43h-70l-48 -152 h91z" glyph-name="Gcommaaccent" horiz-adv-x="449" unicode="Ģ"/><glyph d="M290 172v138q0 37 -22 57.5t-58 20.5q-31 0 -53.5 -20.5t-22.5 -57.5v-138q0 -37 22.5 -57.5t53.5 -20.5q36 0 58 20.5t22 57.5zM74 -43h84q24 -48 69 -48q63 0 63 80v65q-51 -37 -105 -37q-63 0 -100.5 36.5t-37.5 107.5v160q0 71 37.5 107.5t100.5 36.5q54 0 105 -37 l11 32h76v-481q0 -66 -42 -106.5t-108 -40.5q-61 0 -105 30t-48 95zM314 566l-149 -67l-43 51l136 80z" glyph-name="gcommaaccent" unicode="ģ"/><glyph d="M306 0v250h-167v-250h-87v618h87v-291h167v291h87v-618h-87zM168 814h110l56 -159h-75l-36 93l-36 -93h-75z" glyph-name="Hcircumflex" horiz-adv-x="445" unicode="Ĥ"/><glyph d="M52 618h87v-190q51 37 105 37q63 0 100.5 -36.5t37.5 -107.5v-321h-87v310q0 37 -22.5 57.5t-53.5 20.5q-36 0 -58 -20.5t-22 -57.5v-310h-87v618zM113 814h110l56 -159h-75l-36 93l-36 -93h-75z" glyph-name="hcircumflex" unicode="ĥ"/><glyph d="M22 453v76h52v89h87v-89h167v89h87v-89h52v-76h-52v-453h-87v250h-167v-250h-87v453h-52zM161 327h167v126h-167v-126z" glyph-name="Hbar" horiz-adv-x="489" unicode="Ħ"/><glyph d="M22 523v62h49v33h87v-33h55v-62h-55v-95q51 37 105 37q63 0 100.5 -36.5t37.5 -107.5v-321h-87v310q0 37 -22.5 57.5t-53.5 20.5q-36 0 -58 -20.5t-22 -57.5v-310h-87v523h-49z" glyph-name="hbar" horiz-adv-x="448" unicode="ħ"/><glyph d="M52 0v618h87v-618h-87zM137 733q28 0 46 24l43 -52q-13 -19 -36.5 -34t-38.5 -15q-26 0 -60 16q-26 13 -37 13q-28 0 -46 -24l-43 52q13 19 36.5 34t38.5 15q6 0 39 -13q32 -16 58 -16z" glyph-name="Itilde" horiz-adv-x="191" unicode="Ĩ"/><glyph d="M52 0v460h87v-460h-87zM136 580q28 0 46 24l43 -52q-13 -19 -36.5 -34t-38.5 -15q-26 0 -60 16q-26 13 -37 13q-28 0 -46 -24l-43 52q13 19 36.5 34t38.5 15q7 0 39 -13q32 -16 58 -16z" glyph-name="itilde" horiz-adv-x="191" unicode="ĩ"/><glyph d="M-6 655v77h202v-77h-202zM52 0v618h87v-618h-87z" glyph-name="Imacron" horiz-adv-x="191" unicode="Ī"/><glyph d="M52 0v460h87v-460h-87zM-6 503v77h202v-77h-202z" glyph-name="imacron" horiz-adv-x="191" unicode="ī"/><glyph d="M52 37v581h87v-618h-28q-22 0 -37.5 -14t-15.5 -45q0 -18 13 -28t28 -10q6 0 34 4v-59q-22 -2 -42 -2q-52 0 -76 23.5t-24 70.5q0 25 16.5 54t44.5 43z" glyph-name="Iogonek" horiz-adv-x="191" unicode="Į"/><glyph d="M133 -93v-59q-22 -2 -42 -2q-52 0 -76 23.5t-24 70.5q0 25 16.5 54t44.5 43v423h87v-460h-28q-22 0 -37.5 -14t-15.5 -45q0 -18 13 -28t28 -10q6 0 34 4zM52 611v-112h87v112h-87z" glyph-name="iogonek" horiz-adv-x="191" unicode="į"/><glyph d="M52 0v618h87v-618h-87zM52 655v112h87v-112h-87z" glyph-name="Idotaccent" horiz-adv-x="191" unicode="İ"/><glyph d="M52 0v460h87v-460h-87z" glyph-name="dotlessi" horiz-adv-x="191" unicode="ı"/><glyph d="M17 137v26h87v-14q0 -33 20 -55t53 -22t54 22.5t21 58.5v465h87v-481q0 -63 -47 -103t-115 -40q-67 0 -113.5 40t-46.5 103zM171 814h110l56 -159h-75l-36 93l-36 -93h-75z" glyph-name="Jcircumflex" horiz-adv-x="391" unicode="Ĵ"/><glyph d="M-34 -163v77h20q23 0 37.5 6.5t20 21t7 26.5t1.5 35v457h87v-463q0 -90 -34 -125t-103 -35h-36zM150 662h-110l-56 -159h75l36 93l36 -93h75z" glyph-name="jcircumflex" horiz-adv-x="191" unicode="ĵ"/><glyph d="M409 0h-92l-104 269l-74 -142v-127h-87v618h87v-305l165 305h97l-133 -246zM256 -43h-70l-48 -152h91z" glyph-name="Kcommaaccent" horiz-adv-x="431" unicode="Ķ"/><glyph d="M406 0h-95l-87 228l-85 -134v-94h-87v618h87v-376l135 218h96l-87 -139zM256 -43h-70l-48 -152h91z" glyph-name="kcommaaccent" horiz-adv-x="418" unicode="ķ"/><glyph d="M406 0h-95l-87 228l-85 -134v-94h-87v461h87v-219l135 218h96l-87 -139z" glyph-name="kgreenlandic" horiz-adv-x="418" unicode="ĸ"/><glyph d="M52 0v618h87v-541h188v-77h-275zM247 719l-149 -67l-43 51l136 80z" glyph-name="Lacute" horiz-adv-x="354" unicode="Ĺ"/><glyph d="M52 0v618h87v-618h-87zM191 719l-149 -67l-43 51l136 80z" glyph-name="lacute" horiz-adv-x="191" unicode="ĺ"/><glyph d="M219 -43h-70l-48 -152h91zM52 0v618h87v-541h188v-77h-275z" glyph-name="Lcommaaccent" horiz-adv-x="354" unicode="Ļ"/><glyph d="M52 0v618h87v-618h-87zM130 -43h-70l-48 -152h91z" glyph-name="lcommaaccent" horiz-adv-x="191" unicode="ļ"/><glyph d="M52 0v618h87v-541h188v-77h-275zM285 477l42 141h-81l-24 -141h63z" glyph-name="Lcaron" horiz-adv-x="354" unicode="Ľ"/><glyph d="M52 0v618h87v-618h-87zM281 477l42 141h-81l-24 -141h63z" glyph-name="lcaron" horiz-adv-x="331" unicode="ľ"/><glyph d="M22 280v77l91 16v245h87v-229l91 17v-78l-91 -17v-234h188v-77h-275v296z" glyph-name="Lslash" horiz-adv-x="415" unicode="Ł"/><glyph d="M22 280v77l91 16v245h87v-229l91 17v-78l-91 -17v-311h-87v296z" glyph-name="lslash" horiz-adv-x="313" unicode="ł"/><glyph d="M129 618l181 -390v390h87v-618h-76l-182 381v-381h-87v618h77zM318 719l-149 -67l-43 51l136 80z" glyph-name="Nacute" horiz-adv-x="449" unicode="Ń"/><glyph d="M52 460h76l11 -32q51 37 105 37q63 0 100.5 -36.5t37.5 -107.5v-321h-87v310q0 37 -22.5 57.5t-53.5 20.5q-36 0 -58 -20.5t-22 -57.5v-310h-87v460zM308 566l-149 -67l-43 51l136 80z" glyph-name="nacute" unicode="ń"/><glyph d="M129 618l181 -390v390h87v-618h-76l-182 381v-381h-87v618h77zM207 -43h70l-27 -152h-91z" glyph-name="Ncommaaccent" horiz-adv-x="449" unicode="Ņ"/><glyph d="M52 460h76l11 -32q51 37 105 37q63 0 100.5 -36.5t37.5 -107.5v-321h-87v310q0 37 -22.5 57.5t-53.5 20.5q-36 0 -58 -20.5t-22 -57.5v-310h-87v460zM256 -43h-70l-48 -152h91z" glyph-name="ncommaaccent" unicode="ņ"/><glyph d="M129 618l181 -390v390h87v-618h-76l-182 381v-381h-87v618h77zM168 655h110l56 159h-75l-36 -93l-36 93h-75z" glyph-name="Ncaron" horiz-adv-x="449" unicode="Ň"/><glyph d="M52 460h76l11 -32q51 37 105 37q63 0 100.5 -36.5t37.5 -107.5v-321h-87v310q0 37 -22.5 57.5t-53.5 20.5q-36 0 -58 -20.5t-22 -57.5v-310h-87v460zM285 503h-110l-56 159h75l36 -93l36 93h75z" glyph-name="ncaron" unicode="ň"/><glyph d="M224 -163v77h20q23 0 37.5 6.5t20 21t7 26.5t1.5 35v20l-171 358v-381h-87v618h77l181 -390v390h87v-621q0 -90 -34 -125t-103 -35h-36z" glyph-name="Eng" horiz-adv-x="449" unicode="Ŋ"/><glyph d="M295 3v307q0 37 -22.5 57.5t-53.5 20.5q-36 0 -58 -20.5t-22 -57.5v-310h-87v460h76l11 -32q51 37 105 37q63 0 100.5 -36.5t37.5 -107.5v-324q0 -90 -34 -125t-103 -35h-36v77h20q23 0 37.5 6.5t20 21t7 26.5t1.5 35z" glyph-name="eng" unicode="ŋ"/><glyph d="M223 72q37 0 63 23t26 70v290q0 47 -26 70t-63 23t-63 -23t-26 -70v-290q0 -47 26 -70t63 -23zM223 625q77 0 126.5 -46.5t49.5 -116.5v-304q0 -70 -49.5 -116.5t-126.5 -46.5t-126.5 46.5t-49.5 116.5v304q0 70 49.5 116.5t126.5 46.5zM122 655v77h202v-77h-202z" glyph-name="Omacron" horiz-adv-x="446" unicode="Ō"/><glyph d="M209 465q70 0 116 -45t46 -112v-166q0 -65 -47 -106t-115 -41t-115 41t-47 106v166q0 67 46 112t116 45zM209 72q33 0 54 22.5t21 56.5v160q0 33 -21 55t-54 22t-54 -22t-21 -55v-160q0 -34 21 -56.5t54 -22.5zM108 503v77h202v-77h-202z" glyph-name="omacron" horiz-adv-x="418" unicode="ō"/><glyph d="M223 72q37 0 63 23t26 70v290q0 47 -26 70t-63 23t-63 -23t-26 -70v-290q0 -47 26 -70t63 -23zM223 625q77 0 126.5 -46.5t49.5 -116.5v-304q0 -70 -49.5 -116.5t-126.5 -46.5t-126.5 46.5t-49.5 116.5v304q0 70 49.5 116.5t126.5 46.5zM234 788l-41 -133h-73l23 133h91z M352 788l-41 -133h-73l23 133h91z" glyph-name="Ohungarumlaut" horiz-adv-x="446" unicode="Ő"/><glyph d="M209 465q70 0 116 -45t46 -112v-166q0 -65 -47 -106t-115 -41t-115 41t-47 106v166q0 67 46 112t116 45zM209 72q33 0 54 22.5t21 56.5v160q0 33 -21 55t-54 22t-54 -22t-21 -55v-160q0 -34 21 -56.5t54 -22.5zM219 636l-41 -133h-73l23 133h91zM337 636l-41 -133h-73 l23 133h91z" glyph-name="ohungarumlaut" horiz-adv-x="418" unicode="ő"/><glyph d="M395 250v-173h187v-77h-360q-76 0 -125.5 46.5t-49.5 116.5v292q0 70 49.5 116.5t125.5 46.5h360v-77h-187v-214h136v-77h-136zM308 77v464h-86q-36 0 -62 -23t-26 -70v-278q0 -47 26 -70t62 -23h86z" glyph-name="OE" horiz-adv-x="624" unicode="Œ"/><glyph d="M519 120h86q-7 -57 -54 -91t-104 -34q-72 0 -119 44q-47 -44 -119 -44q-68 0 -115 41t-47 106v166q0 67 46 112t116 45q72 0 118 -48q46 48 120 48q71 0 116 -45t45 -112v-110h-237v-46q0 -34 21.5 -57t54.5 -23q24 0 44 13t28 35zM209 72q31 0 52 20.5t23 51.5v167 q0 33 -21 55t-54 22t-54 -22t-21 -55v-160q0 -34 21 -56.5t54 -22.5zM521 275v36q0 34 -20.5 55.5t-54.5 21.5q-33 0 -53.5 -21.5t-21.5 -55.5v-36h150z" glyph-name="oe" horiz-adv-x="655" unicode="œ"/><glyph d="M302 0l-62 200q-6 -1 -17 -1h-84v-199h-87v618h171q70 0 120.5 -45t50.5 -121v-88q0 -96 -79 -141l72 -223h-85zM307 380v58q0 48 -26.5 75.5t-61.5 27.5h-80v-265h80q35 0 61.5 27.5t26.5 76.5zM318 719l-149 -67l-43 51l136 80z" glyph-name="Racute" horiz-adv-x="426" unicode="Ŕ"/><glyph d="M277 382q-47 0 -92.5 -37.5t-45.5 -114.5v-230h-87v460h76l11 -74q22 31 50 48t45.5 20.5t44.5 5.5h11v-78h-13zM264 566l-149 -67l-43 51l136 80z" glyph-name="racute" horiz-adv-x="299" unicode="ŕ"/><glyph d="M253 -43h-70l-48 -152h91zM302 0l-62 200q-6 -1 -17 -1h-84v-199h-87v618h171q70 0 120.5 -45t50.5 -121v-88q0 -96 -79 -141l72 -223h-85zM307 380v58q0 48 -26.5 75.5t-61.5 27.5h-80v-265h80q35 0 61.5 27.5t26.5 76.5z" glyph-name="Rcommaaccent" horiz-adv-x="426" unicode="Ŗ"/><glyph d="M277 382q-47 0 -92.5 -37.5t-45.5 -114.5v-230h-87v460h76l11 -74q22 31 50 48t45.5 20.5t44.5 5.5h11v-78h-13zM171 -43h-70l-48 -152h91z" glyph-name="rcommaaccent" horiz-adv-x="299" unicode="ŗ"/><glyph d="M302 0l-62 200q-6 -1 -17 -1h-84v-199h-87v618h171q70 0 120.5 -45t50.5 -121v-88q0 -96 -79 -141l72 -223h-85zM307 380v58q0 48 -26.5 75.5t-61.5 27.5h-80v-265h80q35 0 61.5 27.5t26.5 76.5zM251 655h-110l-56 159h75l36 -93l36 93h75z" glyph-name="Rcaron" horiz-adv-x="426" unicode="Ř"/><glyph d="M277 382q-47 0 -92.5 -37.5t-45.5 -114.5v-230h-87v460h76l11 -74q22 31 50 48t45.5 20.5t44.5 5.5h11v-78h-13zM220 503h-110l-56 159h75l36 -93l36 93h75z" glyph-name="rcaron" horiz-adv-x="299" unicode="ř"/><glyph d="M124 167v-14q2 -37 22 -59t73 -22q29 0 48 10t26 26.5t8.5 25t1.5 18.5q0 40 -27.5 68t-66.5 47.5t-78 41t-66.5 60.5t-27.5 95q0 161 167 161q46 0 80.5 -17t52 -43t25.5 -50t8 -44v-13h-87v11q-1 35 -23.5 56.5t-57.5 21.5q-44 0 -61 -19.5t-17 -56.5q0 -40 27.5 -68 t66.5 -47t78 -40.5t66.5 -62.5t27.5 -100q0 -79 -48.5 -118.5t-121.5 -39.5q-71 0 -124.5 38t-58.5 120v14h87zM318 719l-149 -67l-43 51l136 80z" glyph-name="Sacute" horiz-adv-x="417" unicode="Ś"/><glyph d="M254 325q-3 35 -24 52t-44 17q-7 0 -15.5 -2t-20 -7t-19 -18t-7.5 -31q0 -19 22 -37t53 -33.5t62 -34.5t53 -48t22 -65q0 -44 -36.5 -83.5t-115.5 -39.5q-71 0 -109 41t-45 99h81q1 -36 21.5 -52.5t48.5 -16.5q68 0 68 52q0 21 -22 38.5t-53 32t-62 31.5t-53 46.5 t-22 68.5q0 65 44 97.5t102 32.5q71 0 107.5 -41.5t40.5 -98.5h-77zM282 566l-149 -67l-43 51l136 80z" glyph-name="sacute" horiz-adv-x="362" unicode="ś"/><glyph d="M124 167v-14q2 -37 22 -59t73 -22q29 0 48 10t26 26.5t8.5 25t1.5 18.5q0 40 -27.5 68t-66.5 47.5t-78 41t-66.5 60.5t-27.5 95q0 161 167 161q46 0 80.5 -17t52 -43t25.5 -50t8 -44v-13h-87v11q-1 35 -23.5 56.5t-57.5 21.5q-44 0 -61 -19.5t-17 -56.5q0 -40 27.5 -68 t66.5 -47t78 -40.5t66.5 -62.5t27.5 -100q0 -79 -48.5 -118.5t-121.5 -39.5q-71 0 -124.5 38t-58.5 120v14h87zM253 814h-110l-56 -159h75l36 93l36 -93h75z" glyph-name="Scircumflex" horiz-adv-x="417" unicode="Ŝ"/><glyph d="M254 325q-3 35 -24 52t-44 17q-7 0 -15.5 -2t-20 -7t-19 -18t-7.5 -31q0 -19 22 -37t53 -33.5t62 -34.5t53 -48t22 -65q0 -44 -36.5 -83.5t-115.5 -39.5q-71 0 -109 41t-45 99h81q1 -36 21.5 -52.5t48.5 -16.5q68 0 68 52q0 21 -22 38.5t-53 32t-62 31.5t-53 46.5 t-22 68.5q0 65 44 97.5t102 32.5q71 0 107.5 -41.5t40.5 -98.5h-77zM126 662h110l56 -159h-75l-36 93l-36 -93h-75z" glyph-name="scircumflex" horiz-adv-x="362" unicode="ŝ"/><glyph d="M124 167v-14q2 -37 22 -59t73 -22q29 0 48 10t26 26.5t8.5 25t1.5 18.5q0 40 -27.5 68t-66.5 47.5t-78 41t-66.5 60.5t-27.5 95q0 161 167 161q46 0 80.5 -17t52 -43t25.5 -50t8 -44v-13h-87v11q-1 35 -23.5 56.5t-57.5 21.5q-44 0 -61 -19.5t-17 -56.5q0 -40 27.5 -68 t66.5 -47t78 -40.5t66.5 -62.5t27.5 -100q0 -64 -32 -102t-85 -50l-32 -139h-81l40 134q-65 4 -112 42.5t-51 114.5v14h87z" glyph-name="Scedilla" horiz-adv-x="417" unicode="Ş"/><glyph d="M336 118q0 -35 -24.5 -70.5t-78.5 -47.5l-32 -138h-81l40 134q-59 8 -91 47t-39 92h81q1 -36 21.5 -52.5t48.5 -16.5q68 0 68 52q0 21 -22 38.5t-53 32t-62 31.5t-53 46.5t-22 68.5q0 65 44 97.5t102 32.5q71 0 107.5 -41.5t40.5 -98.5h-77q-3 35 -24 52t-44 17 q-7 0 -15.5 -2t-20 -7t-19 -18t-7.5 -31q0 -19 22 -37t53 -33.5t62 -34.5t53 -48t22 -65z" glyph-name="scedilla" horiz-adv-x="362" unicode="ş"/><glyph d="M124 167v-14q2 -37 22 -59t73 -22q29 0 48 10t26 26.5t8.5 25t1.5 18.5q0 40 -27.5 68t-66.5 47.5t-78 41t-66.5 60.5t-27.5 95q0 161 167 161q46 0 80.5 -17t52 -43t25.5 -50t8 -44v-13h-87v11q-1 35 -23.5 56.5t-57.5 21.5q-44 0 -61 -19.5t-17 -56.5q0 -40 27.5 -68 t66.5 -47t78 -40.5t66.5 -62.5t27.5 -100q0 -79 -48.5 -118.5t-121.5 -39.5q-71 0 -124.5 38t-58.5 120v14h87zM144 655h110l56 159h-75l-36 -93l-36 93h-75z" glyph-name="Scaron" horiz-adv-x="417" unicode="Š"/><glyph d="M232 503h-110l-56 159h75l36 -93l36 93h75zM254 325q-3 35 -24 52t-44 17q-7 0 -15.5 -2t-20 -7t-19 -18t-7.5 -31q0 -19 22 -37t53 -33.5t62 -34.5t53 -48t22 -65q0 -44 -36.5 -83.5t-115.5 -39.5q-71 0 -109 41t-45 99h81q1 -36 21.5 -52.5t48.5 -16.5q68 0 68 52 q0 21 -22 38.5t-53 32t-62 31.5t-53 46.5t-22 68.5q0 65 44 97.5t102 32.5q71 0 107.5 -41.5t40.5 -98.5h-77z" glyph-name="scaron" horiz-adv-x="362" unicode="š"/><glyph d="M219 541v-541h-28q-22 0 -37.5 -14t-15.5 -45q0 -18 13 -28t28 -10q6 0 34 4v-59q-22 -2 -42 -2q-52 0 -76 23.5t-24 70.5q0 25 16 54t44 43v504h-109v77h307v-77h-110z" glyph-name="Tcommaaccent" horiz-adv-x="351" unicode="Ţ"/><glyph d="M90 460v132h87v-132h91v-77h-91v-217q0 -42 15 -65.5t60 -23.5h16v-77h-50l-24 -130h-87l44 143q-61 30 -61 146v224h-73v77h73z" glyph-name="tcommaaccent" horiz-adv-x="300" unicode="ţ"/><glyph d="M132 0v541h-110v77h307v-77h-110v-541h-87zM120 655h110l56 159h-75l-36 -93l-36 93h-75z" glyph-name="Tcaron" horiz-adv-x="351" unicode="Ť"/><glyph d="M90 460v132h87v-132h91v-77h-91v-217q0 -42 15 -65.5t60 -23.5h16v-77h-42q-68 0 -102 34t-34 125v224h-73v77h73zM348 594l-29 -94h-63l11 94h81z" glyph-name="tcaron" horiz-adv-x="360" unicode="ť"/><glyph d="M329 541h-110v-151h76v-77h-76v-313h-87v313h-76v77h76v151h-110v77h307v-77z" glyph-name="Tbar" horiz-adv-x="351" unicode="Ŧ"/><glyph d="M90 270h-73v77h73v91h-73v77h73v77h87v-77h91v-77h-91v-91h91v-77h-91v-104q0 -42 15 -65.5t60 -23.5h16v-77h-42q-68 0 -102 34t-34 125v111z" glyph-name="tbar" horiz-adv-x="300" unicode="ŧ"/><glyph d="M228 -5q-77 0 -126.5 46.5t-49.5 116.5v460h87v-453q0 -47 26 -70t63 -23t63 23t26 70v453h87v-460q0 -70 -49.5 -116.5t-126.5 -46.5zM268 732q28 0 46 24l43 -52q-13 -19 -36.5 -34t-38.5 -15q-26 0 -60 16q-26 13 -37 13q-28 0 -46 -24l-43 52q13 19 36.5 34t38.5 15 q7 0 39 -13q32 -16 58 -16z" glyph-name="Utilde" horiz-adv-x="456" unicode="Ũ"/><glyph d="M377 0h-76l-11 32q-51 -37 -105 -37q-63 0 -100.5 36.5t-37.5 107.5v321h87v-310q0 -37 22.5 -57.5t53.5 -20.5q36 0 58 20.5t22 57.5v310h87v-460zM251 580q28 0 46 24l43 -52q-13 -19 -36.5 -34t-38.5 -15q-26 0 -60 16q-26 13 -37 13q-28 0 -46 -24l-43 52 q13 19 36.5 34t38.5 15q7 0 39 -13q32 -16 58 -16z" glyph-name="utilde" unicode="ũ"/><glyph d="M228 -5q-77 0 -126.5 46.5t-49.5 116.5v460h87v-453q0 -47 26 -70t63 -23t63 23t26 70v453h87v-460q0 -70 -49.5 -116.5t-126.5 -46.5zM127 655v77h202v-77h-202z" glyph-name="Umacron" horiz-adv-x="456" unicode="Ū"/><glyph d="M377 0h-76l-11 32q-51 -37 -105 -37q-63 0 -100.5 36.5t-37.5 107.5v321h87v-310q0 -37 22.5 -57.5t53.5 -20.5q36 0 58 20.5t22 57.5v310h87v-460zM107 503v77h202v-77h-202z" glyph-name="umacron" unicode="ū"/><glyph d="M228 -5q-77 0 -126.5 46.5t-49.5 116.5v460h87v-453q0 -47 26 -70t63 -23t63 23t26 70v453h87v-460q0 -70 -49.5 -116.5t-126.5 -46.5zM228 655q-132 0 -138 111v12h74l1 -12q3 -21 20 -32.5t43 -11.5t43 11.5t20 32.5l1 12h74v-12q-6 -111 -138 -111z" glyph-name="Ubreve" horiz-adv-x="456" unicode="Ŭ"/><glyph d="M377 0h-76l-11 32q-51 -37 -105 -37q-63 0 -100.5 36.5t-37.5 107.5v321h87v-310q0 -37 22.5 -57.5t53.5 -20.5q36 0 58 20.5t22 57.5v310h87v-460zM210 503q-132 0 -138 111v12h74l1 -12q3 -21 20 -32.5t43 -11.5t43 11.5t20 32.5l1 12h74v-12q-6 -111 -138 -111z" glyph-name="ubreve" unicode="ŭ"/><glyph d="M228 655q-48 0 -75 29t-27 85q0 57 27 86.5t75 29.5t75.5 -29.5t27.5 -86.5q0 -56 -27.5 -85t-75.5 -29zM228 717q13 0 22.5 13.5t9.5 38.5q0 53 -32 53q-13 0 -22 -13t-9 -40q0 -25 9.5 -38.5t21.5 -13.5zM228 -5q-77 0 -126.5 46.5t-49.5 116.5v460h87v-453 q0 -47 26 -70t63 -23t63 23t26 70v453h87v-460q0 -70 -49.5 -116.5t-126.5 -46.5z" glyph-name="Uring" horiz-adv-x="456" unicode="Ů"/><glyph d="M207 503q-48 0 -75 29t-27 85q0 57 27 86.5t75 29.5t75.5 -29.5t27.5 -86.5q0 -56 -27.5 -85t-75.5 -29zM207 565q13 0 22.5 13.5t9.5 38.5q0 53 -32 53q-13 0 -22 -13t-9 -40q0 -25 9.5 -38.5t21.5 -13.5zM377 0h-76l-11 32q-51 -37 -105 -37q-63 0 -100.5 36.5 t-37.5 107.5v321h87v-310q0 -37 22.5 -57.5t53.5 -20.5q36 0 58 20.5t22 57.5v310h87v-460z" glyph-name="uring" unicode="ů"/><glyph d="M228 -5q-77 0 -126.5 46.5t-49.5 116.5v460h87v-453q0 -47 26 -70t63 -23t63 23t26 70v453h87v-460q0 -70 -49.5 -116.5t-126.5 -46.5zM241 788l-41 -133h-73l23 133h91zM359 788l-41 -133h-73l23 133h91z" glyph-name="Uhungarumlaut" horiz-adv-x="456" unicode="Ű"/><glyph d="M377 0h-76l-11 32q-51 -37 -105 -37q-63 0 -100.5 36.5t-37.5 107.5v321h87v-310q0 -37 22.5 -57.5t53.5 -20.5q36 0 58 20.5t22 57.5v310h87v-460zM219 636l-41 -133h-73l23 133h91zM337 636l-41 -133h-73l23 133h91z" glyph-name="uhungarumlaut" unicode="ű"/><glyph d="M317 617h87v-460q0 -60 -38 -104t-99 -55q-31 -16 -31 -60q0 -18 13 -28t28 -10q6 0 34 4v-59q-22 -2 -42 -2q-52 0 -76 23.5t-24 70.5q0 31 21 61q-62 11 -100 55t-38 104v460h87v-453q0 -47 26 -70t63 -23t63 23t26 70v453z" glyph-name="Uogonek" horiz-adv-x="456" unicode="Ų"/><glyph d="M377 -13h-19q-22 0 -38.5 -14t-16.5 -45q0 -18 13 -28t28 -10q5 0 26 3v-58q-22 -2 -34 -2q-53 0 -76.5 21.5t-23.5 68.5q0 24 16 49.5t45 39.5l-7 20q-51 -37 -105 -37q-63 0 -100.5 36.5t-37.5 107.5v321h87v-310q0 -37 22.5 -57.5t53.5 -20.5q36 0 58 20.5t22 57.5 v310h87v-473z" glyph-name="uogonek" unicode="ų"/><glyph d="M216 325l111 293h89q-51 -131 -156 -411v-207h-87v207q-105 280 -156 411h89zM109 655v91h91v-91h-91zM233 655v91h91v-91h-91z" glyph-name="Ydieresis" horiz-adv-x="433" unicode="Ÿ"/><glyph d="M42 72l205 469h-205v77h295v-64l-208 -477h208v-77h-295v72zM286 719l-149 -67l-43 51l136 80z" glyph-name="Zacute" horiz-adv-x="379" unicode="Ź"/><glyph d="M27 73l176 310h-176v77h271v-66l-178 -317h178v-77h-271v73zM265 566l-149 -67l-43 51l136 80z" glyph-name="zacute" horiz-adv-x="325" unicode="ź"/><glyph d="M42 72l205 469h-205v77h295v-64l-208 -477h208v-77h-295v72zM143 746v-91h91v91h-91z" glyph-name="Zdotaccent" horiz-adv-x="379" unicode="Ż"/><glyph d="M27 73l176 310h-176v77h271v-66l-178 -317h178v-77h-271v73zM117 594v-91h91v91h-91z" glyph-name="zdotaccent" horiz-adv-x="325" unicode="ż"/><glyph d="M42 72l205 469h-205v77h295v-64l-208 -477h208v-77h-295v72zM134 655h110l56 159h-75l-36 -93l-36 93h-75z" glyph-name="Zcaron" horiz-adv-x="379" unicode="Ž"/><glyph d="M27 73l176 310h-176v77h271v-66l-178 -317h178v-77h-271v73zM107 503h110l56 159h-75l-36 -93l-36 93h-75z" glyph-name="zcaron" horiz-adv-x="325" unicode="ž"/><glyph d="M90 3v380h-73v77h73v25q0 81 34.5 110.5t101.5 29.5h35v-77h-12q-41 0 -56.5 -13t-15.5 -40v-35h91v-77h-91v-386q0 -90 -34 -125t-103 -35h-36v77h20q23 0 37.5 6.5t20 21t7 26.5t1.5 35z" glyph-name="florin" horiz-adv-x="285" unicode="ƒ"/><glyph d="M124 167v-14q2 -37 22 -59t73 -22q29 0 48 10t26 26.5t8.5 25t1.5 18.5q0 40 -27.5 68t-66.5 47.5t-78 41t-66.5 60.5t-27.5 95q0 161 167 161q46 0 80.5 -17t52 -43t25.5 -50t8 -44v-13h-87v11q-1 35 -23.5 56.5t-57.5 21.5q-44 0 -61 -19.5t-17 -56.5q0 -40 27.5 -68 t66.5 -47t78 -40.5t66.5 -62.5t27.5 -100q0 -79 -48.5 -118.5t-121.5 -39.5q-71 0 -124.5 38t-58.5 120v14h87zM183 -43h70l-27 -152h-91z" glyph-name="Scommaaccent" horiz-adv-x="417" unicode="Ș"/><glyph d="M254 325q-3 35 -24 52t-44 17q-7 0 -15.5 -2t-20 -7t-19 -18t-7.5 -31q0 -19 22 -37t53 -33.5t62 -34.5t53 -48t22 -65q0 -44 -36.5 -83.5t-115.5 -39.5q-71 0 -109 41t-45 99h81q1 -36 21.5 -52.5t48.5 -16.5q68 0 68 52q0 21 -22 38.5t-53 32t-62 31.5t-53 46.5 t-22 68.5q0 65 44 97.5t102 32.5q71 0 107.5 -41.5t40.5 -98.5h-77zM233 -43h-70l-48 -152h91z" glyph-name="scommaaccent" horiz-adv-x="362" unicode="ș"/><glyph d="M132 0v541h-110v77h307v-77h-110v-541h-87zM141 -43h70l-27 -152h-91z" glyph-name="uni021A" horiz-adv-x="351" unicode="Ț"/><glyph d="M90 460v132h87v-132h91v-77h-91v-217q0 -42 15 -65.5t60 -23.5h16v-77h-42q-68 0 -102 34t-34 125v224h-73v77h73zM141 -43h70l-27 -152h-91z" glyph-name="uni021B" horiz-adv-x="300" unicode="ț"/><glyph d="M108 618h110l56 -159h-75l-36 93l-36 -93h-75z" glyph-name="circumflex" horiz-adv-x="326" unicode="ˆ"/><glyph d="M218 459h-110l-56 159h75l36 -93l36 93h75z" glyph-name="caron" horiz-adv-x="326" unicode="ˇ"/><glyph d="M190 495q-132 0 -138 111v12h74l1 -12q3 -21 20 -32.5t43 -11.5t43 11.5t20 32.5l1 12h74v-12q-6 -111 -138 -111z" glyph-name="breve" horiz-adv-x="380" unicode="˘"/><glyph d="M52 544v81h81v-81h-81z" glyph-name="dotaccent" horiz-adv-x="185" unicode="˙"/><glyph d="M154 395q-48 0 -75 29t-27 85q0 57 27 86.5t75 29.5t75.5 -29.5t27.5 -86.5q0 -56 -27.5 -85t-75.5 -29zM154 457q13 0 22.5 13.5t9.5 38.5q0 53 -32 53q-13 0 -22 -13t-9 -40q0 -25 9.5 -38.5t21.5 -13.5z" glyph-name="ring" horiz-adv-x="309" unicode="˚"/><glyph d="M175 -66v-56q-18 -4 -43 -4q-42 0 -61 23.5t-19 48.5q0 9 4.5 25.5t8.5 22.5h69q-14 -28 -14 -43q0 -7 6 -14t13 -7q4 0 11 0.5t14.5 2t10.5 1.5z" glyph-name="ogonek" horiz-adv-x="227" unicode="˛"/><glyph d="M224 589q28 0 46 24l43 -52q-13 -19 -36.5 -34t-38.5 -15q-26 0 -60 16q-26 13 -37 13q-28 0 -46 -24l-43 52q13 19 36.5 34t38.5 15q7 0 39 -13q32 -16 58 -16z" glyph-name="tilde" horiz-adv-x="365" unicode="˜"/><glyph d="M166 618l-41 -133h-73l23 133h91zM284 618l-41 -133h-73l23 133h91z" glyph-name="hungarumlaut" horiz-adv-x="336" unicode="˝"/><glyph d="M275 625q77 0 126.5 -46.5t49.5 -116.5v-304q0 -42 -21 -81h68v-77h-182v75q48 12 48 90v290q0 47 -26 70t-63 23t-63 -23t-26 -70v-290q0 -78 48 -90v-75h-182v77h68q-21 39 -21 81v304q0 70 49.5 116.5t126.5 46.5z" glyph-name="Omega" horiz-adv-x="550" unicode="Ω"/><glyph d="M412 0v383h-163v-383h-87v383h-110v77h557v-77h-110v-383h-87z" glyph-name="pi" horiz-adv-x="661" unicode="π"/><glyph glyph-name="uni200B" horiz-adv-x="0" unicode="​"/><glyph d="M52 198v77h237v-77h-237z" glyph-name="endash" horiz-adv-x="341" unicode="–"/><glyph d="M52 198v77h302v-77h-302z" glyph-name="emdash" horiz-adv-x="406" unicode="—"/><glyph d="M52 465l47 153h71l-27 -153h-91z" glyph-name="quoteleft" horiz-adv-x="222" unicode="‘"/><glyph d="M170 618l-47 -153h-71l27 153h91z" glyph-name="quoteright" horiz-adv-x="222" unicode="’"/><glyph d="M170 51l-47 -153h-71l27 153h91z" glyph-name="quotesinglbase" horiz-adv-x="222" unicode="‚"/><glyph d="M52 465l47 153h71l-27 -153h-91zM171 465l47 153h71l-27 -153h-91z" glyph-name="quotedblleft" horiz-adv-x="341" unicode="“"/><glyph d="M289 618l-47 -153h-71l27 153h91zM170 618l-47 -153h-71l27 153h91z" glyph-name="quotedblright" horiz-adv-x="341" unicode="”"/><glyph d="M289 51l-47 -153h-71l27 153h91zM170 51l-47 -153h-71l27 153h91z" glyph-name="quotedblbase" horiz-adv-x="341" unicode="„"/><glyph d="M138 483v135h87v-135h88v-77h-88v-406h-87v406h-86v77h86z" glyph-name="dagger" horiz-adv-x="365" unicode="†"/><glyph d="M138 129h-86v77h86v200h-86v77h86v135h87v-135h88v-77h-88v-200h88v-77h-88v-129h-87v129z" glyph-name="daggerdbl" horiz-adv-x="365" unicode="‡"/><glyph d="M52 165v81h81v-81h-81z" glyph-name="bullet" horiz-adv-x="185" unicode="•"/><glyph d="M52 0v81h81v-81h-81zM271 0v81h81v-81h-81zM490 0v81h81v-81h-81z" glyph-name="ellipsis" horiz-adv-x="623" unicode="…"/><glyph d="M619 0q-41 0 -63.5 24.5t-22.5 72.5t22.5 73t63.5 25t64.5 -25t23.5 -73t-23.5 -72.5t-64.5 -24.5zM619 49q12 0 21.5 12.5t9.5 35.5q0 25 -9 37t-22 12q-28 0 -28 -49q0 -23 8.5 -35.5t19.5 -12.5zM138 423q-41 0 -63.5 24.5t-22.5 72.5t22.5 73t63.5 25t64.5 -25 t23.5 -73t-23.5 -72.5t-64.5 -24.5zM138 472q12 0 21.5 12.5t9.5 35.5q0 25 -9 37t-22 12q-28 0 -28 -49q0 -23 8 -35.5t20 -12.5zM416 0q-41 0 -63.5 24.5t-22.5 72.5t22.5 73t63.5 25t64.5 -25t23.5 -73t-23.5 -72.5t-64.5 -24.5zM416 49q12 0 21.5 12.5t9.5 35.5 q0 25 -9 37t-22 12q-28 0 -28 -49q0 -23 8 -35.5t20 -12.5zM446 618h-95l-221 -618h93z" glyph-name="perthousand" horiz-adv-x="759" unicode="‰"/><glyph d="M52 105v98l231 101v-77l-168 -73l168 -73v-77z" glyph-name="guilsinglleft" horiz-adv-x="335" unicode="‹"/><glyph d="M283 203v-98l-231 -101v77l168 73l-168 73v77z" glyph-name="guilsinglright" horiz-adv-x="335" unicode="›"/><glyph d="M222 738h80l-169 -856h-81z" glyph-name="fraction" horiz-adv-x="354" unicode="⁄"/><glyph d="M52 340v69h53v53q0 70 49.5 116.5t125.5 46.5q71 0 123 -47.5t52 -116.5v-11h-87v11q0 45 -26.5 66t-61.5 21q-36 0 -62 -23t-26 -70v-46h82v-69h-82v-80h82v-69h-82v-26q0 -47 26 -70t62 -23q35 0 61.5 21t26.5 66v11h87v-11q0 -69 -52 -116.5t-123 -47.5 q-76 0 -125.5 46.5t-49.5 116.5v33h-53v69h53v80h-53z" glyph-name="Euro" horiz-adv-x="507" unicode="€"/><glyph d="M617 618q-70 0 -116 -45t-46 -112v-181q0 -65 47 -106t115 -41t115 41t47 106v181q0 67 -46 112t-116 45zM617 210q-33 0 -54 22.5t-21 56.5v175q0 33 21 55t54 22t54 -22t21 -55v-175q0 -34 -21 -56.5t-54 -22.5zM129 618l181 -390v390h87v-618h-76l-182 381v-381h-87 v618h77zM499 77v-77h237v77h-237z" glyph-name="afii61352" horiz-adv-x="831" unicode="№"/><glyph d="M317 498v-180h-59v300h73l44 -130l44 130h73v-300h-59v180l-41 -118h-34zM170 564v-246h-56v246h-62v54h182v-54h-64z" glyph-name="trademark" horiz-adv-x="544" unicode="™"/><glyph d="M275 625q77 0 126.5 -46.5t49.5 -116.5v-304q0 -42 -21 -81h68v-77h-182v75q48 12 48 90v290q0 47 -26 70t-63 23t-63 -23t-26 -70v-290q0 -78 48 -90v-75h-182v77h68q-21 39 -21 81v304q0 70 49.5 116.5t126.5 46.5z" glyph-name="uni2126" horiz-adv-x="550" unicode="Ω"/><glyph d="M295 150v88q0 37 -22 57.5t-58 20.5q-31 0 -53.5 -20.5t-22.5 -57.5v-88q0 -37 22.5 -57.5t53.5 -20.5q36 0 58 20.5t22 57.5zM66 470v14q0 61 44 101t110 40q70 0 116 -45t46 -112v-468h-76l-11 32q-51 -37 -105 -37q-63 0 -100.5 36.5t-37.5 107.5v110q0 71 37.5 107.5 t100.5 36.5q54 0 105 -37v115q0 33 -21 55t-54 22q-30 0 -48.5 -18t-18.5 -46v-14h-87z" glyph-name="partialdiff" horiz-adv-x="434" unicode="∂"/><glyph d="M160 72h271l-136 423zM537 0h-485l197 618h92q196 -613 196 -618z" glyph-name="uni2206" horiz-adv-x="589" unicode="∆"/><glyph d="M412 0v541h-163v-541h-87v541h-110v77h557v-77h-110v-541h-87z" glyph-name="product" horiz-adv-x="661" unicode="∏"/><glyph d="M52 555v63h286v-77h-196l77 -231l-77 -233h196v-77h-286v63l82 247z" glyph-name="summation" horiz-adv-x="390" unicode="∑"/><glyph d="M52 198v77h237v-77h-237z" glyph-name="minus" horiz-adv-x="341" unicode="−"/><glyph d="M247 0h-136l-59 248h89l38 -179l122 549h181v-70h-108z" glyph-name="radical" horiz-adv-x="534" unicode="√"/><glyph d="M344 219q-24 41 -60.5 61t-66.5 20q-78 0 -78 -80t78 -80q30 0 66.5 19.5t60.5 59.5zM398 176q-77 -113 -190 -113q-77 0 -116.5 44.5t-39.5 112.5t39.5 112.5t116.5 44.5q113 0 190 -113q77 113 190 113q77 0 116.5 -44.5t39.5 -112.5t-39.5 -112.5t-116.5 -44.5 q-113 0 -190 113zM452 219q24 -40 60.5 -59.5t66.5 -19.5q78 0 78 80t-78 80q-30 0 -66.5 -20t-60.5 -61z" glyph-name="infinity" horiz-adv-x="796" unicode="∞"/><glyph d="M311 618v-77h-20q-23 0 -37.5 -6.5t-20 -21t-7 -26.5t-1.5 -35v-455q0 -90 -34 -125t-103 -35h-36v77h20q23 0 37.5 6.5t20 21t7 26.5t1.5 35v455q0 90 34 125t103 35h36z" glyph-name="integral" horiz-adv-x="363" unicode="∫"/><glyph d="M224 297q28 0 46 24l43 -52q-13 -19 -36.5 -34t-38.5 -15q-26 0 -60 16q-26 13 -37 13q-28 0 -46 -24l-43 52q13 19 36.5 34t38.5 15q7 0 39 -13q32 -16 58 -16zM224 183q28 0 46 24l43 -52q-13 -19 -36.5 -34t-38.5 -15q-26 0 -60 16q-26 13 -37 13q-28 0 -46 -24 l-43 52q13 19 36.5 34t38.5 15q7 0 39 -13q32 -16 58 -16z" glyph-name="approxequal" horiz-adv-x="365" unicode="≈"/><glyph d="M273 236h-68l-14 -70h82v-77h-97l-17 -89h-67l18 89h-58v77h73l14 70h-87v77h102l19 97h66l-19 -97h53v-77z" glyph-name="notequal" horiz-adv-x="325" unicode="≠"/><glyph d="M52 197v98l231 101v-77l-168 -73l168 -73v-77zM52 0v77h231v-77h-231z" glyph-name="lessequal" horiz-adv-x="335" unicode="≤"/><glyph d="M283 295v-98l-231 -101v77l168 73l-168 73v77zM283 77v-77h-231v77h231z" glyph-name="greaterequal" horiz-adv-x="335" unicode="≥"/><glyph d="M259 0h-93l-114 309l114 309h94l114 -309zM213 94l76 215l-76 215l-76 -215z" glyph-name="lozenge" horiz-adv-x="426" unicode="◊"/><glyph glyph-name="uni25CC" horiz-adv-x="185" unicode="◌"/><glyph d="M261 548h-12q-41 0 -56.5 -13t-15.5 -40v-35h91v-77h-91v-383h-87v383h-73v77h73v25q0 81 34.5 110.5t101.5 29.5h35v-77zM338 0v460h87v-460h-87zM338 499v112h87v-112h-87z" glyph-name="uniFB01" horiz-adv-x="477" unicode="ﬁ"/><glyph d="M261 548h-12q-41 0 -56.5 -13t-15.5 -40v-35h91v-77h-91v-383h-87v383h-73v77h73v25q0 81 34.5 110.5t101.5 29.5h35v-77zM338 0v618h87v-618h-87z" glyph-name="uniFB02" horiz-adv-x="477" unicode="ﬂ"/><glyph d="M303 505q106 0 180 -74t74 -180q0 -104 -74 -177.5t-180 -73.5q-103 0 -177 74t-74 177q0 106 73.5 180t177.5 74zM410 90q32 0 32 27q0 30 -24 30v133q0 43 -32 71q6 2 19 2t19 -2h11v65q-73 -9 -115 -32q-12 2 -37 2q-49 0 -88 -14v-63h6q50 16 76 16q74 0 74 -43 l-82 -8q-46 -4 -74 -23t-28 -69q0 -42 28.5 -67t73.5 -25q30 0 43 3v54l-6 4q-9 -4 -23 -4q-18 0 -31.5 10t-13.5 31q0 16 18 22.5t95 18.5v-71q0 -37 10.5 -52.5t39.5 -15.5h9z" glyph-name="glyph358" horiz-adv-x="609"/></font>
</defs>
</svg>
