<?xml version="1.0" standalone="no"?>
<!DOCTYPE svg PUBLIC "-//W3C//DTD SVG 1.1//EN" "http://www.w3.org/Graphics/SVG/1.1/DTD/svg11.dtd">
<svg xmlns="http://www.w3.org/2000/svg"><metadata>This SVG WebFont was generated by YouWorkForThem.
Copyright (c) 2018 by Typesketchbook. All rights reserved.</metadata><defs><font horiz-adv-x="432" id="ywftsvg"><font-face ascent="750" bbox="-49 -191 780 837" cap-height="618" descent="-250" font-family="" font-stretch="normal" font-weight="265" panose-1="2 0 0 0 0 0 0 0 0 0" underline-position="0" underline-thickness="0" unicode-range="U+0020-FB02" units-per-em="1000" x-height="459"/><missing-glyph d="M534 0h-511v626h511v-626zM68 43h19v21h-19l-2 -20q2 0 2 -1zM488 582v-2h2q0 2 -2 2zM488 580h-18v-18h18v18zM490 45l-2 19h-18v-19h20zM69 582v-20h18v20l-19 1q0 -1 1 -1zM87 562v-498h383v498h-383z" horiz-adv-x="567"/><glyph d="M534 0h-511v626h511v-626zM68 43h19v21h-19l-2 -20q2 0 2 -1zM488 582v-2h2q0 2 -2 2zM488 580h-18v-18h18v18zM490 45l-2 19h-18v-19h20zM69 582v-20h18v20l-19 1q0 -1 1 -1zM87 562v-498h383v498h-383z" glyph-name=".notdef" horiz-adv-x="567"/><glyph glyph-name="glyph1" horiz-adv-x="0"/><glyph glyph-name="glyph2" horiz-adv-x="185"/><glyph glyph-name="space" horiz-adv-x="185" unicode=" "/><glyph d="M64 142v476h34v-476h-34zM64 0v100h34v-100h-34z" glyph-name="exclam" horiz-adv-x="162" unicode="!"/><glyph d="M94 509h-24l-6 109h34zM201 509h-24l-6 109h34z" glyph-name="quotedbl" horiz-adv-x="269" unicode="&quot;"/><glyph d="M426 196l46 218h-200l-46 -218h200zM180 162h-116v34h124l46 218h-125v34h132l35 170h39l-36 -170h200l35 170h38l-35 -170h121v-34h-128l-46 -218h130v-34h-138l-34 -162h-39l35 162h-200l-34 -162h-39z" glyph-name="numbersign" horiz-adv-x="702" unicode="#"/><glyph d="M212 -97v94q-60 3 -101 38t-42 107v6h34v-7q0 -46 28.5 -79t97.5 -33q42 0 70.5 12t39.5 31.5t14.5 33.5t3.5 29q0 48 -30 84.5t-73.5 60.5t-86.5 49t-73 63t-30 88q0 73 41 108.5t107 36.5v90h34v-92q53 -8 87.5 -43t35.5 -102v-7h-34v7q0 114 -119 114q-40 0 -67 -13.5 t-36.5 -35t-12.5 -34.5t-3 -27q0 -38 21.5 -68.5t54.5 -49t70.5 -41t70.5 -44.5t54.5 -59.5t21.5 -85.5q0 -65 -40 -99.5t-104 -37.5v-94h-34z" glyph-name="dollar" horiz-adv-x="454" unicode="$"/><glyph d="M64 530q0 44 20.5 67t57.5 23t57.5 -23t20.5 -67t-20.5 -68t-57.5 -24t-57.5 24t-20.5 68zM187 530q0 31 -14 46t-31 15q-16 0 -30 -15t-14 -46t14 -46.5t30 -15.5q17 0 31 15.5t14 46.5zM540 90q0 -44 -20.5 -68t-57.5 -24t-57.5 24t-20.5 68t20.5 67t57.5 23t57.5 -23 t20.5 -67zM417 90q0 -31 14 -46.5t31 -15.5q16 0 30 15.5t14 46.5t-14 46t-30 15q-17 0 -31 -15t-14 -46zM173 0h36l222 618h-38z" glyph-name="percent" horiz-adv-x="604" unicode="%"/><glyph d="M224 13q69 0 146 80l-155 184q-5 -3 -13 -8.5t-28 -22.5t-35.5 -35t-28 -43.5t-12.5 -49.5q0 -45 29 -75t97 -30zM219 320q125 96 125 176q0 42 -24.5 69t-76.5 27q-100 0 -100 -103q0 -39 23 -87.5t53 -81.5zM491 0h-41l-60 69q-33 -44 -80.5 -66t-84.5 -22q-24 0 -48 5 t-51.5 18.5t-44.5 42.5t-17 71q0 29 13.5 59t32.5 51t38 38.5t32 25.5l14 9q-85 96 -85 188q0 72 39.5 104t91.5 32q60 0 99 -33t39 -95q0 -30 -14 -62t-34.5 -56t-41 -43.5t-34.5 -29.5l-14 -10l150 -177q37 53 78 137h35q-41 -89 -92 -162z" glyph-name="ampersand" horiz-adv-x="567" unicode="&amp;"/><glyph d="M94 509h-24l-6 109h34z" glyph-name="quotesingle" horiz-adv-x="162" unicode="'"/><glyph d="M99 310q0 -219 36 -428h-35q-36 216 -36 428q0 219 35 429h36q-36 -209 -36 -429z" glyph-name="parenleft" horiz-adv-x="199" unicode="("/><glyph d="M100 310q0 220 -36 429h36q35 -210 35 -429q0 -212 -36 -428h-35q36 209 36 428z" glyph-name="parenright" horiz-adv-x="199" unicode=")"/><glyph d="M173 618l-3 -78l56 33l22 -30l-67 -33l49 -72l-33 -16l-41 74l-41 -74l-33 16l49 72l-67 33l22 30l56 -33l-3 78h34z" glyph-name="asterisk" horiz-adv-x="312" unicode="*"/><glyph d="M160 84v111h-96v34h96v114h34v-114h96v-34h-96v-111h-34z" glyph-name="plus" horiz-adv-x="354" unicode="+"/><glyph d="M64 -82l22 111h40l-33 -111h-29z" glyph-name="comma" horiz-adv-x="190" unicode=","/><glyph d="M291 196h-227v34h227v-34z" glyph-name="hyphen" horiz-adv-x="355" unicode="-"/><glyph d="M64 0v35h35v-35h-35z" glyph-name="period" horiz-adv-x="163" unicode="."/><glyph d="M102 -118h-38l166 857h38q-31 -163 -95 -491.5t-71 -365.5z" glyph-name="slash" horiz-adv-x="332" unicode="/"/><glyph d="M225 625q73 0 119.5 -44t46.5 -120v-301q0 -76 -46.5 -120t-119.5 -44t-119.5 44t-46.5 120v301q0 76 46.5 120t119.5 44zM225 29q54 0 93 34t39 100v295q0 66 -39 100t-93 34t-93 -34t-39 -100v-295q0 -66 39 -100t93 -34z" glyph-name="zero" horiz-adv-x="450" unicode="0"/><glyph d="M169 618h44v-618h-34v585l-150 -74v37z" glyph-name="one" horiz-adv-x="277" unicode="1"/><glyph d="M44 494v7q3 56 44.5 90t99.5 34q63 0 106 -41t43 -100q0 -49 -26.5 -96t-64 -85.5t-75 -76.5t-64 -84t-26.5 -92v-16h236v-34h-269v57q0 51 25.5 98t62 84.5t73.5 73t64.5 77.5t29.5 84q0 52 -32 85t-83 33q-46 0 -77 -25t-33 -66v-7h-34z" glyph-name="two" horiz-adv-x="381" unicode="2"/><glyph d="M44 494v7q3 56 44.5 90t99.5 34q63 0 106 -41t43 -100v-48q0 -83 -75 -127q75 -50 75 -136v-36q0 -59 -43 -100t-106 -41q-59 0 -100 34.5t-44 90.5v6h34v-7q2 -41 33 -66t77 -25q51 0 83 33t32 85v33q0 50 -31.5 81.5t-83.5 31.5h-32v34h32q52 0 83.5 31t31.5 82v34 q0 52 -32 85t-83 33q-46 0 -77 -25t-33 -66v-7h-34z" glyph-name="three" horiz-adv-x="396" unicode="3"/><glyph d="M337 142v-142h-34v142h-269v34l252 442h51v-442h74v-34h-74zM303 176v402l-230 -402h230z" glyph-name="four" horiz-adv-x="440" unicode="4"/><glyph d="M109 291h-50v327h253v-34h-219v-260q46 50 118 50q60 0 99 -41t39 -105v-69q0 -83 -39.5 -123.5t-106.5 -40.5q-51 0 -91 28t-51 82l-1 7h33l2 -7q22 -76 108 -76q113 0 113 132v68q0 51 -31 81.5t-84 30.5q-44 0 -92 -50z" glyph-name="five" horiz-adv-x="403" unicode="5"/><glyph d="M336 519h-36q-24 73 -102 73q-55 0 -80.5 -32t-25.5 -105v-150q42 57 114 57q60 0 101 -40t41 -102v-82q0 -62 -41 -102t-101 -40q-62 0 -104.5 40t-42.5 102v330q0 157 139 157q50 0 87.5 -28.5t50.5 -77.5zM206 329q-52 0 -83 -34.5t-31 -86.5v-61q0 -53 31 -85.5 t83 -32.5q50 0 79.5 33t29.5 85v64q0 52 -29.5 85t-79.5 33z" glyph-name="six" horiz-adv-x="402" unicode="6"/><glyph d="M119 0h-34l167 584h-218v34h252v-34z" glyph-name="seven" horiz-adv-x="320" unicode="7"/><glyph d="M198 29q50 0 80 33t30 85v29q0 51 -30 83t-80 32t-80 -32t-30 -83v-29q0 -52 30 -85t80 -33zM198 625q62 0 103 -41.5t41 -106.5v-35q0 -16 -3 -32t-10.5 -36.5t-25 -38.5t-43.5 -27q82 -40 82 -140v-36q0 -61 -42 -98.5t-102 -37.5t-102 37.5t-42 98.5v36q0 100 82 140 q-26 9 -43.5 27t-25 38.5t-10.5 36.5t-3 32v35q0 65 41 106.5t103 41.5zM198 592q-50 0 -80 -33t-30 -85v-33q0 -51 30 -83.5t80 -32.5t80 32.5t30 83.5v33q0 52 -30 85t-80 33z" glyph-name="eight" horiz-adv-x="396" unicode="8"/><glyph d="M66 102h36q24 -73 102 -73q55 0 80.5 32t25.5 105v150q-42 -57 -114 -57q-60 0 -101 40t-41 102v82q0 62 41 102t101 40q62 0 104.5 -40t42.5 -102v-330q0 -157 -139 -157q-50 0 -87.5 28.5t-50.5 77.5zM196 292q52 0 83 34.5t31 86.5v61q0 53 -31 85.5t-83 32.5 q-50 0 -79.5 -33t-29.5 -85v-64q0 -52 29.5 -85t79.5 -33z" glyph-name="nine" horiz-adv-x="402" unicode="9"/><glyph d="M64 0v35h35v-35h-35zM64 285v35h35v-35h-35z" glyph-name="colon" horiz-adv-x="163" unicode=":"/><glyph d="M87 285v35h35v-35h-35zM64 -82l22 111h40l-33 -111h-29z" glyph-name="semicolon" horiz-adv-x="190" unicode=";"/><glyph d="M64 118v40l206 93v-38l-169 -75l169 -75v-38z" glyph-name="less" horiz-adv-x="334" unicode="&lt;"/><glyph d="M266 239h-202v34h202v-34zM266 87h-202v34h202v-34z" glyph-name="equal" horiz-adv-x="330" unicode="="/><glyph d="M270 158v-40l-206 -93v38l169 75l-169 75v38z" glyph-name="greater" horiz-adv-x="334" unicode=">"/><glyph d="M176 126v72q0 36 23 73.5t50.5 64.5t50.5 64.5t23 73.5q0 52 -32 85t-83 33q-46 0 -77 -25t-33 -66v-7h-34v7q3 56 44.5 90t99.5 34q63 0 106 -41t43 -100v-15q0 -39 -23 -77.5t-50.5 -65.5t-50.5 -67t-23 -80v-53h-34zM176 0v84h34v-84h-34z" glyph-name="question" horiz-adv-x="421" unicode="?"/><glyph d="M496 65v40q-43 -46 -108 -46q-111 0 -111 132v86q0 132 111 132q64 0 107 -46v41q0 27 -8.5 54.5t-28 57.5t-59.5 49t-95 19h-14q-55 0 -95 -19t-60 -49t-28.5 -58t-8.5 -54v-289q0 -20 4.5 -42t18 -47t34 -44.5t55.5 -32.5t80 -13h72v-34h-70q-60 0 -106.5 20t-71.5 52 t-37.5 66t-12.5 67v301q0 34 12.5 68.5t37.5 67.5t71.5 53.5t106.5 20.5h11q49 0 88.5 -14t65 -36t42.5 -50.5t24 -56t7 -53.5v-343h-34zM495 195v78q0 46 -27 74t-75 28q-45 0 -65 -23.5t-20 -78.5v-78q0 -55 20 -78.5t65 -23.5q48 0 75 28t27 74z" glyph-name="at" horiz-adv-x="594" unicode="@"/><glyph d="M373 0l-32 123h-242l-32 -123h-33l161 618h50l161 -618h-33zM108 156h225l-113 432z" glyph-name="A" horiz-adv-x="440" unicode="A"/><glyph d="M64 0v618h140q78 0 121.5 -37.5t43.5 -106.5v-19q0 -107 -91 -143q107 -26 107 -153v-9q0 -69 -47 -109.5t-112 -40.5h-162zM224 33q53 0 90.5 30t37.5 96q0 67 -38.5 102t-89.5 35h-126v-263h126zM98 585v-255h107q55 0 93 30t38 100v5q0 38 -11 63t-31.5 36.5t-41 16 t-47.5 4.5h-107z" glyph-name="B" horiz-adv-x="434" unicode="B"/><glyph d="M225 -4q-73 0 -119.5 44t-46.5 120v301q0 76 46.5 120t119.5 44q65 0 109 -35t53 -101h-34l-2 7q-11 48 -46 72t-80 24q-54 0 -93 -34t-39 -100v-295q0 -66 39 -100t93 -34q45 0 80 24t46 72l2 7h34q-9 -66 -53 -101t-109 -35z" glyph-name="C" horiz-adv-x="421" unicode="C"/><glyph d="M64 0v618h158q72 0 118 -41.5t46 -122.5v-290q0 -81 -46 -122.5t-118 -41.5h-158zM352 166v286q0 66 -38 99.5t-90 33.5h-126v-552h126q52 0 90 33.5t38 99.5z" glyph-name="D" horiz-adv-x="440" unicode="D"/><glyph d="M98 34h206v-34h-240v618h240v-34h-206v-278h149v-34h-149v-238z" glyph-name="E" horiz-adv-x="358" unicode="E"/><glyph d="M64 0v618h240v-34h-206v-278h149v-34h-149v-272h-34z" glyph-name="F" horiz-adv-x="323" unicode="F"/><glyph d="M352 0v48q-44 -52 -127 -52q-73 0 -119.5 44t-46.5 120v301q0 76 46.5 120t119.5 44q65 0 109 -35t53 -101h-34l-2 7q-11 48 -46 72t-80 24q-54 0 -93 -34t-39 -100v-295q0 -66 39 -100t93 -34q56 0 91.5 33t35.5 61v157h-79v34h113v-314h-34z" glyph-name="G" horiz-adv-x="451" unicode="G"/><glyph d="M340 0v272h-242v-272h-34v618h34v-313h242v313h34v-618h-34z" glyph-name="H" horiz-adv-x="438" unicode="H"/><glyph d="M64 0v618h34v-618h-34z" glyph-name="I" horiz-adv-x="162" unicode="I"/><glyph d="M62 129l1 -7q5 -41 35.5 -67t74.5 -26q52 0 83.5 33t31.5 91v465h34v-472q0 -75 -41.5 -112.5t-107.5 -37.5q-58 0 -99.5 36.5t-44.5 89.5v7h33z" glyph-name="J" horiz-adv-x="386" unicode="J"/><glyph d="M387 0h-34l-137 345l-118 -215v-130h-34v618h34v-420l232 420h38l-131 -237z" glyph-name="K" horiz-adv-x="421" unicode="K"/><glyph d="M64 0v618h34v-584h206v-34h-240z" glyph-name="L" horiz-adv-x="343" unicode="L"/><glyph d="M452 532l-170 -355h-14l-170 355v-532h-34v618h31l180 -377l180 377h31v-618h-34v532z" glyph-name="M" horiz-adv-x="550" unicode="M"/><glyph d="M361 0l-263 541v-541h-34v618h31l263 -540v540h34v-618h-31z" glyph-name="N" horiz-adv-x="456" unicode="N"/><glyph d="M225 625q73 0 119.5 -44t46.5 -120v-301q0 -76 -46.5 -120t-119.5 -44t-119.5 44t-46.5 120v301q0 76 46.5 120t119.5 44zM225 29q54 0 93 34t39 100v295q0 66 -39 100t-93 34t-93 -34t-39 -100v-295q0 -66 39 -100t93 -34z" glyph-name="O" horiz-adv-x="450" unicode="O"/><glyph d="M64 0v618h158q65 0 111 -45t46 -127v-97q0 -81 -46 -126t-111 -45h-124v-178h-34zM98 584v-372h119q53 0 90.5 35t37.5 111v79q0 77 -37.5 112t-90.5 35h-119z" glyph-name="P" horiz-adv-x="428" unicode="P"/><glyph d="M225 -4q-73 0 -119.5 44t-46.5 120v301q0 76 46.5 120t119.5 44t119.5 -44t46.5 -120v-301q0 -85 -58 -130h112v-34h-220zM225 29q54 0 93 34t39 100v295q0 66 -39 100t-93 34t-93 -34t-39 -100v-295q0 -66 39 -100t93 -34z" glyph-name="Q" horiz-adv-x="469" unicode="Q"/><glyph d="M328 0l-69 216q-16 -4 -37 -4h-124v-212h-34v618h158q65 0 111 -45t46 -127v-63q0 -58 -24.5 -98t-64.5 -58l71 -227h-33zM98 584v-338h119q53 0 90.5 35t37.5 111v45q0 77 -37.5 112t-90.5 35h-119z" glyph-name="R" horiz-adv-x="423" unicode="R"/><glyph d="M320 471v7q0 114 -119 114q-40 0 -67 -13.5t-36.5 -35t-12.5 -34.5t-3 -27q0 -38 21.5 -68.5t54.5 -49t70.5 -41t70.5 -44.5t54.5 -59.5t21.5 -85.5q0 -69 -45 -103.5t-115 -34.5q-65 0 -112.5 34.5t-48.5 111.5v6h34v-7q0 -46 28.5 -79t97.5 -33q42 0 70.5 12t39.5 31.5 t14.5 33.5t3.5 29q0 48 -30 84.5t-73.5 60.5t-86.5 49t-73 63t-30 88q0 74 42 109.5t109 35.5q64 0 108.5 -35t45.5 -112v-7h-34z" glyph-name="S" horiz-adv-x="414" unicode="S"/><glyph d="M156 0v584h-122v34h278v-34h-122v-584h-34z" glyph-name="T" horiz-adv-x="346" unicode="T"/><glyph d="M230 -4q-73 0 -119.5 44t-46.5 120v458h34v-455q0 -66 39 -100t93 -34t93 34t39 100v455h34v-458q0 -76 -46.5 -120t-119.5 -44z" glyph-name="U" horiz-adv-x="460" unicode="U"/><glyph d="M406 618l-161 -618h-50l-161 618h33l153 -588l153 588h33z" glyph-name="V" horiz-adv-x="440" unicode="V"/><glyph d="M314 618l111 -578l105 578h33l-113 -618h-49l-105 557l-105 -557h-49l-113 618h33l105 -578l110 578h37z" glyph-name="W" horiz-adv-x="592" unicode="W"/><glyph d="M328 0l-126 277l-126 -277h-37l141 303l-146 315h37l131 -288l131 288h37l-146 -315l141 -303h-37z" glyph-name="X" horiz-adv-x="404" unicode="X"/><glyph d="M204 240l142 378h33l-158 -421v-197h-34v197l-158 421h33z" glyph-name="Y" horiz-adv-x="408" unicode="Y"/><glyph d="M54 0v35l227 549h-227v34h261v-37l-227 -547h227v-34h-261z" glyph-name="Z" horiz-adv-x="369" unicode="Z"/><glyph d="M64 -118v857h101v-34h-67v-789h67v-34h-101z" glyph-name="bracketleft" horiz-adv-x="229" unicode="["/><glyph d="M268 -118h-38q-7 37 -71 365.5t-95 491.5h38z" glyph-name="backslash" horiz-adv-x="332" unicode="\"/><glyph d="M165 739v-857h-101v34h67v789h-67v34h101z" glyph-name="bracketright" horiz-adv-x="229" unicode="]"/><glyph d="M155 618l50 -115h-35l-36 84l-36 -84h-34l49 115h42z" glyph-name="asciicircum" horiz-adv-x="269" unicode="^"/><glyph d="M64 -66v34h213v-34h-213z" glyph-name="underscore" horiz-adv-x="341" unicode="_"/><glyph d="M101 502l-37 116h41l25 -116h-29z" glyph-name="grave" horiz-adv-x="194" unicode="`"/><glyph d="M93 293v-126q0 -138 113 -138q56 0 92 33t36 88v160q0 55 -36 88t-92 33q-113 0 -113 -138zM368 0h-29l-5 56q-45 -60 -125 -60q-68 0 -109 40t-41 126v136q0 86 41 126t109 40q80 0 125 -60l5 56h29v-460z" glyph-name="a" unicode="a"/><glyph d="M64 0v618h34v-214q45 60 125 60q68 0 109 -40t41 -126v-136q0 -86 -41 -126t-109 -40q-80 0 -125 60l-5 -56h-29zM339 167v126q0 138 -113 138q-56 0 -92 -33t-36 -88v-160q0 -55 36 -88t92 -33q113 0 113 138z" glyph-name="b" unicode="b"/><glyph d="M209 -4q-71 0 -110.5 43.5t-39.5 107.5v166q0 64 39.5 107.5t110.5 43.5q61 0 100 -32.5t50 -83.5l1 -8h-33l-2 7q-10 38 -40 61t-76 23q-57 0 -86.5 -35t-29.5 -89v-154q0 -54 29.5 -89t86.5 -35q46 0 76 23t40 61l2 7h33l-1 -8q-11 -51 -50 -83.5t-100 -32.5z" glyph-name="c" horiz-adv-x="409" unicode="c"/><glyph d="M368 618v-618h-29l-5 56q-45 -60 -125 -60q-68 0 -109 40t-41 126v136q0 86 41 126t109 40q80 0 125 -60v214h34zM93 293v-126q0 -138 113 -138q56 0 92 33t36 88v160q0 55 -36 88t-92 33q-113 0 -113 -138z" glyph-name="d" unicode="d"/><glyph d="M93 222v-69q0 -54 30.5 -89t87.5 -35q84 0 112 73h35q-13 -47 -51 -76.5t-96 -29.5q-71 0 -111.5 43.5t-40.5 107.5v166q0 64 40.5 107.5t111.5 43.5t111.5 -43.5t40.5 -107.5v-91h-270zM93 307v-52h236v52q0 54 -30.5 89t-87.5 35t-87.5 -35t-30.5 -89z" glyph-name="e" horiz-adv-x="422" unicode="e"/><glyph d="M258 591h-11q-55 0 -75.5 -21t-20.5 -64v-46h107v-34h-107v-426h-34v426h-88v34h88v40q0 74 30.5 99.5t92.5 25.5h18v-34z" glyph-name="f" horiz-adv-x="287" unicode="f"/><glyph d="M339 460h29v-477q0 -65 -36.5 -108t-107.5 -43q-118 0 -141 109l-1 8h33l2 -7q21 -77 107 -77q56 0 83 34.5t27 89.5v88q-45 -60 -125 -60q-68 0 -109 40t-41 126v115q0 86 41 126t109 40q80 0 125 -60zM334 171v139q0 55 -36 88t-92 33q-113 0 -113 -138v-105 q0 -138 113 -138q56 0 92 33t36 88z" glyph-name="g" unicode="g"/><glyph d="M64 0v618h34v-214q45 60 125 60q68 0 109 -40t41 -126v-298h-34v293q0 138 -113 138q-55 0 -91.5 -31.5t-36.5 -84.5v-315h-34z" glyph-name="h" unicode="h"/><glyph d="M64 0v460h34v-460h-34zM64 502v100h34v-100h-34z" glyph-name="i" horiz-adv-x="162" unicode="i"/><glyph d="M-49 -157h7q38 0 60.5 8t32 26.5t11.5 34.5t2 48v500h34v-505q0 -82 -30.5 -114t-92.5 -32h-24v34zM64 602v-100h34v100h-34z" glyph-name="j" horiz-adv-x="162" unicode="j"/><glyph d="M297 460h40l-80 -127l128 -333h-36l-114 300l-137 -216v-84h-34v618h34v-470z" glyph-name="k" horiz-adv-x="409" unicode="k"/><glyph d="M64 0v618h34v-618h-34z" glyph-name="l" horiz-adv-x="162" unicode="l"/><glyph d="M313 0v293q0 77 -24.5 107.5t-73.5 30.5q-54 0 -85.5 -36.5t-31.5 -94.5v-300h-34v460h29l5 -56q45 60 117 60q80 0 118 -74q52 74 127 74q126 0 126 -163v-301h-34v293q0 77 -24 107.5t-72 30.5q-68 0 -113 -87q4 -20 4 -47v-297h-34z" glyph-name="m" horiz-adv-x="645" unicode="m"/><glyph d="M64 0v460h29l5 -56q45 60 125 60q68 0 109 -40t41 -126v-298h-34v293q0 138 -113 138q-56 0 -92 -33t-36 -88v-310h-34z" glyph-name="n" unicode="n"/><glyph d="M93 307v-154q0 -54 29.5 -89t86.5 -35t86.5 35t29.5 89v154q0 54 -29.5 89t-86.5 35t-86.5 -35t-29.5 -89zM59 147v166q0 64 39.5 107.5t110.5 43.5t110.5 -43.5t39.5 -107.5v-166q0 -64 -39.5 -107.5t-110.5 -43.5t-110.5 43.5t-39.5 107.5z" glyph-name="o" horiz-adv-x="418" unicode="o"/><glyph d="M64 -156v616h29l5 -56q45 60 125 60q68 0 109 -40t41 -126v-136q0 -86 -41 -126t-109 -40q-80 0 -125 60v-212h-34zM339 167v126q0 138 -113 138q-56 0 -92 -33t-36 -88v-160q0 -55 36 -88t92 -33q113 0 113 138z" glyph-name="p" unicode="p"/><glyph d="M368 460v-616h-34v212q-45 -60 -125 -60q-68 0 -109 40t-41 126v136q0 86 41 126t109 40q80 0 125 -60l5 56h29zM93 293v-126q0 -138 113 -138q56 0 92 33t36 88v160q0 55 -36 88t-92 33q-113 0 -113 -138z" glyph-name="q" unicode="q"/><glyph d="M267 428q-61 -10 -115 -69t-54 -152v-207h-34v460h29l5 -128q26 60 77 92.5t92 36.5h7v-32z" glyph-name="r" horiz-adv-x="289" unicode="r"/><glyph d="M275 347l-1 7q-18 77 -100 77q-13 0 -25.5 -2t-30.5 -9.5t-29.5 -25.5t-11.5 -46q0 -31 24.5 -56.5t60 -43.5t71 -36.5t60 -46.5t24.5 -63q0 -50 -40 -78t-89 -28q-68 0 -103.5 33.5t-41.5 77.5l-1 6h34l1 -7q18 -77 108 -77q17 0 36 3.5t41 21.5t22 48q0 29 -25 52 t-60 40t-70.5 35.5t-60.5 48.5t-25 69q0 57 38 87t89 30q61 0 96.5 -34t41.5 -76l1 -7h-34z" glyph-name="s" horiz-adv-x="355" unicode="s"/><glyph d="M251 34h7v-34h-19q-60 0 -91 35.5t-31 117.5v273h-88v34h88v140h34v-140h107v-34h-107v-266q0 -60 20.5 -93t79.5 -33z" glyph-name="t" horiz-adv-x="302" unicode="t"/><glyph d="M368 460v-460h-29l-5 56q-45 -60 -125 -60q-68 0 -109 40t-41 126v298h34v-293q0 -138 113 -138q56 0 92 33t36 88v310h34z" glyph-name="u" unicode="u"/><glyph d="M369 460l-145 -460h-50l-145 460h33l137 -430l137 430h33z" glyph-name="v" horiz-adv-x="398" unicode="v"/><glyph d="M292 460l104 -426l90 426h34l-97 -460h-50l-96 392l-96 -392h-50l-97 460h34l90 -426l104 426h30z" glyph-name="w" horiz-adv-x="554" unicode="w"/><glyph d="M283 0l-106 198l-106 -198h-38l122 224l-126 236h38l110 -209l110 209h38l-126 -236l122 -224h-38z" glyph-name="x" horiz-adv-x="354" unicode="x"/><glyph d="M154 -156l31 112l-156 504h33l138 -451l122 451h33l-167 -616h-34z" glyph-name="y" horiz-adv-x="384" unicode="y"/><glyph d="M39 0v35l207 390h-207v34h245v-38l-207 -387h207v-34h-245z" glyph-name="z" horiz-adv-x="323" unicode="z"/><glyph d="M64 294v32l7 1q42 7 72.5 44t30.5 96v183q0 40 23.5 64.5t58.5 24.5h37v-34h-7q-21 -1 -32.5 -3t-23.5 -9.5t-17 -22.5t-5 -40v-166q0 -108 -91 -154q32 -19 52 -39.5t27.5 -41t9.5 -32t2 -28.5v-178q0 -25 5 -40t17 -22.5t23.5 -9.5t32.5 -3h7v-34h-37q-35 0 -58.5 24.5 t-23.5 64.5v181q0 59 -30 96t-73 45z" glyph-name="braceleft" horiz-adv-x="357" unicode="{"/><glyph d="M64 -118v857h36v-857h-36z" glyph-name="bar" horiz-adv-x="164" unicode="|"/><glyph d="M293 326v-32l-7 -1q-43 -8 -73 -45t-30 -96v-181q0 -40 -23.5 -64.5t-58.5 -24.5h-37v34h7q21 1 32.5 3t23.5 9.5t17 22.5t5 40v178q0 17 2 28.5t9.5 32t27.5 41t52 39.5q-91 46 -91 154v166q0 25 -5 40t-17 22.5t-23.5 9.5t-32.5 3h-7v34h37q35 0 58.5 -24.5t23.5 -64.5 v-183q0 -59 30.5 -96t72.5 -44z" glyph-name="braceright" horiz-adv-x="357" unicode="}"/><glyph d="M197 196q-14 0 -39.5 10t-40.5 10q-16 0 -36 -10l-17 24q7 8 21 14t22 6q13 0 39 -10t41 -10q16 0 36 10l17 -24q-7 -8 -21 -14t-22 -6z" glyph-name="asciitilde" horiz-adv-x="304" unicode="~"/><glyph glyph-name="uni00A0" horiz-adv-x="185" unicode=" "/><glyph d="M64 0v476h34v-476h-34zM64 518v100h34v-100h-34z" glyph-name="exclamdown" horiz-adv-x="162" unicode="¡"/><glyph d="M212 -97v94q-66 5 -107 48t-41 115v301q0 71 41 114.5t107 48.5v91h34v-91q59 -5 98 -39t48 -96h-34l-2 7q-11 48 -46 72t-80 24q-54 0 -93 -34t-39 -100v-295q0 -66 39 -100t93 -34q45 0 80 24t46 72l2 7h34q-9 -62 -48 -96.5t-98 -38.5v-94h-34z" glyph-name="cent" horiz-adv-x="456" unicode="¢"/><glyph d="M407 508l-2 7q-21 77 -107 77q-56 0 -83 -34.5t-27 -89.5v-160h103v-34h-103v-240h225v-34h-349v34h90v240h-90v34h90v166q0 65 36.5 108t107.5 43q118 0 141 -109l1 -8h-33z" glyph-name="sterling" horiz-adv-x="504" unicode="£"/><glyph d="M205 345q40 0 72 -24l46 45l23 -22l-47 -47q18 -30 18 -97t-18 -97l47 -47l-23 -22l-46 45q-32 -24 -72 -24t-72 24l-46 -45l-23 22l47 47q-18 30 -18 97t18 97l-47 47l23 22l46 -45q32 24 72 24zM205 89q78 0 78 111t-78 111t-78 -111t78 -111z" glyph-name="currency" horiz-adv-x="410" unicode="¤"/><glyph d="M125 236v34h69l-130 348h33l142 -378l142 378h33l-131 -348h70v-34h-83l-14 -39v-73h97v-34h-97v-90h-34v90h-97v34h97v73l-15 39h-82z" glyph-name="yen" horiz-adv-x="478" unicode="¥"/><glyph d="M64 -118v308h34v-308h-34zM64 431v308h34v-308h-34z" glyph-name="brokenbar" horiz-adv-x="162" unicode="¦"/><glyph d="M276 198q25 -12 59 -12q16 0 36.5 4.5t43.5 23.5t23 49q0 35 -34.5 60.5t-89.5 52t-80 50.5q-15 5 -38 5q-13 0 -25.5 -2t-30.5 -9.5t-29.5 -25.5t-11.5 -46q0 -27 19 -49.5t41.5 -35.5t60 -32.5t56.5 -32.5zM328 592q-13 0 -25.5 -2t-30.5 -9.5t-29.5 -25.5t-11.5 -46 q0 -31 24.5 -56.5t60 -43.5t71 -36.5t60 -46.5t24.5 -63q0 -50 -42 -80t-91 -30q-9 0 -14 1q15 -22 15 -52q0 -50 -40 -78t-89 -28q-68 0 -103.5 33.5t-41.5 77.5l-1 6h34l1 -7q18 -77 108 -77q17 0 36 3.5t41 21.5t22 48q0 29 -25 52t-60 40t-70.5 35.5t-60.5 48.5t-25 69 q0 57 38 87t89 30q10 0 15 -1q-10 23 -10 45q0 57 38 87t89 30q61 0 96.5 -34t41.5 -76l1 -7h-34l-1 7q-18 77 -100 77z" glyph-name="section" horiz-adv-x="535" unicode="§"/><glyph d="M64 590v35h35v-35h-35zM132 590v35h35v-35h-35z" glyph-name="dieresis" horiz-adv-x="231" unicode="¨"/><glyph d="M377 625q132 0 224 -92t92 -224q0 -130 -92 -222t-224 -92q-129 0 -221 92t-92 222q0 132 92 224t221 92zM377 22q117 0 203.5 87t86.5 200q0 118 -86 204t-204 86q-113 0 -198 -86.5t-85 -203.5q0 -113 85.5 -200t197.5 -87zM458 253v-11q0 -35 -23 -54t-57 -19 t-56.5 19t-22.5 54v126q0 35 22.5 54t56.5 19t57 -19t23 -54v-11h31v10q0 44 -31.5 73.5t-79.5 29.5q-47 0 -78.5 -29.5t-31.5 -73.5v-124q0 -44 31.5 -73.5t78.5 -29.5q48 0 79.5 29.5t31.5 73.5v10h-31z" glyph-name="copyright" horiz-adv-x="757" unicode="©"/><glyph d="M213 370v24q-26 -26 -67 -26q-32 0 -57 20.5t-25 67.5v76q0 47 25 67.5t57 20.5q41 0 67 -26v24h29v-248h-29zM93 536v-84q0 -22 11.5 -35.5t23 -17t23.5 -3.5q21 0 41.5 13.5t20.5 42.5v84q0 29 -20.5 42.5t-41.5 13.5q-12 0 -23.5 -3.5t-23 -17t-11.5 -35.5z" glyph-name="ordfeminine" horiz-adv-x="306" unicode="ª"/><glyph d="M148 0l-84 180l84 180h35l-86 -180l86 -180h-35zM373 0l-84 180l84 180h35l-86 -180l86 -180h-35z" glyph-name="guillemotleft" horiz-adv-x="472" unicode="«"/><glyph d="M304 211v-152h-34v118h-206v34h240z" glyph-name="logicalnot" horiz-adv-x="368" unicode="¬"/><glyph glyph-name="uni00AD" horiz-adv-x="185" unicode="­"/><glyph d="M377 625q132 0 224 -92t92 -224q0 -130 -92 -222t-224 -92q-129 0 -221 92t-92 222q0 132 92 224t221 92zM377 22q117 0 203.5 87t86.5 200q0 118 -86 204t-204 86q-113 0 -198 -86.5t-85 -203.5q0 -113 85.5 -200t197.5 -87zM298 153v314h94q46 0 76 -31.5t30 -86.5v-8 q0 -29 -15.5 -59t-40.5 -48l24 -81h-32l-18 74h-87v-74h-31zM329 438v-182h76q23 0 42.5 24.5t19.5 57.5v19q0 35 -20 58t-51 23h-67z" glyph-name="registered" horiz-adv-x="757" unicode="®"/><glyph d="M64 584v34h188v-34h-188z" glyph-name="macron" horiz-adv-x="316" unicode="¯"/><glyph d="M64 535q0 44 20.5 67t57.5 23t57.5 -23t20.5 -67t-20.5 -68t-57.5 -24t-57.5 24t-20.5 68zM187 535q0 31 -14 46t-31 15q-16 0 -30 -15t-14 -46t14 -46.5t30 -15.5q17 0 31 15.5t14 46.5z" glyph-name="degree" horiz-adv-x="284" unicode="°"/><glyph d="M161 121v111h-96v34h96v114h34v-114h96v-34h-96v-111h-34zM64 0v34h227v-34h-227z" glyph-name="plusminus" horiz-adv-x="355" unicode="±"/><glyph d="M66 529v8q0 41 21 61t55 20q40 0 61 -24t21 -64q0 -28 -13.5 -52t-32 -42t-37.5 -35t-32.5 -38.5t-13.5 -44.5h129v-28h-160v33q0 32 20 60t43.5 46t43.5 45t20 57q0 31 -11.5 45t-38.5 14q-16 0 -29 -12.5t-13 -40.5v-8h-33z" glyph-name="uni00B2" horiz-adv-x="288" unicode="²"/><glyph d="M127 437v32h14q53 0 53 48v20q0 29 -15 41t-33 12q-48 0 -49 -57v-8h-33v8q1 42 24 63.5t58 21.5t58 -21t23 -60v-16q0 -45 -35 -68q35 -23 35 -68v-16q0 -39 -23 -60t-58 -21t-58 21.5t-24 63.5v8h33v-8q1 -57 49 -57q18 0 33 12t15 41v20q0 48 -53 48h-14z" glyph-name="uni00B3" horiz-adv-x="291" unicode="³"/><glyph d="M204 588l-119 -64l-21 27l114 71z" glyph-name="acute" horiz-adv-x="268" unicode="´"/><glyph d="M64 -156v616h34v-293q0 -138 113 -138q56 0 92 33t36 88v310h34v-460h-29l-5 56q-45 -60 -125 -60q-78 0 -116 47v-199h-34z" glyph-name="uni00B5" horiz-adv-x="437" unicode="µ"/><glyph d="M204 618h270v-618h-34v584h-165v-584h-34v298q-71 0 -124 36.5t-53 94.5v57q0 60 41.5 96t98.5 36z" glyph-name="paragraph" horiz-adv-x="538" unicode="¶"/><glyph d="M64 189v35h35v-35h-35z" glyph-name="periodcentered" horiz-adv-x="163" unicode="·"/><glyph d="M125 -4l-21 -107h-40l32 107h29z" glyph-name="cedilla" horiz-adv-x="189" unicode="¸"/><glyph d="M64 583l70 35h40v-329h-33v294l-77 -34v34z" glyph-name="uni00B9" horiz-adv-x="238" unicode="¹"/><glyph d="M64 535q0 44 20.5 67t57.5 23t57.5 -23t20.5 -67t-20.5 -68t-57.5 -24t-57.5 24t-20.5 68zM187 535q0 31 -14 46t-31 15q-16 0 -30 -15t-14 -46t14 -46.5t30 -15.5q17 0 31 15.5t14 46.5z" glyph-name="ordmasculine" horiz-adv-x="284" unicode="º"/><glyph d="M408 180l-84 -180h-35l86 180l-86 180h35zM183 180l-84 -180h-35l86 180l-86 180h35z" glyph-name="guillemotright" horiz-adv-x="472" unicode="»"/><glyph d="M429 618h38l-290 -618h-39zM64 583l70 35h40v-329h-33v294l-77 -34v34zM512 85v-85h-33v85h-136v36l116 208h53v-212h53v-32h-53zM479 117v180l-100 -180h100z" glyph-name="onequarter" horiz-adv-x="629" unicode="¼"/><glyph d="M429 618h38l-290 -618h-39zM64 583l70 35h40v-329h-33v294l-77 -34v34zM398 239v8q0 41 21 61t55 20q40 0 61 -24t21 -64q0 -28 -13.5 -52t-32 -42t-37.5 -35t-32.5 -38.5t-13.5 -44.5h129v-28h-160v33q0 32 20 60t43.5 46t43.5 45t20 57q0 31 -11.5 45t-38.5 14 q-16 0 -29 -12.5t-13 -40.5v-8h-33z" glyph-name="onehalf" horiz-adv-x="620" unicode="½"/><glyph d="M445 618h38l-290 -618h-39zM528 85v-85h-33v85h-136v36l116 208h53v-212h53v-32h-53zM495 117v180l-100 -180h100zM127 437v32h14q53 0 53 48v20q0 29 -15 41t-33 12q-48 0 -49 -57v-8h-33v8q1 42 24 63.5t58 21.5t58 -21t23 -60v-16q0 -45 -35 -68q35 -23 35 -68v-16 q0 -39 -23 -60t-58 -21t-58 21.5t-24 63.5v8h33v-8q1 -57 49 -57q18 0 33 12t15 41v20q0 48 -53 48h-14z" glyph-name="threequarters" horiz-adv-x="645" unicode="¾"/><glyph d="M245 499v-72q0 -36 -23 -73.5t-50.5 -64.5t-50.5 -64.5t-23 -73.5q0 -52 32 -85t83 -33q46 0 77 25t33 66v7h34v-7q-3 -56 -44.5 -90t-99.5 -34q-63 0 -106 41t-43 100v15q0 39 23 77.5t50.5 65.5t50.5 67t23 80v53h34zM245 625v-84h-34v84h34z" glyph-name="questiondown" horiz-adv-x="421" unicode="¿"/><glyph d="M268 653l-119 64l26 34l114 -71zM99 123l-32 -123h-33l161 618h50l161 -618h-33l-32 123h-242zM107 156h225l-112 432z" glyph-name="Agrave" horiz-adv-x="440" unicode="À"/><glyph d="M291 717l-119 -64l-21 27l114 71zM373 0l-32 123h-242l-32 -123h-33l161 618h50l161 -618h-33zM108 156h225l-113 432z" glyph-name="Aacute" horiz-adv-x="440" unicode="Á"/><glyph d="M373 0l-32 123h-242l-32 -123h-33l161 618h50l161 -618h-33zM108 156h225l-113 432zM241 770l50 -115h-35l-36 84l-36 -84h-34l49 115h42z" glyph-name="Acircumflex" horiz-adv-x="440" unicode="Â"/><glyph d="M373 0l-32 123h-242l-32 -123h-33l161 618h50l161 -618h-33zM108 156h225l-113 432zM265 655q-14 0 -39.5 10t-40.5 10q-16 0 -36 -10l-17 24q7 8 21 14t22 6q13 0 39 -10t41 -10q16 0 36 10l17 -24q-7 -8 -21 -14t-22 -6z" glyph-name="Atilde" horiz-adv-x="440" unicode="Ã"/><glyph d="M373 0l-32 123h-242l-32 -123h-33l161 618h50l161 -618h-33zM108 156h225l-113 432zM169 655v35h35v-35h-35zM237 655v35h35v-35h-35z" glyph-name="Adieresis" horiz-adv-x="440" unicode="Ä"/><glyph d="M142 747q0 44 20.5 67t57.5 23t57.5 -23t20.5 -67t-20.5 -68t-57.5 -24t-57.5 24t-20.5 68zM265 747q0 31 -14 46t-31 15q-16 0 -30 -15t-14 -46t14 -46.5t30 -15.5q17 0 31 15.5t14 46.5zM373 0l-32 123h-242l-32 -123h-33l161 618h50l161 -618h-33zM108 156h225 l-113 432z" glyph-name="Aring" horiz-adv-x="440" unicode="Å"/><glyph d="M54 0h-36l297 618h264v-34h-206v-278h149v-34h-149v-238h206v-34h-240v141h-216zM339 176v408l-199 -408h199z" glyph-name="AE" horiz-adv-x="633" unicode="Æ"/><glyph d="M387 132q-9 -65 -50.5 -99.5t-104.5 -36.5l-22 -114h-40l33 115q-65 6 -104.5 49.5t-39.5 113.5v301q0 76 46.5 120t119.5 44q65 0 109 -35t53 -101h-34l-2 7q-11 48 -46 72t-80 24q-54 0 -93 -34t-39 -100v-295q0 -66 39 -100t93 -34q45 0 80 24t46 72l2 7h34z" glyph-name="Ccedilla" horiz-adv-x="421" unicode="Ç"/><glyph d="M98 34h206v-34h-240v618h240v-34h-206v-278h149v-34h-149v-238zM233 653l-119 64l26 34l114 -71z" glyph-name="Egrave" horiz-adv-x="358" unicode="È"/><glyph d="M98 34h206v-34h-240v618h240v-34h-206v-278h149v-34h-149v-238zM254 717l-119 -64l-21 27l114 71z" glyph-name="Eacute" horiz-adv-x="358" unicode="É"/><glyph d="M98 34h206v-34h-240v618h240v-34h-206v-278h149v-34h-149v-238zM206 770l50 -115h-35l-36 84l-36 -84h-34l49 115h42z" glyph-name="Ecircumflex" horiz-adv-x="358" unicode="Ê"/><glyph d="M98 34h206v-34h-240v618h240v-34h-206v-278h149v-34h-149v-238zM132 655v35h35v-35h-35zM200 655v35h35v-35h-35z" glyph-name="Edieresis" horiz-adv-x="358" unicode="Ë"/><glyph d="M64 0v618h34v-618h-34zM130 653l-119 64l26 34l114 -71z" glyph-name="Igrave" horiz-adv-x="162" unicode="Ì"/><glyph d="M64 0v618h34v-618h-34zM149 717l-119 -64l-21 27l114 71z" glyph-name="Iacute" horiz-adv-x="162" unicode="Í"/><glyph d="M64 0v618h34v-618h-34zM102 770l50 -115h-35l-36 84l-36 -84h-34l49 115h42z" glyph-name="Icircumflex" horiz-adv-x="162" unicode="Î"/><glyph d="M64 0v618h34v-618h-34zM30 655v35h35v-35h-35zM98 655v35h35v-35h-35z" glyph-name="Idieresis" horiz-adv-x="162" unicode="Ï"/><glyph d="M24 280v34h56v304h158q72 0 118 -41.5t46 -122.5v-290q0 -81 -46 -122.5t-118 -41.5h-158v280h-56zM368 166v286q0 66 -38 99.5t-90 33.5h-126v-271h82v-34h-82v-247h126q52 0 90 33.5t38 99.5z" glyph-name="Eth" horiz-adv-x="456" unicode="Ð"/><glyph d="M361 0l-263 541v-541h-34v618h31l263 -540v540h34v-618h-31zM273 655q8 0 22 6t21 14l-17 24q-20 -10 -36 -10q-15 0 -41 10t-39 10q-8 0 -22 -6t-21 -14l17 -24q20 10 36 10q15 0 40.5 -10t39.5 -10z" glyph-name="Ntilde" horiz-adv-x="456" unicode="Ñ"/><glyph d="M225 625q73 0 119.5 -44t46.5 -120v-301q0 -76 -46.5 -120t-119.5 -44t-119.5 44t-46.5 120v301q0 76 46.5 120t119.5 44zM225 29q54 0 93 34t39 100v295q0 66 -39 100t-93 34t-93 -34t-39 -100v-295q0 -66 39 -100t93 -34zM275 653l-119 64l26 34l114 -71z" glyph-name="Ograve" horiz-adv-x="450" unicode="Ò"/><glyph d="M225 625q73 0 119.5 -44t46.5 -120v-301q0 -76 -46.5 -120t-119.5 -44t-119.5 44t-46.5 120v301q0 76 46.5 120t119.5 44zM225 29q54 0 93 34t39 100v295q0 66 -39 100t-93 34t-93 -34t-39 -100v-295q0 -66 39 -100t93 -34zM296 717l-119 -64l-21 27l114 71z" glyph-name="Oacute" horiz-adv-x="450" unicode="Ó"/><glyph d="M225 625q73 0 119.5 -44t46.5 -120v-301q0 -76 -46.5 -120t-119.5 -44t-119.5 44t-46.5 120v301q0 76 46.5 120t119.5 44zM225 29q54 0 93 34t39 100v295q0 66 -39 100t-93 34t-93 -34t-39 -100v-295q0 -66 39 -100t93 -34zM246 770l50 -115h-35l-36 84l-36 -84h-34 l49 115h42z" glyph-name="Ocircumflex" horiz-adv-x="450" unicode="Ô"/><glyph d="M225 625q73 0 119.5 -44t46.5 -120v-301q0 -76 -46.5 -120t-119.5 -44t-119.5 44t-46.5 120v301q0 76 46.5 120t119.5 44zM225 29q54 0 93 34t39 100v295q0 66 -39 100t-93 34t-93 -34t-39 -100v-295q0 -66 39 -100t93 -34zM270 655q-14 0 -39.5 10t-40.5 10 q-16 0 -36 -10l-17 24q7 8 21 14t22 6q13 0 39 -10t41 -10q16 0 36 10l17 -24q-7 -8 -21 -14t-22 -6z" glyph-name="Otilde" horiz-adv-x="450" unicode="Õ"/><glyph d="M225 625q73 0 119.5 -44t46.5 -120v-301q0 -76 -46.5 -120t-119.5 -44t-119.5 44t-46.5 120v301q0 76 46.5 120t119.5 44zM225 29q54 0 93 34t39 100v295q0 66 -39 100t-93 34t-93 -34t-39 -100v-295q0 -66 39 -100t93 -34zM174 655v35h35v-35h-35zM242 655v35h35v-35 h-35z" glyph-name="Odieresis" horiz-adv-x="450" unicode="Ö"/><glyph d="M220 64l-59 112l-59 -112h-38l75 139l-75 139h38l59 -112l59 112h38l-75 -139l75 -139h-38z" glyph-name="multiply" horiz-adv-x="322" unicode="×"/><glyph d="M208 -97v94q-67 5 -108 48t-41 115v301q0 71 41 114.5t108 48.5v91h34v-91q66 -5 107.5 -48.5t41.5 -114.5v-301q0 -72 -41.5 -115t-107.5 -48v-94h-34zM225 29q54 0 93 34t39 100v295q0 66 -39 100t-93 34t-93 -34t-39 -100v-295q0 -66 39 -100t93 -34z" glyph-name="Oslash" horiz-adv-x="450" unicode="Ø"/><glyph d="M230 -4q-73 0 -119.5 44t-46.5 120v458h34v-455q0 -66 39 -100t93 -34t93 34t39 100v455h34v-458q0 -76 -46.5 -120t-119.5 -44zM280 653l-119 64l26 34l114 -71z" glyph-name="Ugrave" horiz-adv-x="460" unicode="Ù"/><glyph d="M230 -4q-73 0 -119.5 44t-46.5 120v458h34v-455q0 -66 39 -100t93 -34t93 34t39 100v455h34v-458q0 -76 -46.5 -120t-119.5 -44zM299 717l-119 -64l-21 27l114 71z" glyph-name="Uacute" horiz-adv-x="460" unicode="Ú"/><glyph d="M230 -4q-73 0 -119.5 44t-46.5 120v458h34v-455q0 -66 39 -100t93 -34t93 34t39 100v455h34v-458q0 -76 -46.5 -120t-119.5 -44zM251 770l50 -115h-35l-36 84l-36 -84h-34l49 115h42z" glyph-name="Ucircumflex" horiz-adv-x="460" unicode="Û"/><glyph d="M230 -4q-73 0 -119.5 44t-46.5 120v458h34v-455q0 -66 39 -100t93 -34t93 34t39 100v455h34v-458q0 -76 -46.5 -120t-119.5 -44zM179 655v35h35v-35h-35zM247 655v35h35v-35h-35z" glyph-name="Udieresis" horiz-adv-x="460" unicode="Ü"/><glyph d="M204 240l142 378h33l-158 -421v-197h-34v197l-158 421h33zM271 717l-119 -64l-21 27l114 71z" glyph-name="Yacute" horiz-adv-x="408" unicode="Ý"/><glyph d="M64 0v618h34v-91h124q65 0 111 -45t46 -127v-97q0 -81 -46 -126t-111 -45h-124v-87h-34zM98 493v-372h119q53 0 90.5 35t37.5 111v79q0 77 -37.5 112t-90.5 35h-119z" glyph-name="Thorn" horiz-adv-x="428" unicode="Þ"/><glyph d="M194 34h47q54 0 93.5 32t39.5 100q0 71 -38.5 99.5t-94.5 28.5h-37v34h18q135 0 135 127v8q0 121 -132 121h-11q-53 0 -87 -34.5t-34 -105.5v-444h-34v449q0 76 41.5 122.5t113.5 46.5h11q166 0 166 -153v-15q0 -96 -79 -140q96 -33 96 -140v-8q0 -77 -49.5 -119.5 t-117.5 -42.5h-47v34z" glyph-name="germandbls" horiz-adv-x="462" unicode="ß"/><glyph d="M93 293v-126q0 -138 113 -138q56 0 92 33t36 88v160q0 55 -36 88t-92 33q-113 0 -113 -138zM368 0h-29l-5 56q-45 -60 -125 -60q-68 0 -109 40t-41 126v136q0 86 41 126t109 40q80 0 125 -60l5 56h29v-460zM271 499l-119 64l26 34l114 -71z" glyph-name="agrave" unicode="à"/><glyph d="M93 293v-126q0 -138 113 -138q56 0 92 33t36 88v160q0 55 -36 88t-92 33q-113 0 -113 -138zM368 0h-29l-5 56q-45 -60 -125 -60q-68 0 -109 40t-41 126v136q0 86 41 126t109 40q80 0 125 -60l5 56h29v-460zM292 563l-119 -64l-21 27l114 71z" glyph-name="aacute" unicode="á"/><glyph d="M93 293v-126q0 -138 113 -138q56 0 92 33t36 88v160q0 55 -36 88t-92 33q-113 0 -113 -138zM368 0h-29l-5 56q-45 -60 -125 -60q-68 0 -109 40t-41 126v136q0 86 41 126t109 40q80 0 125 -60l5 56h29v-460zM238 616l50 -115h-35l-36 84l-36 -84h-34l49 115h42z" glyph-name="acircumflex" unicode="â"/><glyph d="M93 293v-126q0 -138 113 -138q56 0 92 33t36 88v160q0 55 -36 88t-92 33q-113 0 -113 -138zM368 0h-29l-5 56q-45 -60 -125 -60q-68 0 -109 40t-41 126v136q0 86 41 126t109 40q80 0 125 -60l5 56h29v-460zM258 501q-14 0 -39.5 10t-40.5 10q-16 0 -36 -10l-17 24 q7 8 21 14t22 6q13 0 39 -10t41 -10q16 0 36 10l17 -24q-7 -8 -21 -14t-22 -6z" glyph-name="atilde" unicode="ã"/><glyph d="M93 293v-126q0 -138 113 -138q56 0 92 33t36 88v160q0 55 -36 88t-92 33q-113 0 -113 -138zM368 0h-29l-5 56q-45 -60 -125 -60q-68 0 -109 40t-41 126v136q0 86 41 126t109 40q80 0 125 -60l5 56h29v-460zM156 501v35h35v-35h-35zM225 501v35h35v-35h-35z" glyph-name="adieresis" unicode="ä"/><glyph d="M135 593q0 44 20.5 67t57.5 23t57.5 -23t20.5 -67t-20.5 -68t-57.5 -24t-57.5 24t-20.5 68zM258 593q0 31 -14 46t-31 15q-16 0 -30 -15t-14 -46t14 -46.5t30 -15.5q17 0 31 15.5t14 46.5zM93 293v-126q0 -138 113 -138q56 0 92 33t36 88v160q0 55 -36 88t-92 33 q-113 0 -113 -138zM368 0h-29l-5 56q-45 -60 -125 -60q-68 0 -109 40t-41 126v136q0 86 41 126t109 40q80 0 125 -60l5 56h29v-460z" glyph-name="aring" unicode="å"/><glyph d="M622 222h-270v-69q0 -54 30.5 -89t87.5 -35q84 0 112 73h35q-13 -47 -51 -76.5t-96 -29.5q-95 0 -134 76q-63 -76 -150 -76q-61 0 -101.5 34.5t-40.5 96.5v7q0 57 36.5 99t115.5 42q72 0 122 -48v80q0 55 -27 89.5t-83 34.5q-87 0 -110 -85h-34q26 118 144 118 q94 0 129 -74q39 74 133 74q71 0 111.5 -43.5t40.5 -107.5v-91zM352 307v-52h236v52q0 54 -30.5 89t-87.5 35t-87.5 -35t-30.5 -89zM190 29q49 0 88.5 33.5t39.5 66.5q0 56 -32 84.5t-87 28.5q-51 0 -86 -28t-35 -82v-8q0 -42 31.5 -68.5t80.5 -26.5z" glyph-name="ae" horiz-adv-x="681" unicode="æ"/><glyph d="M359 112q-10 -48 -45 -79.5t-89 -35.5l-27 -128h-36l34 128q-65 4 -101 46t-36 104v166q0 64 39.5 107.5t110.5 43.5q61 0 100 -32.5t50 -83.5l1 -8h-33l-2 7q-10 38 -40 61t-76 23q-57 0 -86.5 -35t-29.5 -89v-154q0 -54 29.5 -89t86.5 -35q46 0 76 23t40 61l2 7h33z " glyph-name="ccedilla" horiz-adv-x="409" unicode="ç"/><glyph d="M93 222v-69q0 -54 30.5 -89t87.5 -35q84 0 112 73h35q-13 -47 -51 -76.5t-96 -29.5q-71 0 -111.5 43.5t-40.5 107.5v166q0 64 40.5 107.5t111.5 43.5t111.5 -43.5t40.5 -107.5v-91h-270zM93 307v-52h236v52q0 54 -30.5 89t-87.5 35t-87.5 -35t-30.5 -89zM263 499l-119 64 l26 34l114 -71z" glyph-name="egrave" horiz-adv-x="422" unicode="è"/><glyph d="M93 222v-69q0 -54 30.5 -89t87.5 -35q84 0 112 73h35q-13 -47 -51 -76.5t-96 -29.5q-71 0 -111.5 43.5t-40.5 107.5v166q0 64 40.5 107.5t111.5 43.5t111.5 -43.5t40.5 -107.5v-91h-270zM93 307v-52h236v52q0 54 -30.5 89t-87.5 35t-87.5 -35t-30.5 -89zM284 563 l-119 -64l-21 27l114 71z" glyph-name="eacute" horiz-adv-x="422" unicode="é"/><glyph d="M93 222v-69q0 -54 30.5 -89t87.5 -35q84 0 112 73h35q-13 -47 -51 -76.5t-96 -29.5q-71 0 -111.5 43.5t-40.5 107.5v166q0 64 40.5 107.5t111.5 43.5t111.5 -43.5t40.5 -107.5v-91h-270zM93 307v-52h236v52q0 54 -30.5 89t-87.5 35t-87.5 -35t-30.5 -89zM233 616l50 -115 h-35l-36 84l-36 -84h-34l49 115h42z" glyph-name="ecircumflex" horiz-adv-x="422" unicode="ê"/><glyph d="M93 222v-69q0 -54 30.5 -89t87.5 -35q84 0 112 73h35q-13 -47 -51 -76.5t-96 -29.5q-71 0 -111.5 43.5t-40.5 107.5v166q0 64 40.5 107.5t111.5 43.5t111.5 -43.5t40.5 -107.5v-91h-270zM93 307v-52h236v52q0 54 -30.5 89t-87.5 35t-87.5 -35t-30.5 -89zM156 501v35h35 v-35h-35zM225 501v35h35v-35h-35z" glyph-name="edieresis" horiz-adv-x="422" unicode="ë"/><glyph d="M64 0v460h34v-460h-34zM130 499l-119 64l26 34l114 -71z" glyph-name="igrave" horiz-adv-x="162" unicode="ì"/><glyph d="M98 460v-460h-34v460h34zM151 563l-119 -64l-21 27l114 71z" glyph-name="iacute" horiz-adv-x="162" unicode="í"/><glyph d="M64 0v460h34v-460h-34zM102 616l50 -115h-35l-36 84l-36 -84h-34l49 115h42z" glyph-name="icircumflex" horiz-adv-x="162" unicode="î"/><glyph d="M64 0v460h34v-460h-34zM30 501v35h35v-35h-35zM98 501v35h35v-35h-35z" glyph-name="idieresis" horiz-adv-x="162" unicode="ï"/><glyph d="M343 302v-164q0 -62 -42.5 -102t-104.5 -40q-60 0 -101 40t-41 102v82q0 62 41 102t101 40q72 0 114 -57l-75 223h-100v34h88l-18 56h33l18 -56h89v-34h-77zM196 329q-50 0 -79.5 -33t-29.5 -85v-64q0 -52 29.5 -85t79.5 -33q52 0 83 32.5t31 85.5v61q0 52 -31 86.5 t-83 34.5z" glyph-name="eth" horiz-adv-x="404" unicode="ð"/><glyph d="M64 0v460h29l5 -56q45 60 125 60q68 0 109 -40t41 -126v-298h-34v293q0 138 -113 138q-56 0 -92 -33t-36 -88v-310h-34zM276 501q-14 0 -39.5 10t-40.5 10q-16 0 -36 -10l-17 24q7 8 21 14t22 6q13 0 39 -10t41 -10q16 0 36 10l17 -24q-7 -8 -21 -14t-22 -6z" glyph-name="ntilde" unicode="ñ"/><glyph d="M93 307v-154q0 -54 29.5 -89t86.5 -35t86.5 35t29.5 89v154q0 54 -29.5 89t-86.5 35t-86.5 -35t-29.5 -89zM59 147v166q0 64 39.5 107.5t110.5 43.5t110.5 -43.5t39.5 -107.5v-166q0 -64 -39.5 -107.5t-110.5 -43.5t-110.5 43.5t-39.5 107.5zM259 499l-119 64l26 34 l114 -71z" glyph-name="ograve" horiz-adv-x="418" unicode="ò"/><glyph d="M325 153v154q0 54 -29.5 89t-86.5 35t-86.5 -35t-29.5 -89v-154q0 -54 29.5 -89t86.5 -35t86.5 35t29.5 89zM359 313v-166q0 -64 -39.5 -107.5t-110.5 -43.5t-110.5 43.5t-39.5 107.5v166q0 64 39.5 107.5t110.5 43.5t110.5 -43.5t39.5 -107.5zM280 563l-119 -64l-21 27 l114 71z" glyph-name="oacute" horiz-adv-x="418" unicode="ó"/><glyph d="M93 307v-154q0 -54 29.5 -89t86.5 -35t86.5 35t29.5 89v154q0 54 -29.5 89t-86.5 35t-86.5 -35t-29.5 -89zM59 147v166q0 64 39.5 107.5t110.5 43.5t110.5 -43.5t39.5 -107.5v-166q0 -64 -39.5 -107.5t-110.5 -43.5t-110.5 43.5t-39.5 107.5zM229 616l50 -115h-35l-36 84 l-36 -84h-34l49 115h42z" glyph-name="ocircumflex" horiz-adv-x="418" unicode="ô"/><glyph d="M93 307v-154q0 -54 29.5 -89t86.5 -35t86.5 35t29.5 89v154q0 54 -29.5 89t-86.5 35t-86.5 -35t-29.5 -89zM59 147v166q0 64 39.5 107.5t110.5 43.5t110.5 -43.5t39.5 -107.5v-166q0 -64 -39.5 -107.5t-110.5 -43.5t-110.5 43.5t-39.5 107.5zM254 501q-14 0 -39.5 10 t-40.5 10q-16 0 -36 -10l-17 24q7 8 21 14t22 6q13 0 39 -10t41 -10q16 0 36 10l17 -24q-7 -8 -21 -14t-22 -6z" glyph-name="otilde" horiz-adv-x="418" unicode="õ"/><glyph d="M93 307v-154q0 -54 29.5 -89t86.5 -35t86.5 35t29.5 89v154q0 54 -29.5 89t-86.5 35t-86.5 -35t-29.5 -89zM59 147v166q0 64 39.5 107.5t110.5 43.5t110.5 -43.5t39.5 -107.5v-166q0 -64 -39.5 -107.5t-110.5 -43.5t-110.5 43.5t-39.5 107.5zM156 501v35h35v-35h-35z M225 501v35h35v-35h-35z" glyph-name="odieresis" horiz-adv-x="418" unicode="ö"/><glyph d="M64 123v34h213v-34h-213zM153 32v35h35v-35h-35zM153 213v35h35v-35h-35z" glyph-name="divide" horiz-adv-x="341" unicode="÷"/><glyph d="M192 -97v94q-63 5 -98 47.5t-35 102.5v166q0 60 35 102.5t98 47.5v91h34v-91q63 -5 98 -47.5t35 -102.5v-166q0 -60 -35 -102.5t-98 -47.5v-94h-34zM93 307v-154q0 -54 29.5 -89t86.5 -35t86.5 35t29.5 89v154q0 54 -29.5 89t-86.5 35t-86.5 -35t-29.5 -89z" glyph-name="oslash" horiz-adv-x="418" unicode="ø"/><glyph d="M368 460v-460h-29l-5 56q-45 -60 -125 -60q-68 0 -109 40t-41 126v298h34v-293q0 -138 113 -138q56 0 92 33t36 88v310h34zM264 499l-119 64l26 34l114 -71z" glyph-name="ugrave" unicode="ù"/><glyph d="M368 460v-460h-29l-5 56q-45 -60 -125 -60q-68 0 -109 40t-41 126v298h34v-293q0 -138 113 -138q56 0 92 33t36 88v310h34zM284 563l-119 -64l-21 27l114 71z" glyph-name="uacute" unicode="ú"/><glyph d="M368 460v-460h-29l-5 56q-45 -60 -125 -60q-68 0 -109 40t-41 126v298h34v-293q0 -138 113 -138q56 0 92 33t36 88v310h34zM234 616l50 -115h-35l-36 84l-36 -84h-34l49 115h42z" glyph-name="ucircumflex" unicode="û"/><glyph d="M368 460v-460h-29l-5 56q-45 -60 -125 -60q-68 0 -109 40t-41 126v298h34v-293q0 -138 113 -138q56 0 92 33t36 88v310h34zM154 501v35h35v-35h-35zM223 501v35h35v-35h-35z" glyph-name="udieresis" unicode="ü"/><glyph d="M154 -156l31 112l-156 504h33l138 -451l122 451h33l-167 -616h-34zM271 563l-119 -64l-21 27l114 71z" glyph-name="yacute" horiz-adv-x="384" unicode="ý"/><glyph d="M64 -156v774h34v-214q45 60 125 60q68 0 109 -40t41 -126v-136q0 -86 -41 -126t-109 -40q-80 0 -125 60v-212h-34zM339 167v126q0 138 -113 138q-56 0 -92 -33t-36 -88v-160q0 -55 36 -88t92 -33q113 0 113 138z" glyph-name="thorn" unicode="þ"/><glyph d="M154 -156l31 112l-156 504h33l138 -451l122 451h33l-167 -616h-34zM147 501v35h35v-35h-35zM216 501v35h35v-35h-35z" glyph-name="ydieresis" horiz-adv-x="384" unicode="ÿ"/><glyph d="M126 655v34h188v-34h-188zM373 0l-32 123h-242l-32 -123h-33l161 618h50l161 -618h-33zM108 156h225l-113 432z" glyph-name="Amacron" horiz-adv-x="440" unicode="Ā"/><glyph d="M93 293v-126q0 -138 113 -138q56 0 92 33t36 88v160q0 55 -36 88t-92 33q-113 0 -113 -138zM368 0h-29l-5 56q-45 -60 -125 -60q-68 0 -109 40t-41 126v136q0 86 41 126t109 40q80 0 125 -60l5 56h29v-460zM117 501v34h188v-34h-188z" glyph-name="amacron" unicode="ā"/><glyph d="M373 0l-32 123h-242l-32 -123h-33l161 618h50l161 -618h-33zM108 156h225l-113 432zM220 655q-36 0 -61.5 17.5t-30.5 52.5l-1 7h34l1 -7q3 -15 20.5 -25.5t37.5 -10.5t37.5 10.5t20.5 25.5l1 7h34l-1 -7q-5 -35 -30.5 -52.5t-61.5 -17.5z" glyph-name="Abreve" horiz-adv-x="440" unicode="Ă"/><glyph d="M93 293v-126q0 -138 113 -138q56 0 92 33t36 88v160q0 55 -36 88t-92 33q-113 0 -113 -138zM368 0h-29l-5 56q-45 -60 -125 -60q-68 0 -109 40t-41 126v136q0 86 41 126t109 40q80 0 125 -60l5 56h29v-460zM213 501q-36 0 -61.5 17.5t-30.5 52.5l-1 7h34l1 -7 q3 -15 20.5 -25.5t37.5 -10.5t37.5 10.5t20.5 25.5l1 7h34l-1 -7q-5 -35 -30.5 -52.5t-61.5 -17.5z" glyph-name="abreve" unicode="ă"/><glyph d="M405 -109v-28q-10 -2 -22 -2q-31 0 -53.5 22.5t-22.5 52.5q0 63 59 90l-25 97h-242l-32 -123h-33l161 618h50l161 -618h-21q-19 -2 -31.5 -19.5t-12.5 -43.5q0 -22 16 -35.5t30 -13.5q9 0 18 3zM108 156h225l-113 432z" glyph-name="Aogonek" horiz-adv-x="440" unicode="Ą"/><glyph d="M93 293v-126q0 -138 113 -138q56 0 92 33t36 88v160q0 55 -36 88t-92 33q-113 0 -113 -138zM374 -125v-28q-5 -1 -22 -1q-31 0 -53.5 22.5t-22.5 52.5q0 65 62 90l-4 45q-45 -60 -125 -60q-68 0 -109 40t-41 126v136q0 86 41 126t109 40q80 0 125 -60l5 56h29v-475h-14 q-19 0 -31.5 -18.5t-12.5 -44.5q0 -22 16 -35.5t30 -13.5q12 0 18 2z" glyph-name="aogonek" horiz-adv-x="438" unicode="ą"/><glyph d="M225 -4q-73 0 -119.5 44t-46.5 120v301q0 76 46.5 120t119.5 44q65 0 109 -35t53 -101h-34l-2 7q-11 48 -46 72t-80 24q-54 0 -93 -34t-39 -100v-295q0 -66 39 -100t93 -34q45 0 80 24t46 72l2 7h34q-9 -66 -53 -101t-109 -35zM287 717l-119 -64l-21 27l114 71z" glyph-name="Cacute" horiz-adv-x="421" unicode="Ć"/><glyph d="M209 -4q-71 0 -110.5 43.5t-39.5 107.5v166q0 64 39.5 107.5t110.5 43.5q61 0 100 -32.5t50 -83.5l1 -8h-33l-2 7q-10 38 -40 61t-76 23q-57 0 -86.5 -35t-29.5 -89v-154q0 -54 29.5 -89t86.5 -35q46 0 76 23t40 61l2 7h33l-1 -8q-11 -51 -50 -83.5t-100 -32.5zM272 563 l-119 -64l-21 27l114 71z" glyph-name="cacute" horiz-adv-x="409" unicode="ć"/><glyph d="M225 -4q-73 0 -119.5 44t-46.5 120v301q0 76 46.5 120t119.5 44q65 0 109 -35t53 -101h-34l-2 7q-11 48 -46 72t-80 24q-54 0 -93 -34t-39 -100v-295q0 -66 39 -100t93 -34q45 0 80 24t46 72l2 7h34q-9 -66 -53 -101t-109 -35zM248 770l50 -115h-35l-36 84l-36 -84h-34 l49 115h42z" glyph-name="Ccircumflex" horiz-adv-x="421" unicode="Ĉ"/><glyph d="M209 -4q-71 0 -110.5 43.5t-39.5 107.5v166q0 64 39.5 107.5t110.5 43.5q61 0 100 -32.5t50 -83.5l1 -8h-33l-2 7q-10 38 -40 61t-76 23q-57 0 -86.5 -35t-29.5 -89v-154q0 -54 29.5 -89t86.5 -35q46 0 76 23t40 61l2 7h33l-1 -8q-11 -51 -50 -83.5t-100 -32.5zM230 616 l50 -115h-35l-36 84l-36 -84h-34l49 115h42z" glyph-name="ccircumflex" horiz-adv-x="409" unicode="ĉ"/><glyph d="M225 -4q-73 0 -119.5 44t-46.5 120v301q0 76 46.5 120t119.5 44q65 0 109 -35t53 -101h-34l-2 7q-11 48 -46 72t-80 24q-54 0 -93 -34t-39 -100v-295q0 -66 39 -100t93 -34q45 0 80 24t46 72l2 7h34q-9 -66 -53 -101t-109 -35zM210 655v35h35v-35h-35z" glyph-name="Cdotaccent" horiz-adv-x="421" unicode="Ċ"/><glyph d="M209 -4q-71 0 -110.5 43.5t-39.5 107.5v166q0 64 39.5 107.5t110.5 43.5q61 0 100 -32.5t50 -83.5l1 -8h-33l-2 7q-10 38 -40 61t-76 23q-57 0 -86.5 -35t-29.5 -89v-154q0 -54 29.5 -89t86.5 -35q46 0 76 23t40 61l2 7h33l-1 -8q-11 -51 -50 -83.5t-100 -32.5zM193 501 v35h35v-35h-35z" glyph-name="cdotaccent" horiz-adv-x="409" unicode="ċ"/><glyph d="M225 -4q-73 0 -119.5 44t-46.5 120v301q0 76 46.5 120t119.5 44q65 0 109 -35t53 -101h-34l-2 7q-11 48 -46 72t-80 24q-54 0 -93 -34t-39 -100v-295q0 -66 39 -100t93 -34q45 0 80 24t46 72l2 7h34q-9 -66 -53 -101t-109 -35zM295 770l-50 -115h-42l-49 115h34l36 -84 l36 84h35z" glyph-name="Ccaron" horiz-adv-x="421" unicode="Č"/><glyph d="M209 -4q-71 0 -110.5 43.5t-39.5 107.5v166q0 64 39.5 107.5t110.5 43.5q61 0 100 -32.5t50 -83.5l1 -8h-33l-2 7q-10 38 -40 61t-76 23q-57 0 -86.5 -35t-29.5 -89v-154q0 -54 29.5 -89t86.5 -35q46 0 76 23t40 61l2 7h33l-1 -8q-11 -51 -50 -83.5t-100 -32.5zM282 616 l-50 -115h-42l-49 115h34l36 -84l36 84h35z" glyph-name="ccaron" horiz-adv-x="409" unicode="č"/><glyph d="M64 0v618h158q72 0 118 -41.5t46 -122.5v-290q0 -81 -46 -122.5t-118 -41.5h-158zM352 166v286q0 66 -38 99.5t-90 33.5h-126v-552h126q52 0 90 33.5t38 99.5zM277 770l-50 -115h-42l-49 115h34l36 -84l36 84h35z" glyph-name="Dcaron" horiz-adv-x="440" unicode="Ď"/><glyph d="M368 618v-618h-29l-5 56q-45 -60 -125 -60q-68 0 -109 40t-41 126v136q0 86 41 126t109 40q80 0 125 -60v214h34zM93 293v-126q0 -138 113 -138q56 0 92 33t36 88v160q0 55 -36 88t-92 33q-113 0 -113 -138zM488 502l24 116h40l-35 -116h-29z" glyph-name="dcaron" horiz-adv-x="572" unicode="ď"/><glyph d="M24 280v34h56v304h158q72 0 118 -41.5t46 -122.5v-290q0 -81 -46 -122.5t-118 -41.5h-158v280h-56zM368 166v286q0 66 -38 99.5t-90 33.5h-126v-271h82v-34h-82v-247h126q52 0 90 33.5t38 99.5z" glyph-name="Dcroat" horiz-adv-x="456" unicode="Đ"/><glyph d="M256 535v34h78v49h34v-49h57v-34h-57v-535h-29l-5 56q-45 -60 -125 -60q-68 0 -109 40t-41 126v136q0 86 41 126t109 40q80 0 125 -60v131h-78zM93 293v-126q0 -138 113 -138q56 0 92 33t36 88v160q0 55 -36 88t-92 33q-113 0 -113 -138z" glyph-name="dcroat" horiz-adv-x="459" unicode="đ"/><glyph d="M98 34h206v-34h-240v618h240v-34h-206v-278h149v-34h-149v-238zM278 655h-188v34h188v-34z" glyph-name="Emacron" horiz-adv-x="358" unicode="Ē"/><glyph d="M112 501v34h188v-34h-188zM93 222v-69q0 -54 30.5 -89t87.5 -35q84 0 112 73h35q-13 -47 -51 -76.5t-96 -29.5q-71 0 -111.5 43.5t-40.5 107.5v166q0 64 40.5 107.5t111.5 43.5t111.5 -43.5t40.5 -107.5v-91h-270zM93 307v-52h236v52q0 54 -30.5 89t-87.5 35t-87.5 -35 t-30.5 -89z" glyph-name="emacron" horiz-adv-x="422" unicode="ē"/><glyph d="M98 34h206v-34h-240v618h240v-34h-206v-278h149v-34h-149v-238zM167 655v35h35v-35h-35z" glyph-name="Edotaccent" horiz-adv-x="358" unicode="Ė"/><glyph d="M93 222v-69q0 -54 30.5 -89t87.5 -35q84 0 112 73h35q-13 -47 -51 -76.5t-96 -29.5q-71 0 -111.5 43.5t-40.5 107.5v166q0 64 40.5 107.5t111.5 43.5t111.5 -43.5t40.5 -107.5v-91h-270zM93 307v-52h236v52q0 54 -30.5 89t-87.5 35t-87.5 -35t-30.5 -89zM195 501v35h35 v-35h-35z" glyph-name="edotaccent" horiz-adv-x="422" unicode="ė"/><glyph d="M98 34h206v-34h-24q-39 -23 -39 -72q0 -22 14.5 -31t30.5 -9q12 0 18 2v-27q-14 -2 -22 -2q-32 0 -53.5 18.5t-21.5 47.5q0 41 23 73h-166v618h240v-34h-206v-278h149v-34h-149v-238z" glyph-name="Eogonek" horiz-adv-x="358" unicode="Ę"/><glyph d="M192 -3q-63 6 -98 48t-35 102v166q0 64 40.5 107.5t111.5 43.5t111.5 -43.5t40.5 -107.5v-91h-270v-69q0 -54 30.5 -89t87.5 -35q84 0 112 73h35q-12 -41 -43 -69t-78 -35q-38 -28 -38 -70q0 -22 14.5 -31t30.5 -9q12 0 18 2v-27q-14 -2 -22 -2q-32 0 -53.5 18.5 t-21.5 47.5q0 40 27 70zM93 307v-52h236v52q0 54 -30.5 89t-87.5 35t-87.5 -35t-30.5 -89z" glyph-name="eogonek" horiz-adv-x="422" unicode="ę"/><glyph d="M98 34h206v-34h-240v618h240v-34h-206v-278h149v-34h-149v-238zM259 770l-50 -115h-42l-49 115h34l36 -84l36 84h35z" glyph-name="Ecaron" horiz-adv-x="358" unicode="Ě"/><glyph d="M93 222v-69q0 -54 30.5 -89t87.5 -35q84 0 112 73h35q-13 -47 -51 -76.5t-96 -29.5q-71 0 -111.5 43.5t-40.5 107.5v166q0 64 40.5 107.5t111.5 43.5t111.5 -43.5t40.5 -107.5v-91h-270zM93 307v-52h236v52q0 54 -30.5 89t-87.5 35t-87.5 -35t-30.5 -89zM282 616 l-50 -115h-42l-49 115h34l36 -84l36 84h35z" glyph-name="ecaron" horiz-adv-x="422" unicode="ě"/><glyph d="M352 0v48q-44 -52 -127 -52q-73 0 -119.5 44t-46.5 120v301q0 76 46.5 120t119.5 44q65 0 109 -35t53 -101h-34l-2 7q-11 48 -46 72t-80 24q-54 0 -93 -34t-39 -100v-295q0 -66 39 -100t93 -34q56 0 91.5 33t35.5 61v157h-79v34h113v-314h-34zM243 770l50 -115h-35 l-36 84l-36 -84h-34l49 115h42z" glyph-name="Gcircumflex" horiz-adv-x="451" unicode="Ĝ"/><glyph d="M339 460h29v-477q0 -65 -36.5 -108t-107.5 -43q-118 0 -141 109l-1 8h33l2 -7q21 -77 107 -77q56 0 83 34.5t27 89.5v88q-45 -60 -125 -60q-68 0 -109 40t-41 126v115q0 86 41 126t109 40q80 0 125 -60zM334 171v139q0 55 -36 88t-92 33q-113 0 -113 -138v-105 q0 -138 113 -138q56 0 92 33t36 88zM238 616l50 -115h-35l-36 84l-36 -84h-34l49 115h42z" glyph-name="gcircumflex" unicode="ĝ"/><glyph d="M352 0v48q-44 -52 -127 -52q-73 0 -119.5 44t-46.5 120v301q0 76 46.5 120t119.5 44q65 0 109 -35t53 -101h-34l-2 7q-11 48 -46 72t-80 24q-54 0 -93 -34t-39 -100v-295q0 -66 39 -100t93 -34q56 0 91.5 33t35.5 61v157h-79v34h113v-314h-34zM225 655q-36 0 -61.5 17.5 t-30.5 52.5l-1 7h34l1 -7q3 -15 20.5 -25.5t37.5 -10.5t37.5 10.5t20.5 25.5l1 7h34l-1 -7q-5 -35 -30.5 -52.5t-61.5 -17.5z" glyph-name="Gbreve" horiz-adv-x="451" unicode="Ğ"/><glyph d="M339 460h29v-477q0 -65 -36.5 -108t-107.5 -43q-118 0 -141 109l-1 8h33l2 -7q21 -77 107 -77q56 0 83 34.5t27 89.5v88q-45 -60 -125 -60q-68 0 -109 40t-41 126v115q0 86 41 126t109 40q80 0 125 -60zM334 171v139q0 55 -36 88t-92 33q-113 0 -113 -138v-105 q0 -138 113 -138q56 0 92 33t36 88zM213 501q-36 0 -61.5 17.5t-30.5 52.5l-1 7h34l1 -7q3 -15 20.5 -25.5t37.5 -10.5t37.5 10.5t20.5 25.5l1 7h34l-1 -7q-5 -35 -30.5 -52.5t-61.5 -17.5z" glyph-name="gbreve" unicode="ğ"/><glyph d="M352 0v48q-44 -52 -127 -52q-73 0 -119.5 44t-46.5 120v301q0 76 46.5 120t119.5 44q65 0 109 -35t53 -101h-34l-2 7q-11 48 -46 72t-80 24q-54 0 -93 -34t-39 -100v-295q0 -66 39 -100t93 -34q56 0 91.5 33t35.5 61v157h-79v34h113v-314h-34zM209 655v35h35v-35h-35z " glyph-name="Gdotaccent" horiz-adv-x="451" unicode="Ġ"/><glyph d="M339 460h29v-477q0 -65 -36.5 -108t-107.5 -43q-118 0 -141 109l-1 8h33l2 -7q21 -77 107 -77q56 0 83 34.5t27 89.5v88q-45 -60 -125 -60q-68 0 -109 40t-41 126v115q0 86 41 126t109 40q80 0 125 -60zM334 171v139q0 55 -36 88t-92 33q-113 0 -113 -138v-105 q0 -138 113 -138q56 0 92 33t36 88zM191 501v35h35v-35h-35z" glyph-name="gdotaccent" unicode="ġ"/><glyph d="M352 0v48q-44 -52 -127 -52q-73 0 -119.5 44t-46.5 120v301q0 76 46.5 120t119.5 44q65 0 109 -35t53 -101h-34l-2 7q-11 48 -46 72t-80 24q-54 0 -93 -34t-39 -100v-295q0 -66 39 -100t93 -34q56 0 91.5 33t35.5 61v157h-79v34h113v-314h-34zM241 -43l-22 -107h-39 l32 107h29z" glyph-name="Gcommaaccent" horiz-adv-x="451" unicode="Ģ"/><glyph d="M339 460h29v-477q0 -65 -36.5 -108t-107.5 -43q-118 0 -141 109l-1 8h33l2 -7q21 -77 107 -77q56 0 83 34.5t27 89.5v88q-45 -60 -125 -60q-68 0 -109 40t-41 126v115q0 86 41 126t109 40q80 0 125 -60zM334 171v139q0 55 -36 88t-92 33q-113 0 -113 -138v-105 q0 -138 113 -138q56 0 92 33t36 88zM292 563l-119 -64l-21 27l114 71z" glyph-name="gcommaaccent" unicode="ģ"/><glyph d="M340 0v272h-242v-272h-34v618h34v-313h242v313h34v-618h-34zM240 770l50 -115h-35l-36 84l-36 -84h-34l49 115h42z" glyph-name="Hcircumflex" horiz-adv-x="438" unicode="Ĥ"/><glyph d="M64 0v618h34v-214q45 60 125 60q68 0 109 -40t41 -126v-298h-34v293q0 138 -113 138q-55 0 -91.5 -31.5t-36.5 -84.5v-315h-34zM157 770l50 -115h-35l-36 84l-36 -84h-34l49 115h42z" glyph-name="hcircumflex" unicode="ĥ"/><glyph d="M34 488v34h59v96h34v-96h242v96h34v-96h59v-34h-59v-488h-34v272h-242v-272h-34v488h-59zM127 305h242v183h-242v-183z" glyph-name="Hbar" horiz-adv-x="496" unicode="Ħ"/><glyph d="M34 535v34h57v49h34v-49h78v-34h-78v-131q45 60 125 60q68 0 109 -40t41 -126v-298h-34v293q0 138 -113 138q-55 0 -91.5 -31.5t-36.5 -84.5v-315h-34v535h-57z" glyph-name="hbar" horiz-adv-x="459" unicode="ħ"/><glyph d="M126 655q-14 0 -39.5 10t-40.5 10q-16 0 -36 -10l-17 24q7 8 21 14t22 6q13 0 39 -10t41 -10q16 0 36 10l17 -24q-7 -8 -21 -14t-22 -6zM64 0v618h34v-618h-34z" glyph-name="Itilde" horiz-adv-x="162" unicode="Ĩ"/><glyph d="M126 501q-14 0 -39.5 10t-40.5 10q-16 0 -36 -10l-17 24q7 8 21 14t22 6q13 0 39 -10t41 -10q16 0 36 10l17 -24q-7 -8 -21 -14t-22 -6zM64 0v460h34v-460h-34z" glyph-name="itilde" horiz-adv-x="162" unicode="ĩ"/><glyph d="M64 0v618h34v-618h-34zM0 655v34h162v-34h-162z" glyph-name="Imacron" horiz-adv-x="162" unicode="Ī"/><glyph d="M64 0v460h34v-460h-34zM0 501v34h162v-34h-162z" glyph-name="imacron" horiz-adv-x="162" unicode="ī"/><glyph d="M64 25v593h34v-618h-14q-19 0 -31.5 -18.5t-12.5 -44.5q0 -22 16 -35.5t30 -13.5q12 0 18 2v-27q-10 -2 -22 -2q-31 0 -53.5 22.5t-22.5 52.5q0 62 58 89z" glyph-name="Iogonek" horiz-adv-x="162" unicode="Į"/><glyph d="M64 502v100h34v-100h-34zM64 25v435h34v-460h-14q-19 0 -31.5 -18.5t-12.5 -44.5q0 -22 16 -35.5t30 -13.5q12 0 18 2v-27q-10 -2 -22 -2q-31 0 -53.5 22.5t-22.5 52.5q0 62 58 89z" glyph-name="iogonek" horiz-adv-x="162" unicode="į"/><glyph d="M64 0v618h34v-618h-34zM64 655v100h34v-100h-34z" glyph-name="Idotaccent" horiz-adv-x="162" unicode="İ"/><glyph d="M64 0v460h34v-460h-34z" glyph-name="dotlessi" horiz-adv-x="162" unicode="ı"/><glyph d="M62 129l1 -7q5 -41 35.5 -67t74.5 -26q52 0 83.5 33t31.5 91v465h34v-472q0 -75 -41.5 -112.5t-107.5 -37.5q-58 0 -99.5 36.5t-44.5 89.5v7h33zM271 770l50 -115h-35l-36 84l-36 -84h-34l49 115h42z" glyph-name="Jcircumflex" horiz-adv-x="386" unicode="Ĵ"/><glyph d="M-49 -157h7q38 0 60.5 8t32 26.5t11.5 34.5t2 48v500h34v-505q0 -82 -30.5 -114t-92.5 -32h-24v34zM152 501l-50 115h-42l-49 -115h34l36 84l36 -84h35z" glyph-name="jcircumflex" horiz-adv-x="162" unicode="ĵ"/><glyph d="M387 0h-34l-137 345l-118 -215v-130h-34v618h34v-420l232 420h38l-131 -237zM233 -43l-22 -107h-39l32 107h29z" glyph-name="Kcommaaccent" horiz-adv-x="421" unicode="Ķ"/><glyph d="M297 460h40l-80 -127l128 -333h-36l-114 300l-137 -216v-84h-34v618h34v-470zM229 -43l-22 -107h-39l32 107h29z" glyph-name="kcommaaccent" horiz-adv-x="409" unicode="ķ"/><glyph d="M297 460h40l-80 -127l128 -333h-36l-114 300l-137 -216v-84h-34v460h34v-312z" glyph-name="kgreenlandic" horiz-adv-x="409" unicode="ĸ"/><glyph d="M64 0v618h34v-584h206v-34h-240zM204 717l-119 -64l-21 27l114 71z" glyph-name="Lacute" horiz-adv-x="343" unicode="Ĺ"/><glyph d="M64 0v618h34v-618h-34zM149 717l-119 -64l-21 27l114 71z" glyph-name="lacute" horiz-adv-x="162" unicode="ĺ"/><glyph d="M64 0v618h34v-584h206v-34h-240zM202 -43l-22 -107h-39l32 107h29z" glyph-name="Lcommaaccent" horiz-adv-x="343" unicode="Ļ"/><glyph d="M64 0v618h34v-618h-34zM98 -43l-22 -107h-39l32 107h29z" glyph-name="lcommaaccent" horiz-adv-x="162" unicode="ļ"/><glyph d="M64 0v618h34v-584h206v-34h-240zM242 502l24 116h40l-35 -116h-29z" glyph-name="Lcaron" horiz-adv-x="345" unicode="Ľ"/><glyph d="M64 0v618h34v-618h-34zM218 502l24 116h40l-35 -116h-29z" glyph-name="lcaron" horiz-adv-x="302" unicode="ľ"/><glyph d="M34 312v34l103 20v252h34v-246l101 20v-34l-101 -20v-304h206v-34h-240v332z" glyph-name="Lslash" horiz-adv-x="416" unicode="Ł"/><glyph d="M34 312v34l103 20v252h34v-246l101 20v-34l-101 -20v-338h-34v332z" glyph-name="lslash" horiz-adv-x="306" unicode="ł"/><glyph d="M361 0l-263 541v-541h-34v618h31l263 -540v540h34v-618h-31zM301 717l-119 -64l-21 27l114 71z" glyph-name="Nacute" horiz-adv-x="456" unicode="Ń"/><glyph d="M64 0v460h29l5 -56q45 60 125 60q68 0 109 -40t41 -126v-298h-34v293q0 138 -113 138q-56 0 -92 -33t-36 -88v-310h-34zM281 563l-119 -64l-21 27l114 71z" glyph-name="nacute" unicode="ń"/><glyph d="M361 0l-263 541v-541h-34v618h31l263 -540v540h34v-618h-31zM256 -43l-22 -107h-39l32 107h29z" glyph-name="Ncommaaccent" horiz-adv-x="456" unicode="Ņ"/><glyph d="M64 0v460h29l5 -56q45 60 125 60q68 0 109 -40t41 -126v-298h-34v293q0 138 -113 138q-56 0 -92 -33t-36 -88v-310h-34zM235 -43l-22 -107h-39l32 107h29z" glyph-name="ncommaaccent" unicode="ņ"/><glyph d="M361 0l-263 541v-541h-34v618h31l263 -540v540h34v-618h-31zM249 655l50 115h-35l-36 -84l-36 84h-34l49 -115h42z" glyph-name="Ncaron" horiz-adv-x="456" unicode="Ň"/><glyph d="M64 0v460h29l5 -56q45 60 125 60q68 0 109 -40t41 -126v-298h-34v293q0 138 -113 138q-56 0 -92 -33t-36 -88v-310h-34zM291 616l-50 -115h-42l-49 115h34l36 -84l36 84h35z" glyph-name="ncaron" unicode="ň"/><glyph d="M245 -157h7q38 0 60.5 8t32 26.5t11.5 34.5t2 48v46l-260 535v-541h-34v618h31l263 -540v540h34v-663q0 -82 -30.5 -114t-92.5 -32h-24v34z" glyph-name="Eng" horiz-adv-x="456" unicode="Ŋ"/><glyph d="M339 -40v333q0 138 -113 138q-56 0 -92 -33t-36 -88v-310h-34v460h29l5 -56q45 60 125 60q68 0 109 -40t41 -126v-343q0 -82 -30.5 -114t-92.5 -32h-24v34h7q38 0 60.5 8t32 26.5t11.5 34.5t2 48z" glyph-name="eng" unicode="ŋ"/><glyph d="M225 625q73 0 119.5 -44t46.5 -120v-301q0 -76 -46.5 -120t-119.5 -44t-119.5 44t-46.5 120v301q0 76 46.5 120t119.5 44zM225 29q54 0 93 34t39 100v295q0 66 -39 100t-93 34t-93 -34t-39 -100v-295q0 -66 39 -100t93 -34zM131 655v34h188v-34h-188z" glyph-name="Omacron" horiz-adv-x="450" unicode="Ō"/><glyph d="M93 307v-154q0 -54 29.5 -89t86.5 -35t86.5 35t29.5 89v154q0 54 -29.5 89t-86.5 35t-86.5 -35t-29.5 -89zM59 147v166q0 64 39.5 107.5t110.5 43.5t110.5 -43.5t39.5 -107.5v-166q0 -64 -39.5 -107.5t-110.5 -43.5t-110.5 43.5t-39.5 107.5zM115 501v34h188v-34h-188z " glyph-name="omacron" horiz-adv-x="418" unicode="ō"/><glyph d="M225 625q73 0 119.5 -44t46.5 -120v-301q0 -76 -46.5 -120t-119.5 -44t-119.5 44t-46.5 120v301q0 76 46.5 120t119.5 44zM225 29q54 0 93 34t39 100v295q0 66 -39 100t-93 34t-93 -34t-39 -100v-295q0 -66 39 -100t93 -34zM322 762l-32 -107h-29l21 107h40zM217 762 l-32 -107h-29l21 107h40z" glyph-name="Ohungarumlaut" horiz-adv-x="450" unicode="Ő"/><glyph d="M93 307v-154q0 -54 29.5 -89t86.5 -35t86.5 35t29.5 89v154q0 54 -29.5 89t-86.5 35t-86.5 -35t-29.5 -89zM59 147v166q0 64 39.5 107.5t110.5 43.5t110.5 -43.5t39.5 -107.5v-166q0 -64 -39.5 -107.5t-110.5 -43.5t-110.5 43.5t-39.5 107.5zM306 608l-32 -107h-29 l21 107h40zM201 608l-32 -107h-29l21 107h40z" glyph-name="ohungarumlaut" horiz-adv-x="418" unicode="ő"/><glyph d="M225 618h359v-34h-206v-278h149v-34h-149v-238h206v-34h-359q-73 0 -119.5 44t-46.5 120v290q0 76 46.5 120t119.5 44zM344 585h-119q-54 0 -93 -34t-39 -100v-284q0 -66 39 -100t93 -34h119v552z" glyph-name="OE" horiz-adv-x="638" unicode="Œ"/><glyph d="M359 222v-69q0 -54 30.5 -89t87.5 -35q84 0 112 73h35q-13 -47 -51 -76.5t-96 -29.5q-96 0 -135 76q-39 -76 -133 -76q-71 0 -110.5 43.5t-39.5 107.5v166q0 64 39.5 107.5t110.5 43.5q94 0 133 -76q39 76 135 76q71 0 111.5 -43.5t40.5 -107.5v-91h-270zM93 307v-154 q0 -54 29.5 -89t86.5 -35q56 0 86 33.5t30 85.5v159q0 54 -29.5 89t-86.5 35t-86.5 -35t-29.5 -89zM477 431q-56 0 -87 -34t-31 -85v-57h236v52q0 54 -30.5 89t-87.5 35z" glyph-name="oe" horiz-adv-x="688" unicode="œ"/><glyph d="M328 0l-69 216q-16 -4 -37 -4h-124v-212h-34v618h158q65 0 111 -45t46 -127v-63q0 -58 -24.5 -98t-64.5 -58l71 -227h-33zM98 584v-338h119q53 0 90.5 35t37.5 111v45q0 77 -37.5 112t-90.5 35h-119zM278 717l-119 -64l-21 27l114 71z" glyph-name="Racute" horiz-adv-x="423" unicode="Ŕ"/><glyph d="M267 428q-61 -10 -115 -69t-54 -152v-207h-34v460h29l5 -128q26 60 77 92.5t92 36.5h7v-32zM208 563l-119 -64l-21 27l114 71z" glyph-name="racute" horiz-adv-x="289" unicode="ŕ"/><glyph d="M328 0l-69 216q-16 -4 -37 -4h-124v-212h-34v618h158q65 0 111 -45t46 -127v-63q0 -58 -24.5 -98t-64.5 -58l71 -227h-33zM98 584v-338h119q53 0 90.5 35t37.5 111v45q0 77 -37.5 112t-90.5 35h-119zM228 -43l-22 -107h-39l32 107h29z" glyph-name="Rcommaaccent" horiz-adv-x="423" unicode="Ŗ"/><glyph d="M267 428q-61 -10 -115 -69t-54 -152v-207h-34v460h29l5 -128q26 60 77 92.5t92 36.5h7v-32zM128 -43l-22 -107h-39l32 107h29z" glyph-name="rcommaaccent" horiz-adv-x="289" unicode="ŗ"/><glyph d="M328 0l-69 216q-16 -4 -37 -4h-124v-212h-34v618h158q65 0 111 -45t46 -127v-63q0 -58 -24.5 -98t-64.5 -58l71 -227h-33zM98 584v-338h119q53 0 90.5 35t37.5 111v45q0 77 -37.5 112t-90.5 35h-119zM257 770l-50 -115h-42l-49 115h34l36 -84l36 84h35z" glyph-name="Rcaron" horiz-adv-x="423" unicode="Ř"/><glyph d="M267 428q-61 -10 -115 -69t-54 -152v-207h-34v460h29l5 -128q26 60 77 92.5t92 36.5h7v-32zM213 616l-50 -115h-42l-49 115h34l36 -84l36 84h35z" glyph-name="rcaron" horiz-adv-x="289" unicode="ř"/><glyph d="M320 471v7q0 114 -119 114q-40 0 -67 -13.5t-36.5 -35t-12.5 -34.5t-3 -27q0 -38 21.5 -68.5t54.5 -49t70.5 -41t70.5 -44.5t54.5 -59.5t21.5 -85.5q0 -69 -45 -103.5t-115 -34.5q-65 0 -112.5 34.5t-48.5 111.5v6h34v-7q0 -46 28.5 -79t97.5 -33q42 0 70.5 12t39.5 31.5 t14.5 33.5t3.5 29q0 48 -30 84.5t-73.5 60.5t-86.5 49t-73 63t-30 88q0 74 42 109.5t109 35.5q64 0 108.5 -35t45.5 -112v-7h-34zM285 717l-119 -64l-21 27l114 71z" glyph-name="Sacute" horiz-adv-x="414" unicode="Ś"/><glyph d="M275 347l-1 7q-18 77 -100 77q-13 0 -25.5 -2t-30.5 -9.5t-29.5 -25.5t-11.5 -46q0 -31 24.5 -56.5t60 -43.5t71 -36.5t60 -46.5t24.5 -63q0 -50 -40 -78t-89 -28q-68 0 -103.5 33.5t-41.5 77.5l-1 6h34l1 -7q18 -77 108 -77q17 0 36 3.5t41 21.5t22 48q0 29 -25 52 t-60 40t-70.5 35.5t-60.5 48.5t-25 69q0 57 38 87t89 30q61 0 96.5 -34t41.5 -76l1 -7h-34zM238 563l-119 -64l-21 27l114 71z" glyph-name="sacute" horiz-adv-x="355" unicode="ś"/><glyph d="M320 471v7q0 114 -119 114q-40 0 -67 -13.5t-36.5 -35t-12.5 -34.5t-3 -27q0 -38 21.5 -68.5t54.5 -49t70.5 -41t70.5 -44.5t54.5 -59.5t21.5 -85.5q0 -69 -45 -103.5t-115 -34.5q-65 0 -112.5 34.5t-48.5 111.5v6h34v-7q0 -46 28.5 -79t97.5 -33q42 0 70.5 12t39.5 31.5 t14.5 33.5t3.5 29q0 48 -30 84.5t-73.5 60.5t-86.5 49t-73 63t-30 88q0 74 42 109.5t109 35.5q64 0 108.5 -35t45.5 -112v-7h-34zM212 770l50 -115h-35l-36 84l-36 -84h-34l49 115h42z" glyph-name="Scircumflex" horiz-adv-x="414" unicode="Ŝ"/><glyph d="M275 347l-1 7q-18 77 -100 77q-13 0 -25.5 -2t-30.5 -9.5t-29.5 -25.5t-11.5 -46q0 -31 24.5 -56.5t60 -43.5t71 -36.5t60 -46.5t24.5 -63q0 -50 -40 -78t-89 -28q-68 0 -103.5 33.5t-41.5 77.5l-1 6h34l1 -7q18 -77 108 -77q17 0 36 3.5t41 21.5t22 48q0 29 -25 52 t-60 40t-70.5 35.5t-60.5 48.5t-25 69q0 57 38 87t89 30q61 0 96.5 -34t41.5 -76l1 -7h-34zM198 616l50 -115h-35l-36 84l-36 -84h-34l49 115h42z" glyph-name="scircumflex" horiz-adv-x="355" unicode="ŝ"/><glyph d="M320 471v7q0 114 -119 114q-40 0 -67 -13.5t-36.5 -35t-12.5 -34.5t-3 -27q0 -38 21.5 -68.5t54.5 -49t70.5 -41t70.5 -44.5t54.5 -59.5t21.5 -85.5q0 -63 -37.5 -97t-98.5 -40l-28 -128h-37l35 127q-64 2 -109 36.5t-46 109.5v6h34v-7q0 -46 28.5 -79t97.5 -33 q42 0 70.5 12t39.5 31.5t14.5 33.5t3.5 29q0 48 -30 84.5t-73.5 60.5t-86.5 49t-73 63t-30 88q0 74 42 109.5t109 35.5q64 0 108.5 -35t45.5 -112v-7h-34z" glyph-name="Scedilla" horiz-adv-x="414" unicode="Ş"/><glyph d="M275 347l-1 7q-18 77 -100 77q-13 0 -25.5 -2t-30.5 -9.5t-29.5 -25.5t-11.5 -46q0 -31 24.5 -56.5t60 -43.5t71 -36.5t60 -46.5t24.5 -63q0 -45 -33.5 -72.5t-78.5 -32.5l-28 -128h-37l35 128q-62 3 -94.5 35.5t-37.5 74.5l-1 6h34l1 -7q18 -77 108 -77q17 0 36 3.5 t41 21.5t22 48q0 29 -25 52t-60 40t-70.5 35.5t-60.5 48.5t-25 69q0 57 38 87t89 30q61 0 96.5 -34t41.5 -76l1 -7h-34z" glyph-name="scedilla" horiz-adv-x="355" unicode="ş"/><glyph d="M320 471v7q0 114 -119 114q-40 0 -67 -13.5t-36.5 -35t-12.5 -34.5t-3 -27q0 -38 21.5 -68.5t54.5 -49t70.5 -41t70.5 -44.5t54.5 -59.5t21.5 -85.5q0 -69 -45 -103.5t-115 -34.5q-65 0 -112.5 34.5t-48.5 111.5v6h34v-7q0 -46 28.5 -79t97.5 -33q42 0 70.5 12t39.5 31.5 t14.5 33.5t3.5 29q0 48 -30 84.5t-73.5 60.5t-86.5 49t-73 63t-30 88q0 74 42 109.5t109 35.5q64 0 108.5 -35t45.5 -112v-7h-34zM273 770l-50 -115h-42l-49 115h34l36 -84l36 84h35z" glyph-name="Scaron" horiz-adv-x="414" unicode="Š"/><glyph d="M275 347l-1 7q-18 77 -100 77q-13 0 -25.5 -2t-30.5 -9.5t-29.5 -25.5t-11.5 -46q0 -31 24.5 -56.5t60 -43.5t71 -36.5t60 -46.5t24.5 -63q0 -50 -40 -78t-89 -28q-68 0 -103.5 33.5t-41.5 77.5l-1 6h34l1 -7q18 -77 108 -77q17 0 36 3.5t41 21.5t22 48q0 29 -25 52 t-60 40t-70.5 35.5t-60.5 48.5t-25 69q0 57 38 87t89 30q61 0 96.5 -34t41.5 -76l1 -7h-34zM245 616l-50 -115h-42l-49 115h34l36 -84l36 84h35z" glyph-name="scaron" horiz-adv-x="355" unicode="š"/><glyph d="M156 25v559h-122v34h278v-34h-122v-584h-14q-19 0 -31.5 -18.5t-12.5 -44.5q0 -22 16 -35.5t30 -13.5q12 0 18 2v-27q-10 -2 -22 -2q-31 0 -53.5 22.5t-22.5 52.5q0 62 58 89z" glyph-name="Tcommaaccent" horiz-adv-x="346" unicode="Ţ"/><glyph d="M251 34h7v-34h-19q-16 0 -24 1l-29 -132h-37l38 139q-70 26 -70 145v273h-88v34h88v140h34v-140h107v-34h-107v-266q0 -60 20.5 -93t79.5 -33z" glyph-name="tcommaaccent" horiz-adv-x="302" unicode="ţ"/><glyph d="M156 0v584h-122v34h278v-34h-122v-584h-34zM244 770l-50 -115h-42l-49 115h34l36 -84l36 84h35z" glyph-name="Tcaron" horiz-adv-x="346" unicode="Ť"/><glyph d="M251 34h7v-34h-19q-60 0 -91 35.5t-31 117.5v273h-88v34h88v140h34v-140h107v-34h-107v-266q0 -60 20.5 -93t79.5 -33zM282 504l17 96h40l-28 -96h-29z" glyph-name="tcaron" horiz-adv-x="363" unicode="ť"/><glyph d="M74 335v34h82v215h-122v34h278v-34h-122v-215h82v-34h-82v-335h-34v335h-82z" glyph-name="Tbar" horiz-adv-x="346" unicode="Ŧ"/><glyph d="M29 331h88v142h-88v34h88v93h34v-93h107v-34h-107v-142h107v-34h-107v-137q0 -60 20.5 -93t79.5 -33h7v-34h-19q-60 0 -91 35.5t-31 117.5v144h-88v34z" glyph-name="tbar" horiz-adv-x="302" unicode="ŧ"/><glyph d="M230 -4q-73 0 -119.5 44t-46.5 120v458h34v-455q0 -66 39 -100t93 -34t93 34t39 100v455h34v-458q0 -76 -46.5 -120t-119.5 -44zM275 655q-14 0 -39.5 10t-40.5 10q-16 0 -36 -10l-17 24q7 8 21 14t22 6q13 0 39 -10t41 -10q16 0 36 10l17 -24q-7 -8 -21 -14t-22 -6z" glyph-name="Utilde" horiz-adv-x="460" unicode="Ũ"/><glyph d="M368 460v-460h-29l-5 56q-45 -60 -125 -60q-68 0 -109 40t-41 126v298h34v-293q0 -138 113 -138q56 0 92 33t36 88v310h34zM255 501q-14 0 -39.5 10t-40.5 10q-16 0 -36 -10l-17 24q7 8 21 14t22 6q13 0 39 -10t41 -10q16 0 36 10l17 -24q-7 -8 -21 -14t-22 -6z" glyph-name="utilde" unicode="ũ"/><glyph d="M230 -4q-73 0 -119.5 44t-46.5 120v458h34v-455q0 -66 39 -100t93 -34t93 34t39 100v455h34v-458q0 -76 -46.5 -120t-119.5 -44zM136 655v34h188v-34h-188z" glyph-name="Umacron" horiz-adv-x="460" unicode="Ū"/><glyph d="M368 460v-460h-29l-5 56q-45 -60 -125 -60q-68 0 -109 40t-41 126v298h34v-293q0 -138 113 -138q56 0 92 33t36 88v310h34zM118 501v34h188v-34h-188z" glyph-name="umacron" unicode="ū"/><glyph d="M230 -4q-73 0 -119.5 44t-46.5 120v458h34v-455q0 -66 39 -100t93 -34t93 34t39 100v455h34v-458q0 -76 -46.5 -120t-119.5 -44zM230 655q-36 0 -61.5 17.5t-30.5 52.5l-1 7h34l1 -7q3 -15 20.5 -25.5t37.5 -10.5t37.5 10.5t20.5 25.5l1 7h34l-1 -7q-5 -35 -30.5 -52.5 t-61.5 -17.5z" glyph-name="Ubreve" horiz-adv-x="460" unicode="Ŭ"/><glyph d="M368 460v-460h-29l-5 56q-45 -60 -125 -60q-68 0 -109 40t-41 126v298h34v-293q0 -138 113 -138q56 0 92 33t36 88v310h34zM212 501q-36 0 -61.5 17.5t-30.5 52.5l-1 7h34l1 -7q3 -15 20.5 -25.5t37.5 -10.5t37.5 10.5t20.5 25.5l1 7h34l-1 -7q-5 -35 -30.5 -52.5 t-61.5 -17.5z" glyph-name="ubreve" unicode="ŭ"/><glyph d="M152 747q0 44 20.5 67t57.5 23t57.5 -23t20.5 -67t-21 -68t-58 -24q-36 0 -56.5 23.5t-20.5 68.5zM275 747q0 31 -14 46t-31 15q-16 0 -30 -15t-14 -46t14 -46.5t30 -15.5q17 0 31 15.5t14 46.5zM230 -4q-73 0 -119.5 44t-46.5 120v458h34v-455q0 -66 39 -100t93 -34 t93 34t39 100v455h34v-458q0 -76 -46.5 -120t-119.5 -44z" glyph-name="Uring" horiz-adv-x="460" unicode="Ů"/><glyph d="M134 593q0 44 20.5 67t57.5 23t57.5 -23t20.5 -67t-20.5 -68t-57.5 -24t-57.5 24t-20.5 68zM257 593q0 31 -14 46t-31 15q-16 0 -30 -15t-14 -46t14 -46.5t30 -15.5q17 0 31 15.5t14 46.5zM368 460v-460h-29l-5 56q-45 -60 -125 -60q-68 0 -109 40t-41 126v298h34v-293 q0 -138 113 -138q56 0 92 33t36 88v310h34z" glyph-name="uring" unicode="ů"/><glyph d="M230 -4q-73 0 -119.5 44t-46.5 120v458h34v-455q0 -66 39 -100t93 -34t93 34t39 100v455h34v-458q0 -76 -46.5 -120t-119.5 -44zM325 762l-32 -107h-29l21 107h40zM220 762l-32 -107h-29l21 107h40z" glyph-name="Uhungarumlaut" horiz-adv-x="460" unicode="Ű"/><glyph d="M368 460v-460h-29l-5 56q-45 -60 -125 -60q-68 0 -109 40t-41 126v298h34v-293q0 -138 113 -138q56 0 92 33t36 88v310h34zM303 608l-32 -107h-29l21 107h40zM198 608l-32 -107h-29l21 107h40z" glyph-name="uhungarumlaut" unicode="ű"/><glyph d="M396 160q0 -67 -36.5 -109.5t-95.5 -51.5q-41 -26 -41 -71q0 -22 14.5 -31t30.5 -9q12 0 18 2v-27q-10 -2 -22 -2q-32 0 -53.5 18.5t-21.5 47.5q0 44 28 70q-68 4 -110.5 47t-42.5 116v458h34v-455q0 -66 39 -100t93 -34t93 34t39 100v455h34v-458z" glyph-name="Uogonek" horiz-adv-x="460" unicode="Ų"/><glyph d="M338 11l-4 45q-45 -60 -125 -60q-68 0 -109 40t-41 126v298h34v-293q0 -138 113 -138q56 0 92 33t36 88v310h34v-475h-14q-19 0 -31.5 -18.5t-12.5 -44.5q0 -22 16 -35.5t30 -13.5q12 0 18 2v-28q-5 -1 -22 -1q-31 0 -53.5 22.5t-22.5 52.5q0 65 62 90z" glyph-name="uogonek" horiz-adv-x="438" unicode="ų"/><glyph d="M204 240l142 378h33l-158 -421v-197h-34v197l-158 421h33zM153 655v35h35v-35h-35zM221 655v35h35v-35h-35z" glyph-name="Ydieresis" horiz-adv-x="408" unicode="Ÿ"/><glyph d="M54 0v35l227 549h-227v34h261v-37l-227 -547h227v-34h-261zM272 717l-119 -64l-21 27l114 71z" glyph-name="Zacute" horiz-adv-x="369" unicode="Ź"/><glyph d="M39 0v35l207 390h-207v34h245v-38l-207 -387h207v-34h-245zM240 563l-119 -64l-21 27l114 71z" glyph-name="zacute" horiz-adv-x="323" unicode="ź"/><glyph d="M54 0v35l227 549h-227v34h261v-37l-227 -547h227v-34h-261zM167 690v-35h35v35h-35z" glyph-name="Zdotaccent" horiz-adv-x="369" unicode="Ż"/><glyph d="M39 0v35l207 390h-207v34h245v-38l-207 -387h207v-34h-245zM144 536v-35h35v35h-35z" glyph-name="zdotaccent" horiz-adv-x="323" unicode="ż"/><glyph d="M54 0v35l227 549h-227v34h261v-37l-227 -547h227v-34h-261zM205 655l50 115h-35l-36 -84l-36 84h-34l49 -115h42z" glyph-name="Zcaron" horiz-adv-x="369" unicode="Ž"/><glyph d="M39 0v35l207 390h-207v34h245v-38l-207 -387h207v-34h-245zM187 501l50 115h-35l-36 -84l-36 84h-34l49 -115h42z" glyph-name="zcaron" horiz-adv-x="323" unicode="ž"/><glyph d="M4 -157h7q38 0 60.5 8t32 26.5t11.5 34.5t2 48v466h-88v34h88v40q0 74 30.5 99.5t92.5 25.5h18v-34h-11q-55 0 -75.5 -21t-20.5 -64v-46h107v-34h-107v-471q0 -82 -30.5 -114t-92.5 -32h-24v34z" glyph-name="florin" horiz-adv-x="287" unicode="ƒ"/><glyph d="M320 471v7q0 114 -119 114q-40 0 -67 -13.5t-36.5 -35t-12.5 -34.5t-3 -27q0 -38 21.5 -68.5t54.5 -49t70.5 -41t70.5 -44.5t54.5 -59.5t21.5 -85.5q0 -69 -45 -103.5t-115 -34.5q-65 0 -112.5 34.5t-48.5 111.5v6h34v-7q0 -46 28.5 -79t97.5 -33q42 0 70.5 12t39.5 31.5 t14.5 33.5t3.5 29q0 48 -30 84.5t-73.5 60.5t-86.5 49t-73 63t-30 88q0 74 42 109.5t109 35.5q64 0 108.5 -35t45.5 -112v-7h-34zM230 -43l-22 -107h-39l32 107h29z" glyph-name="Scommaaccent" horiz-adv-x="414" unicode="Ș"/><glyph d="M275 347l-1 7q-18 77 -100 77q-13 0 -25.5 -2t-30.5 -9.5t-29.5 -25.5t-11.5 -46q0 -31 24.5 -56.5t60 -43.5t71 -36.5t60 -46.5t24.5 -63q0 -50 -40 -78t-89 -28q-68 0 -103.5 33.5t-41.5 77.5l-1 6h34l1 -7q18 -77 108 -77q17 0 36 3.5t41 21.5t22 48q0 29 -25 52 t-60 40t-70.5 35.5t-60.5 48.5t-25 69q0 57 38 87t89 30q61 0 96.5 -34t41.5 -76l1 -7h-34zM206 -43l-22 -107h-39l32 107h29z" glyph-name="scommaaccent" horiz-adv-x="355" unicode="ș"/><glyph d="M156 0v584h-122v34h278v-34h-122v-584h-34zM188 -43l-22 -107h-39l32 107h29z" glyph-name="uni021A" horiz-adv-x="346" unicode="Ț"/><glyph d="M251 34h7v-34h-19q-60 0 -91 35.5t-31 117.5v273h-88v34h88v140h34v-140h107v-34h-107v-266q0 -60 20.5 -93t79.5 -33zM206 -43l-22 -107h-39l32 107h29z" glyph-name="uni021B" horiz-adv-x="302" unicode="ț"/><glyph d="M155 618l50 -115h-35l-36 84l-36 -84h-34l49 115h42z" glyph-name="circumflex" horiz-adv-x="269" unicode="ˆ"/><glyph d="M205 618l-50 -115h-42l-49 115h34l36 -84l36 84h35z" glyph-name="caron" horiz-adv-x="269" unicode="ˇ"/><glyph d="M157 541q-36 0 -61.5 17.5t-30.5 52.5l-1 7h34l1 -7q3 -15 20.5 -25.5t37.5 -10.5t37.5 10.5t20.5 25.5l1 7h34l-1 -7q-5 -35 -30.5 -52.5t-61.5 -17.5z" glyph-name="breve" horiz-adv-x="314" unicode="˘"/><glyph d="M64 589v35h35v-35h-35z" glyph-name="dotaccent" horiz-adv-x="163" unicode="˙"/><glyph d="M64 535q0 44 20.5 67t57.5 23t57.5 -23t20.5 -67t-20.5 -68t-57.5 -24t-57.5 24t-20.5 68zM187 535q0 31 -14 46t-31 15q-16 0 -30 -15t-14 -46t14 -46.5t30 -15.5q17 0 31 15.5t14 46.5z" glyph-name="ring" horiz-adv-x="284" unicode="˚"/><glyph d="M89 -4h38q-29 -27 -29 -68q0 -22 14.5 -31t30.5 -9q12 0 18 2v-27q-14 -2 -22 -2q-32 0 -53.5 18.5t-21.5 47.5q0 33 25 69z" glyph-name="ogonek" horiz-adv-x="225" unicode="˛"/><glyph d="M197 564q-14 0 -39.5 10t-40.5 10q-16 0 -36 -10l-17 24q7 8 21 14t22 6q13 0 39 -10t41 -10q16 0 36 10l17 -24q-7 -8 -21 -14t-22 -6z" glyph-name="tilde" horiz-adv-x="304" unicode="˜"/><glyph d="M230 618l-32 -107h-29l21 107h40zM125 618l-32 -107h-29l21 107h40z" glyph-name="hungarumlaut" horiz-adv-x="294" unicode="˝"/><glyph d="M274 625q71 0 118 -46.5t47 -111.5v-321q0 -62 -43 -112h88v-34h-135v31l4 2q53 34 53 114v311q0 67 -38.5 100.5t-93.5 33.5t-93.5 -33.5t-38.5 -100.5v-311q0 -80 53 -114l4 -2v-31h-135v34h88q-43 50 -43 112v321q0 65 47 111.5t118 46.5z" glyph-name="Omega" horiz-adv-x="548" unicode="Ω"/><glyph d="M458 0v426h-238v-426h-34v426h-122v34h550v-34h-122v-426h-34z" glyph-name="pi" horiz-adv-x="678" unicode="π"/><glyph glyph-name="uni200B" horiz-adv-x="0" unicode="​"/><glyph d="M291 196h-227v34h227v-34z" glyph-name="endash" horiz-adv-x="355" unicode="–"/><glyph d="M351 196h-287v34h287v-34z" glyph-name="emdash" horiz-adv-x="415" unicode="—"/><glyph d="M64 511l32 107h29l-21 -107h-40z" glyph-name="quoteleft" horiz-adv-x="189" unicode="‘"/><glyph d="M125 618l-32 -107h-29l21 107h40z" glyph-name="quoteright" horiz-adv-x="189" unicode="’"/><glyph d="M125 26l-32 -107h-29l21 107h40z" glyph-name="quotesinglbase" horiz-adv-x="189" unicode="‚"/><glyph d="M64 511l32 107h29l-21 -107h-40zM179 511l32 107h29l-21 -107h-40z" glyph-name="quotedblleft" horiz-adv-x="304" unicode="“"/><glyph d="M240 618l-32 -107h-29l21 107h40zM125 618l-32 -107h-29l21 107h40z" glyph-name="quotedblright" horiz-adv-x="304" unicode="”"/><glyph d="M240 26l-32 -107h-29l21 107h40zM125 26l-32 -107h-29l21 107h40z" glyph-name="quotedblbase" horiz-adv-x="304" unicode="„"/><glyph d="M64 441v34h95v143h34v-143h95v-34h-95v-441h-34v441h-95z" glyph-name="dagger" horiz-adv-x="352" unicode="†"/><glyph d="M288 137h-95v-137h-34v137h-95v34h95v270h-95v34h95v143h34v-143h95v-34h-95v-270h95v-34z" glyph-name="daggerdbl" horiz-adv-x="352" unicode="‡"/><glyph d="M64 189v35h35v-35h-35z" glyph-name="bullet" horiz-adv-x="163" unicode="•"/><glyph d="M64 0v35h35v-35h-35zM312 0v35h35v-35h-35zM560 0v35h35v-35h-35z" glyph-name="ellipsis" horiz-adv-x="659" unicode="…"/><glyph d="M752 90q0 -44 -20.5 -68t-57.5 -24t-57.5 24t-20.5 68t20.5 67t57.5 23t57.5 -23t20.5 -67zM629 90q0 -31 14 -46.5t31 -15.5q16 0 30 15.5t14 46.5t-14 46t-30 15q-17 0 -31 -15t-14 -46zM64 530q0 44 20.5 67t57.5 23t57.5 -23t20.5 -67t-20.5 -68t-57.5 -24t-57.5 24 t-20.5 68zM187 530q0 31 -14 46t-31 15q-16 0 -30 -15t-14 -46t14 -46.5t30 -15.5q17 0 31 15.5t14 46.5zM540 90q0 -44 -20.5 -68t-57.5 -24t-57.5 24t-20.5 68t20.5 67t57.5 23t57.5 -23t20.5 -67zM417 90q0 -31 14 -46.5t31 -15.5q16 0 30 15.5t14 46.5t-14 46t-30 15 q-17 0 -31 -15t-14 -46zM173 0h36l222 618h-38z" glyph-name="perthousand" horiz-adv-x="816" unicode="‰"/><glyph d="M64 118v40l206 93v-38l-169 -75l169 -75v-38z" glyph-name="guilsinglleft" horiz-adv-x="334" unicode="‹"/><glyph d="M270 158v-40l-206 -93v38l169 75l-169 75v38z" glyph-name="guilsinglright" horiz-adv-x="334" unicode="›"/><glyph d="M102 -118h-38l166 857h38q-31 -163 -95 -491.5t-71 -365.5z" glyph-name="fraction" horiz-adv-x="332" unicode="⁄"/><glyph d="M64 359v34h60v68q0 76 46.5 120t119.5 44q65 0 109 -35t53 -101h-34l-2 7q-11 48 -46 72t-80 24q-54 0 -93 -34t-39 -100v-65h102v-34h-102v-118h102v-34h-102v-44q0 -66 39 -100t93 -34q45 0 80 24t46 72l2 7h34q-9 -66 -53 -101t-109 -35q-73 0 -119.5 44t-46.5 120v47 h-60v34h60v118h-60z" glyph-name="Euro" horiz-adv-x="516" unicode="€"/><glyph d="M514 289v172q0 54 29.5 89t86.5 35t86.5 -35t29.5 -89v-172q0 -54 -29.5 -89t-86.5 -35t-86.5 35t-29.5 89zM480 467v-184q0 -64 39.5 -107.5t110.5 -43.5t110.5 43.5t39.5 107.5v184q0 64 -39.5 107.5t-110.5 43.5t-110.5 -43.5t-39.5 -107.5zM361 0l-263 541v-541h-34 v618h31l263 -540v540h34v-618h-31zM524 34v-34h213v34h-213z" glyph-name="afii61352" horiz-adv-x="844" unicode="№"/><glyph d="M268 591v-213h-29v240h49l35 -111l35 111h49v-240h-29v213l-40 -125h-30zM205 618v-28h-56v-212h-29v212h-56v28h141z" glyph-name="trademark" horiz-adv-x="471" unicode="™"/><glyph d="M274 625q71 0 118 -46.5t47 -111.5v-321q0 -62 -43 -112h88v-34h-135v31l4 2q53 34 53 114v311q0 67 -38.5 100.5t-93.5 33.5t-93.5 -33.5t-38.5 -100.5v-311q0 -80 53 -114l4 -2v-31h-135v34h88q-43 50 -43 112v321q0 65 47 111.5t118 46.5z" glyph-name="uni2126" horiz-adv-x="548" unicode="Ω"/><glyph d="M98 203v-36q0 -138 113 -138q56 0 92 33t36 88v70q0 55 -36 88t-92 33q-113 0 -113 -138zM229 625q71 0 107.5 -43t36.5 -108v-474h-29l-5 56q-45 -60 -125 -60q-68 0 -109 40t-41 126v46q0 86 41 126t109 40q80 0 125 -60v154q0 55 -27 89.5t-83 34.5q-87 0 -110 -85 h-34q26 118 144 118z" glyph-name="partialdiff" horiz-adv-x="437" unicode="∂"/><glyph d="M111 34h370l-185 558zM323 618l205 -618h-464l205 618h54z" glyph-name="uni2206" horiz-adv-x="592" unicode="∆"/><glyph d="M458 0v584h-238v-584h-34v584h-122v34h550v-34h-122v-584h-34z" glyph-name="product" horiz-adv-x="678" unicode="∏"/><glyph d="M64 0v34l84 275l-84 275v34h252v-34h-218l84 -275l-84 -275h218v-34h-252z" glyph-name="summation" horiz-adv-x="380" unicode="∑"/><glyph d="M291 196h-227v34h227v-34z" glyph-name="minus" horiz-adv-x="355" unicode="−"/><glyph d="M462 618v-34h-95l-185 -584h-50l-68 213h33l60 -183l187 588h118z" glyph-name="radical" horiz-adv-x="526" unicode="√"/><glyph d="M395 211q-33 58 -84.5 86.5t-95.5 28.5q-58 0 -87.5 -32.5t-29.5 -82.5t29.5 -82.5t87.5 -32.5q44 0 95.5 28.5t84.5 86.5zM416 185q-91 -123 -207 -123q-68 0 -106.5 44t-38.5 105t38.5 105t106.5 44q116 0 207 -123q91 123 207 123q68 0 106.5 -44t38.5 -105 t-38.5 -105t-106.5 -44q-116 0 -207 123zM437 211q33 -58 84.5 -86.5t95.5 -28.5q58 0 87.5 32.5t29.5 82.5t-29.5 82.5t-87.5 32.5q-44 0 -95.5 -28.5t-84.5 -86.5z" glyph-name="infinity" horiz-adv-x="832" unicode="∞"/><glyph d="M324 584h-7q-38 0 -60.5 -8t-32 -26.5t-11.5 -34.5t-2 -48v-512q0 -82 -30.5 -114t-92.5 -32h-24v34h7q38 0 60.5 8t32 26.5t11.5 34.5t2 48v512q0 82 30.5 114t92.5 32h24v-34z" glyph-name="integral" horiz-adv-x="388" unicode="∫"/><glyph d="M197 218q-14 0 -39.5 10t-40.5 10q-16 0 -36 -10l-17 24q7 8 21 14t22 6q13 0 39 -10t41 -10q16 0 36 10l17 -24q-7 -8 -21 -14t-22 -6zM197 85q-14 0 -39.5 10t-40.5 10q-16 0 -36 -10l-17 24q7 8 21 14t22 6q13 0 39 -10t41 -10q16 0 36 10l17 -24q-7 -8 -21 -14 t-22 -6z" glyph-name="approxequal" horiz-adv-x="304" unicode="≈"/><glyph d="M266 239h-69q-5 -27 -11 -57t-12 -61h92v-34h-99l-17 -87h-36l17 87h-67v34h74l23 118h-97v34h103l22 114h36l-21 -114h62v-34z" glyph-name="notequal" horiz-adv-x="330" unicode="≠"/><glyph d="M64 163v40l206 93v-38l-169 -75l169 -75v-38zM64 0v34h206v-34h-206z" glyph-name="lessequal" horiz-adv-x="334" unicode="≤"/><glyph d="M270 203v-40l-206 -93v38l169 75l-169 75v38zM270 34v-34h-206v34h206z" glyph-name="greaterequal" horiz-adv-x="334" unicode="≥"/><glyph d="M208 26l107 283l-107 283l-107 -283zM235 0h-54l-117 309l117 309h54l117 -309z" glyph-name="lozenge" horiz-adv-x="416" unicode="◊"/><glyph glyph-name="uni25CC" horiz-adv-x="185" unicode="◌"/><glyph d="M258 591h-11q-55 0 -75.5 -21t-20.5 -64v-46h107v-34h-107v-426h-34v426h-88v34h88v40q0 74 30.5 99.5t92.5 25.5h18v-34zM351 0v460h34v-460h-34zM351 502v100h34v-100h-34z" glyph-name="uniFB01" horiz-adv-x="449" unicode="ﬁ"/><glyph d="M258 591h-11q-55 0 -75.5 -21t-20.5 -64v-46h107v-34h-107v-426h-34v426h-88v34h88v40q0 74 30.5 99.5t92.5 25.5h18v-34zM351 0v618h34v-618h-34z" glyph-name="uniFB02" horiz-adv-x="449" unicode="ﬂ"/><glyph d="M315 505q106 0 180 -74t74 -180q0 -104 -74 -177.5t-180 -73.5q-103 0 -177 74t-74 177q0 106 73.5 180t177.5 74zM422 90q32 0 32 27q0 30 -24 30v133q0 43 -32 71q6 2 19 2t19 -2h11v65q-73 -9 -115 -32q-12 2 -37 2q-49 0 -88 -14v-63h6q50 16 76 16q74 0 74 -43 l-82 -8q-46 -4 -74 -23t-28 -69q0 -42 28.5 -67t73.5 -25q30 0 43 3v54l-6 4q-9 -4 -23 -4q-18 0 -31.5 10t-13.5 31q0 16 18 22.5t95 18.5v-71q0 -37 10.5 -52.5t39.5 -15.5h9z" glyph-name="glyph358" horiz-adv-x="633"/></font>
</defs>
</svg>
